<?xml version="1.0" encoding="UTF-8"?>
<svg id="Layer_2" data-name="Layer 2" xmlns="http://www.w3.org/2000/svg" viewBox="0 0 598.55 124.21">
  <defs>
    <style>
      .cls-1 {
        fill: #1f4520;
      }

      .cls-2 {
        fill: #fff;
      }

      .cls-3 {
        fill: #b3652f;
      }

      .cls-4 {
        fill: #010101;
      }

      .cls-5 {
        fill: #d1834e;
      }
    </style>
  </defs>
  <g id="Layer_1-2" data-name="Layer 1">
    <g>
      <path class="cls-1" d="M343.07,95.3c-.11-.42-.24-.92-.36-1.39-.12.48-.24.97-.35,1.4-.17.67-.34,1.29-.5,1.84l-.26.82h2.27l-.27-.82c-.18-.56-.35-1.18-.53-1.85Z"/>
      <path class="cls-1" d="M419.24,98.4h1.59l.6.77c.15-.18.33-.3.44-.54.19-.45.29-.99.29-1.64s-.1-1.2-.29-1.65c-.2-.45-.47-.79-.82-1.01-.35-.23-.76-.34-1.23-.34s-.87.12-1.22.35c-.35.23-.63.57-.82,1.02-.2.45-.29,1-.29,1.64s.1,1.19.29,1.63c.19.45.47.78.82,1.02.35.23.76.35,1.22.35.2,0,.35-.1.53-.15l-1.1-1.44Z"/>
      <path class="cls-1" d="M509.36,76.42c1.43,1.29,3.27,1.94,5.53,1.94,2.02,0,3.7-.6,5.03-1.78,1.33-1.19,2.32-2.84,2.98-4.94.66-2.11.99-4.54.99-7.3,0-3.19-.35-5.95-1.04-8.26-.69-2.32-1.76-4.1-3.21-5.37-1.44-1.26-3.29-1.89-5.53-1.89s-3.87.63-5.18,1.88c-1.31,1.25-2.27,2.93-2.87,5.03-.6,2.1-.9,4.42-.9,6.96,0,3.16.34,5.91,1.03,8.26.68,2.35,1.74,4.17,3.17,5.47Z"/>
      <path class="cls-1" d="M413.86,62.39c.49.05,1.03.1,1.6.14.58.04,1.01.06,1.29.06,1.37,0,2.5-.32,3.37-.95.88-.64,1.53-1.45,1.96-2.45.43-.99.64-2.03.64-3.12,0-2.19-.55-3.79-1.65-4.79-1.1-1-2.71-1.5-4.81-1.5h-3.11v12.51c.13.03.34.06.72.1Z"/>
      <path class="cls-1" d="M344.51,63.97c.83.08,1.6.13,2.32.13,1.24,0,2.24-.26,3-.78.76-.52,1.34-1.16,1.74-1.92.4-.76.67-1.52.81-2.29.14-.77.21-1.41.21-1.93,0-1.31-.2-2.52-.61-3.64-.41-1.12-1.12-2.03-2.13-2.72-1.01-.7-2.42-1.04-4.22-1.04h-2.76v13.88c.42.13.95.24,1.64.31Z"/>
      <path class="cls-1" d="M457.88,96.62c.24-.1.43-.26.55-.46.12-.2.18-.46.18-.76s-.06-.57-.18-.78c-.12-.21-.31-.37-.55-.48-.24-.11-.56-.16-.94-.16h-1.33v2.79h1.34c.38,0,.69-.05.93-.15Z"/>
      <path class="cls-1" d="M446.03,97.96l-.27-.82c-.17-.56-.35-1.18-.53-1.85-.11-.42-.24-.92-.36-1.39-.12.48-.24.97-.35,1.4-.17.67-.33,1.29-.5,1.84l-.26.82h2.27Z"/>
      <path class="cls-1" d="M355.72,96.62c.24-.1.42-.26.55-.46.12-.2.18-.46.18-.76s-.06-.57-.18-.78c-.12-.21-.31-.37-.55-.48-.24-.11-.56-.16-.94-.16h-1.33v2.79h1.34c.38,0,.69-.05.93-.15Z"/>
      <path class="cls-1" d="M584.18,110.36V36.74H189.55c17.32,19.26,27.88,44.72,27.88,72.6,0,.34-.02.67-.03,1.01h366.79ZM345.06,101.51l-.7-2.1h-3.22l-.67,2.1h-2.05l3.09-9.05h2.43l3.17,9.05h-2.06ZM356.64,101.51l-1.73-3.23h-1.45v3.23h-1.85v-9.05h3.53c.69,0,1.27.12,1.75.37s.85.59,1.11,1.03c.25.44.38.96.38,1.56s-.13,1.11-.38,1.54-.63.76-1.12.99c-.03.01-.08,0-.11.02l1.94,3.55h-2.05ZM381.51,101.51h-6.07v-9.05h6.06v1.54h-4.2v2.19h3.89v1.51h-3.89v2.28h4.22v1.54ZM393.39,94h-2.76v7.52h-1.86v-7.52h-2.77v-1.54h7.4v1.54ZM410.73,100.37c-.28.41-.67.72-1.2.95s-1.15.33-1.89.33-1.36-.11-1.89-.33-.96-.55-1.26-.99c-.3-.44-.46-.98-.48-1.62h1.81c.02.3.12.56.27.76.16.2.37.36.63.46.26.1.56.15.9.15s.62-.05.86-.14.44-.23.58-.4c.14-.17.2-.38.2-.61,0-.21-.06-.38-.18-.52-.12-.14-.3-.26-.53-.36-.23-.1-.52-.19-.85-.27l-1-.25c-.76-.19-1.37-.48-1.8-.88-.43-.4-.65-.93-.65-1.58,0-.55.15-1.02.44-1.43s.7-.73,1.21-.95,1.1-.34,1.75-.34,1.25.11,1.75.34c.5.23.88.55,1.16.95.28.41.42.88.43,1.41h-1.79c-.03-.37-.19-.65-.46-.84-.28-.2-.65-.3-1.11-.3-.31,0-.58.05-.8.13-.22.09-.39.21-.51.37s-.17.34-.17.54c0,.22.07.41.2.56s.31.27.53.36c.22.09.46.17.71.23l.82.2c.38.08.73.2,1.06.35.33.14.62.32.86.54.25.21.44.47.58.76s.2.63.2,1.01c0,.55-.14,1.02-.41,1.43ZM423.93,102.27h-1.73l-.77-.96c-.5.2-1.03.33-1.62.33-.79,0-1.51-.18-2.15-.55-.64-.37-1.14-.89-1.51-1.59-.37-.69-.56-1.53-.56-2.51s.19-1.82.56-2.52c.37-.69.87-1.22,1.51-1.59.64-.37,1.36-.55,2.15-.55s1.52.18,2.16.55c.64.36,1.14.89,1.51,1.59.37.7.56,1.54.56,2.52s-.18,1.82-.56,2.51c-.23.44-.54.78-.88,1.09l1.32,1.67ZM436.35,98.34c0,.66-.15,1.24-.47,1.73s-.75.88-1.31,1.16c-.56.28-1.22.42-1.97.42s-1.4-.14-1.96-.42c-.56-.28-1-.66-1.3-1.16-.31-.49-.47-1.07-.47-1.73v-5.88h1.85v5.72c0,.35.08.67.23.94s.38.49.66.64c.28.16.61.23.99.23s.71-.08,1-.23c.28-.16.5-.37.66-.64s.23-.59.23-.94v-5.72h1.86v5.88ZM458.79,101.51l-1.73-3.23h-1.46v3.23h-1.85v-9.05h3.53c.69,0,1.27.12,1.76.37s.85.59,1.1,1.03.38.96.38,1.56-.13,1.11-.38,1.54c-.25.43-.63.76-1.12.99-.03.01-.08,0-.11.02l1.94,3.55h-2.05ZM471.35,101.51h-6.07v-9.05h6.06v1.54h-4.21v2.19h3.89v1.51h-3.89v2.28h4.22v1.54ZM537.93,53.7c1.66-2.81,3.95-5,6.86-6.54,2.91-1.54,6.23-2.32,9.95-2.32,1.69,0,3.29.07,4.79.21,1.5.14,3,.35,4.5.63,1.5.28,3.06.61,4.68.99v9.98h-3.34l-1.38-4.81c-.07-.25-.22-.46-.45-.63-.24-.17-.46-.3-.68-.4-1.14-.52-2.5-.94-4.07-1.25-1.58-.32-2.99-.48-4.23-.48-1.9,0-3.63.5-5.19,1.49-1.56,1-2.79,2.5-3.71,4.53-.92,2.02-1.38,4.57-1.38,7.65s.41,5.7,1.22,8.02c.81,2.32,2.01,4.14,3.59,5.45,1.58,1.31,3.51,1.97,5.8,1.97.72,0,1.4-.06,2.04-.17.64-.12,1.28-.28,1.91-.5.63-.22,1.26-.48,1.89-.78v-7.45c0-.35-.09-.62-.26-.79-.18-.18-.41-.3-.69-.39l-4.97-1.53v-2.11h18.28v2.11l-3.18,1.53c-.25.12-.47.25-.66.41s-.29.41-.29.77v3.91c0,1.57,0,2.9.01,4,0,1.1.05,1.97.14,2.62-1.97.67-4.29,1.27-6.96,1.79-2.67.53-5.34.79-8.04.79-3.41,0-6.53-.72-9.37-2.16-2.83-1.44-5.09-3.55-6.78-6.33-1.69-2.78-2.53-6.19-2.53-10.22s.83-7.17,2.5-9.99ZM498.38,53.86c1.46-2.82,3.57-5.03,6.32-6.65,2.75-1.61,6.04-2.42,9.86-2.42,4.16,0,7.6.82,10.31,2.47,2.71,1.65,4.72,3.88,6.03,6.71,1.31,2.83,1.97,6.02,1.97,9.58,0,2.37-.35,4.68-1.05,6.93-.7,2.25-1.79,4.27-3.27,6.07-1.48,1.8-3.38,3.22-5.71,4.28-2.32,1.05-5.1,1.58-8.32,1.58-3.93,0-7.26-.77-9.99-2.31-2.73-1.54-4.8-3.72-6.22-6.53-1.41-2.82-2.12-6.16-2.12-10.02,0-3.64.73-6.88,2.2-9.69ZM452.59,79.42l3.86-1.48c.27-.1.49-.24.66-.43.18-.18.26-.46.26-.83v-26.25c0-.35-.09-.61-.28-.78-.19-.17-.4-.3-.65-.4l-3.86-1.48v-2.16h17.93v2.16l-3.84,1.48c-.28.12-.52.26-.71.42-.19.17-.29.42-.29.75v10.43h14.79v-10.43c0-.35-.1-.61-.3-.78-.2-.17-.43-.3-.7-.4l-3.84-1.48v-2.16h17.95v2.16l-3.81,1.48c-.27.08-.5.22-.7.4-.2.19-.3.44-.3.78v26.25c0,.37.1.64.29.82.19.17.43.32.71.44l3.81,1.48v2.16h-17.95v-2.16l3.84-1.48c.3-.13.54-.28.73-.45.19-.17.28-.43.28-.8v-11.78h-14.79v11.78c0,.37.09.64.28.82.18.17.42.32.73.44l3.84,1.48v2.16h-17.93v-2.16ZM443.67,92.46h2.43l3.17,9.05h-2.06l-.7-2.1h-3.22l-.67,2.1h-2.05l3.1-9.05ZM400.06,79.42l3.86-1.48c.25-.1.47-.24.65-.43.18-.18.28-.46.28-.83v-26.25c0-.35-.09-.61-.28-.79-.19-.18-.4-.31-.65-.39l-3.86-1.48v-2.16h18.05c2.77,0,5.04.27,6.8.8,1.75.54,3.12,1.25,4.09,2.13.97.89,1.64,1.86,2.01,2.93.37,1.07.55,2.15.55,3.23,0,1.84-.38,3.41-1.14,4.72-.76,1.3-1.73,2.36-2.9,3.17-1.01.7-2.05,1.22-3.11,1.61l8.42,12.34c.22.32.51.64.88.98.37.33.74.56,1.1.68l3.83,1.2v2.16h-9.2c-1.12,0-1.97-.12-2.53-.36-.57-.24-1.03-.61-1.39-1.12-.36-.5-.81-1.15-1.34-1.96l-7.59-11.61-3.44-.9v11.06c0,.37.09.64.28.83.18.19.42.33.7.43l3.93,1.48v2.16h-18v-2.16ZM363.76,79.42l3.86-1.48c.27-.1.49-.24.66-.43.18-.18.26-.46.26-.83v-26.25c0-.35-.09-.61-.28-.79-.19-.18-.4-.31-.65-.39l-3.86-1.48v-2.16h31.22v10.08h-3.33l-1.46-4.91c-.08-.3-.21-.53-.38-.7s-.39-.25-.68-.25h-12.29v11.03h6.77c.35,0,.59-.08.72-.23.12-.15.25-.38.36-.7l1.36-3.94h2.78v13.77h-2.78l-1.36-3.91c-.1-.28-.22-.51-.35-.69-.13-.17-.38-.26-.73-.26h-6.77v12.44h14.22c.27,0,.49-.09.68-.26.18-.17.31-.41.38-.69l1.43-5.52h3.34v10.71h-33.13v-2.16ZM363.13,92.46h1.85v2.47l-.03,2.06s.06-.1.09-.15c.18-.28.37-.57.59-.85s.46-.6.74-.93l2.21-2.6h2.27l-3.38,3.91,3.48,5.14h-2.19l-2.58-3.91-1.2,1.33v2.59h-1.85v-9.05ZM329.78,79.42l3.86-1.48c.3-.12.53-.26.69-.44.16-.18.24-.45.24-.82v-26.25c0-.35-.08-.61-.25-.78-.17-.17-.39-.3-.68-.4l-3.86-1.48v-2.16h17.68c2.58,0,4.91.35,7.01,1.05,2.1.7,3.77,1.81,5.01,3.33,1.25,1.52,1.87,3.5,1.87,5.94,0,2.57-.54,4.79-1.62,6.66-1.08,1.86-2.56,3.3-4.44,4.31-1.88,1.01-4.03,1.52-6.46,1.52-.89,0-1.95-.2-3.2-.59-1.13-.35-2.03-.78-2.77-1.25v10.09c0,.37.1.65.3.84.2.19.43.33.7.41l4.09,1.48v2.16h-18.18v-2.16ZM328.51,97.37c.08.31.16.64.24,1,.08.35.15.69.22,1.01.07-.32.14-.66.22-1,.08-.36.16-.69.24-1,.08-.31.15-.57.21-.76l1.45-4.16h2.85v9.05h-1.86v-4.27c0-.2,0-.44.01-.74,0-.3.01-.61.02-.96.01-.34.02-.69.03-1.03,0-.16,0-.31,0-.47-.04.17-.08.34-.13.53-.1.36-.19.71-.29,1.04s-.18.65-.27.93c-.08.28-.16.51-.22.7l-1.5,4.27h-1.56l-1.52-4.27c-.06-.19-.14-.42-.22-.7-.08-.28-.17-.58-.27-.92-.1-.34-.19-.68-.29-1.04-.04-.16-.08-.32-.12-.47,0,.13,0,.24,0,.37,0,.34.02.69.03,1.04.01.34.02.67.03.96,0,.3,0,.55,0,.76v4.27h-1.84v-9.05h2.85l1.47,4.16c.06.19.13.44.21.75ZM295.79,79.42l3.86-1.48c.3-.12.53-.26.69-.44.16-.18.24-.45.24-.82v-26.25c0-.35-.08-.61-.25-.78-.17-.17-.39-.3-.68-.4l-3.86-1.48v-2.16h17.68c2.58,0,4.91.35,7.01,1.05,2.1.7,3.77,1.81,5.01,3.33,1.25,1.52,1.87,3.5,1.87,5.94,0,2.57-.54,4.79-1.62,6.66-1.08,1.86-2.56,3.3-4.44,4.31-1.88,1.01-4.03,1.52-6.46,1.52-.89,0-1.95-.2-3.2-.59-1.13-.35-2.03-.78-2.77-1.25v10.09c0,.37.1.65.3.84.2.19.43.33.7.41l4.09,1.48v2.16h-18.18v-2.16ZM258.5,53.86c1.46-2.82,3.57-5.03,6.32-6.65,2.75-1.61,6.04-2.42,9.86-2.42,4.16,0,7.6.82,10.31,2.47,2.71,1.65,4.72,3.88,6.03,6.71,1.31,2.83,1.97,6.02,1.97,9.58,0,2.37-.35,4.68-1.05,6.93-.7,2.25-1.79,4.27-3.27,6.07-1.48,1.8-3.38,3.22-5.71,4.28-2.32,1.05-5.1,1.58-8.32,1.58-3.93,0-7.26-.77-9.99-2.31-2.73-1.54-4.81-3.72-6.22-6.53-1.41-2.82-2.12-6.16-2.12-10.02,0-3.64.73-6.88,2.2-9.69ZM224.49,53.72c1.6-2.82,3.79-5.01,6.57-6.56,2.78-1.54,5.96-2.32,9.52-2.32,1.29,0,2.73.1,4.33.31,1.6.21,3.14.46,4.64.74,1.5.28,2.72.55,3.67.8v9.85h-3.29l-1.4-4.76c-.07-.22-.23-.43-.48-.63-.25-.2-.47-.35-.65-.45-.9-.5-1.82-.91-2.76-1.24-.94-.33-1.98-.49-3.13-.49-3.17,0-5.72,1.13-7.62,3.37-1.9,2.25-2.86,5.65-2.86,10.19s1.06,8.34,3.18,10.81c2.12,2.47,5.05,3.71,8.78,3.71,1.52,0,2.87-.21,4.04-.61,1.17-.41,2.19-.9,3.06-1.47.87-.57,1.6-1.09,2.18-1.55h1.81v3.46c-.95.8-2.14,1.63-3.56,2.47-1.42.84-2.99,1.55-4.7,2.13-1.72.58-3.5.87-5.36.87-3.68,0-6.9-.75-9.65-2.25-2.76-1.5-4.9-3.64-6.42-6.43-1.52-2.79-2.28-6.13-2.28-10.01s.8-7.13,2.4-9.95Z"/>
      <path class="cls-1" d="M269.49,76.42c1.43,1.29,3.27,1.94,5.53,1.94,2.02,0,3.7-.6,5.03-1.78,1.33-1.19,2.32-2.84,2.98-4.94.66-2.11.99-4.54.99-7.3,0-3.19-.35-5.95-1.04-8.26-.69-2.32-1.76-4.1-3.21-5.37-1.44-1.26-3.29-1.89-5.53-1.89s-3.87.63-5.18,1.88c-1.31,1.25-2.27,2.93-2.87,5.03-.6,2.1-.9,4.42-.9,6.96,0,3.16.34,5.91,1.03,8.26.68,2.35,1.74,4.17,3.17,5.47Z"/>
      <path class="cls-1" d="M310.52,63.97c.83.08,1.6.13,2.32.13,1.24,0,2.24-.26,3-.78.76-.52,1.34-1.16,1.74-1.92.4-.76.67-1.52.81-2.29.14-.77.21-1.41.21-1.93,0-1.31-.2-2.52-.61-3.64-.41-1.12-1.12-2.03-2.13-2.72-1.01-.7-2.42-1.04-4.22-1.04h-2.76v13.88c.42.13.95.24,1.64.31Z"/>
      <path class="cls-5" d="M178.84,26.37c2.58,2.19,5.06,4.48,7.43,6.9h401.39v80.57H217.31c-.1,2.32-.25,4.62-.49,6.9h378.25V26.37H178.84Z"/>
      <path class="cls-4" d="M174.52,22.89c-5.12-3.91-10.61-7.36-16.39-10.33-.3.45-.58.91-.79,1.37-.17.65-.29,1.29-.38,1.93,33.81,17.53,56.98,52.83,56.98,93.47,0,4.64-.33,9.2-.92,13.68h-4.24c.61-4.48.95-9.04.95-13.68,0-7.14-.75-14.1-2.17-20.82-.23,2.69-.98,5.16-2.3,7.07.64,4.5.99,9.08.99,13.75,0,4.37-.32,8.67-.88,12.89h-18.56c.69-4.2,1.07-8.5,1.07-12.89,0-.38-.02-.76-.03-1.14-1.09.58-2.25,1.13-3.46,1.68-.03,4.21-.41,8.33-1.11,12.35h-1.21c.68-3.86,1.08-7.8,1.14-11.83-1.15.49-2.33.96-3.55,1.42-.12,3.54-.48,7.02-1.1,10.41h-34.05c-.38.13-.74.25-1.08.37H3.32c-.85-6.08-.82-12.45.3-18.6C6.24,51.63,47.35,9.25,99.16,4.56c.82-1.24,1.64-2.47,2.5-3.68C45,4.53,0,51.77,0,109.34c0,4.44.3,8.81.82,13.11v1.37h0v.37h127.31v.02h470.42V22.89H174.52ZM595.08,120.73H216.82c.24-2.28.39-4.58.49-6.9h370.35V33.27H186.27c-2.37-2.41-4.85-4.71-7.43-6.9h416.24v94.36ZM189.55,36.74h394.64v73.61H217.4c0-.34.03-.67.03-1.01,0-27.88-10.56-53.34-27.88-72.6Z"/>
      <path class="cls-1" d="M102.61,20.59c-.17-.31-.37-.61-.55-.9,0,0,0,0,0,0,.26.42.51.85.76,1.29-.07-.13-.14-.26-.21-.39Z"/>
      <path class="cls-1" d="M104.16,23.49s0,0,0-.01c.61,1.22,1.21,2.46,1.83,3.68-.62-1.22-1.21-2.46-1.82-3.67Z"/>
      <path class="cls-1" d="M111.84,12.05l2.26.54s1.21.29,4.12.85c6.17,1.19,9.94,5.46,11.55,7.28.12.14.26.29.36.4.35.23.67.59,1.06,1.16,1.85-2.01,3.89-4.15,6.08-6.21-8.12-2.49-16.68-3.93-25.54-4.2.04.06.08.11.11.17Z"/>
      <path class="cls-1" d="M66.98,22.6s2.68,1.01,5.46,1.01c1.95,0,3.4-.49,4.31-1.46,4.76-5.08,14.5-7.82,14.91-7.93l1.98-.55c.14-.26.31-.51.45-.76-10.17,1.54-19.82,4.66-28.71,9.09l1.6.61Z"/>
      <path class="cls-1" d="M104.5,14.67c2.6,2.59,4.76,5.17,6.53,7.72-1.77-2.55-3.93-5.14-6.53-7.72Z"/>
      <path class="cls-1" d="M41.13,62.74c1.9-1.47,3.65-2.7,5.06-3.68.11-.08.22-.15.33-.23-.56-.01-1.2-.02-1.95-.02h-3.22l1.06-3.04c.87-2.48,4.47-3.99,10.76-6.46,1.6-.63,3.3-1.29,4.85-1.97-4.51.15-9.91.8-9.97.8l-6.89.83,5.05-4.76c.31-.3,7.81-7.24,19.58-7.24.6,0,1.22.02,1.82.06.83.05,1.62.08,2.35.08,2.51,0,3.79-.3,4.41-.53-.37-.36-1.03-.85-2.04-1.33-6.08-2.87-8.26-9.55-8.35-9.83l-.74-2.34c-22.77,12.05-40.23,32.85-47.86,57.9,1.02-1,2.09-1.97,3.25-2.87,3.23-2.52,10.2-5.75,12.49-7.37.83-.62,4.03-2.5,8.47-5.03-.36-1.51.86-2.46,1.53-2.98Z"/>
      <path class="cls-1" d="M104.39,14.56c-.51-.5-1.03-1-1.57-1.51-.29,5.29,2.37,9.91,4.91,14.56-2.53-4.64-5.19-9.26-4.91-14.55.54.5,1.06,1,1.57,1.5Z"/>
      <path class="cls-1" d="M100.83,27.63s0,0,0,0c-.18,1-.22,1.98-.2,2.96t0,0c-.02-.98.03-1.96.2-2.95Z"/>
      <path class="cls-1" d="M197.1,99.29c-.8,3.37-4.33,6.32-9.25,8.92,0,.38.03.76.03,1.14,0,4.39-.38,8.69-1.07,12.89h18.56c.56-4.22.88-8.52.88-12.89,0-4.67-.35-9.26-.99-13.75-1.69,2.44-4.35,3.95-8.16,3.7Z"/>
      <path class="cls-1" d="M157.22,24.77c.64,5.08,1.4,10.17-1.25,15.33-1.02,1.49-1.61,2.97-1.88,4.43,8.7,6.11,16.12,13.92,21.77,22.95.5.23,1,.46,1.49.67.64-3.17,1.09-5.89,1-7.11l-.15-2.08,1.57,1.38c1.36,1.2,2.77,5.34,3.53,10.08,2.27.75,4.31,1.29,5.95,1.58,2.85-2.89,5.54-3.89,7.94-3.63-8.52-18.32-22.56-33.55-39.97-43.58Z"/>
      <path class="cls-1" d="M183.77,74.45c.07-.13.15-.26.21-.4h-.02c-.06.12-.13.24-.2.37,0,0,0,.02,0,.03Z"/>
      <path class="cls-1" d="M196.31,85.33c-.15,2.32-.77,5.23-1.82,5.86-3.89.67-4.15-2.58-3.09-5.43-1.06,2.85-.79,6.1,3.09,5.44,1.05-.63,1.67-3.55,1.82-5.86Z"/>
      <path class="cls-1" d="M199.36,80.78c-1.14.46-1.68,3.06-1.28,5.35-.38-2.28.15-4.84,1.28-5.35Z"/>
      <path class="cls-5" d="M106.35,4.17c.95,1.24,1.95,2.65,2.99,4.17,10.8.07,21.2,1.85,30.95,5.06,1.32-1.1,2.68-2.14,4.07-3.07-11.14-4.02-23.14-6.23-35.65-6.23-.79,0-1.58.04-2.36.06Z"/>
      <path class="cls-5" d="M156.8,20.52c20.34,11.05,36.46,28.89,45.35,50.45,3.79,3.88,5.97,11.28,5.42,17.55,1.41,6.72,2.17,13.68,2.17,20.82,0,4.64-.34,9.2-.95,13.68h4.24c.59-4.48.92-9.04.92-13.68,0-40.64-23.17-75.95-56.98-93.47-.22,1.55-.25,3.1-.16,4.65Z"/>
      <path class="cls-5" d="M10.15,87.28C19.36,46.1,53.77,14.35,96.3,9.11c.92-1.54,1.87-3.06,2.86-4.55C47.35,9.25,6.24,51.63,3.61,104c1.08-5.93,3.18-11.65,6.53-16.72Z"/>
      <path class="cls-4" d="M106.35,4.17c.79-.02,1.57-.06,2.36-.06,12.51,0,24.51,2.2,35.65,6.23,1.27-.84,2.57-1.59,3.89-2.23-12.26-4.81-25.59-7.48-39.54-7.48-1.81,0-3.61.05-5.4.14.92.8,1.95,1.98,3.03,3.4Z"/>
      <path class="cls-4" d="M111.73,11.88c8.86.27,17.42,1.71,25.54,4.2.98-.92,1.99-1.81,3.02-2.67-9.75-3.22-20.15-5-30.95-5.06.78,1.14,1.58,2.33,2.39,3.54Z"/>
      <path class="cls-4" d="M10.15,87.28c1.49-2.25,3.24-4.35,5.24-6.3,7.63-25.05,25.08-45.85,47.86-57.9l.74,2.34c.09.28,2.27,6.96,8.35,9.83,1.02.48,1.67.97,2.04,1.33-.62.23-1.91.53-4.41.53-.72,0-1.51-.03-2.35-.08-.6-.04-1.22-.06-1.82-.06-11.77,0-19.27,6.94-19.58,7.24l-5.05,4.76,6.89-.83c.06,0,5.46-.65,9.97-.8-1.55.67-3.25,1.34-4.85,1.97-6.29,2.47-9.9,3.98-10.76,6.46l-1.06,3.04h3.22c.74,0,1.39,0,1.95.02-.11.08-.22.16-.33.23-1.41.98-3.16,2.21-5.06,3.68-.67.52-1.89,1.47-1.53,2.98.02.08.04.16.07.24.32.94,1.21,1.57,2.22,1.57.78,0,1.76,0,22.34-12.01,2.44-1.42,6.64-3.89,10.7-6.31l-6,2s2-1.57,3.56-3.2c-12.19,7.25-29.51,17.25-30.6,17.25-.16,0,.03-.22.65-.7,8.46-6.56,13.86-8.02,2.04-8.02,1.02-2.92,14.44-6.13,19.11-9.63,1.93-1.45-.46-1.87-3.92-1.87-4.91,0-11.97.85-11.97.85,0,0,7.01-6.61,18.01-6.61.55,0,1.11.02,1.68.05.9.06,1.73.08,2.49.08,9.32,0,8.2-3.91,3.35-6.21-5.25-2.48-7.15-8.46-7.15-8.46,0,0,3.01,1.16,6.27,1.16,2.15,0,4.41-.5,5.98-2.18,4.38-4.67,13.86-7.29,13.86-7.29-.54,1.51-1.03,2.97-1.48,4.37,1.38-.73,2.32-1.2,2.32-1.2l-3.17,7.33c-.03-.52-.3-.81-.73-.95-.41,1.42-.79,2.76-1.13,4.01.59-.01.99,0,.99,0l-.87,3.5c.05-.64-.24-1.05-.71-1.32-.8,2.92-1.43,5.22-2.05,6.73,1.64-1.36,2.54-2.57,2.54-2.57l-2.84,6.62c.34-.23.58-.41.71-.52,1.57-1.36,2.36-4.24,3.92-9.98,1.13-4.14,2.53-9.29,4.66-15.27l1.47-4.14-2.25.62-1.98.55c-.41.11-10.15,2.86-14.91,7.93-.91.97-2.36,1.46-4.31,1.46-2.77,0-5.43-1-5.46-1.01l-1.6-.61c8.89-4.43,18.54-7.55,28.71-9.09.7-1.28,1.46-2.53,2.21-3.79C53.77,14.35,19.36,46.1,10.15,87.28Z"/>
      <path class="cls-4" d="M156.8,20.52c.08,1.42.25,2.84.42,4.25,17.41,10.03,31.45,25.26,39.97,43.58,1.84.2,3.51,1.15,4.95,2.62-8.89-21.56-25.01-39.4-45.35-50.45Z"/>
      <path class="cls-1" d="M117.86,73.4l4.12-3.28s0,0-.01,0l-4.11,3.28Z"/>
      <path class="cls-1" d="M120.88,70.49c-3.01,1.16-6.01,3.41-7.34,6.34h0c1.34-2.93,4.33-5.18,7.33-6.34Z"/>
      <path class="cls-1" d="M91.92,63.31c-.35-.89-1.95.75-3.61,2.21.97-.56,2.15-1.29,3.61-2.21Z"/>
      <path class="cls-1" d="M143.93,90.68s0,0,0,0c-3.17,7.23-12,11.06-19.31,8.08,0,0,0,0,0,0,7.32,2.99,16.15-.85,19.33-8.08Z"/>
      <path class="cls-1" d="M103.12,57.14s0,0,0,0c-1.73-.15-3.15-1.31-4.4-2.88,1.25,1.58,2.67,2.74,4.41,2.89Z"/>
      <path class="cls-1" d="M126.74,89.93c-.58,0-1.01-.06-1.22-.22h0c.2.16.64.22,1.23.22Z"/>
      <path class="cls-1" d="M124.62,72.87c-.18-.16-.35-.32-.53-.48-.05,2,.7,3.48,1.92,4.52-1.22-1.04-1.96-2.52-1.92-4.52.18.17.35.33.53.48Z"/>
      <path class="cls-1" d="M103.93,44.54c-1.15-1.71-2.11-3.76-2.95-5.84,0,0,0,0,0,0,.84,2.07,1.8,4.13,2.95,5.84Z"/>
      <path class="cls-1" d="M107.47,48.14s0,0,0,0c-1.01-.6-1.92-1.47-2.75-2.51.83,1.05,1.75,1.92,2.76,2.52Z"/>
      <path class="cls-1" d="M94.53,39.69c.32,3.35,1.83,7.35,3.77,10.83-1.94-3.48-3.45-7.48-3.77-10.83h0Z"/>
      <path class="cls-1" d="M110.63,44.13c.29.76.53,1.51.72,2.24,0,0,0,0,0,0-.18-.73-.43-1.48-.72-2.24Z"/>
      <path class="cls-1" d="M124.37,67.88c-1.09-.19-2.18-.42-3.09-.71.91.28,1.99.52,3.09.71Z"/>
      <path class="cls-1" d="M99.85,43.69c1.6,3.35,3.84,6.46,5.92,8.99,0,0,0,0,0,0-2.08-2.53-4.32-5.64-5.93-8.99Z"/>
      <path class="cls-1" d="M127.13,70.48s.02.03.03.04c-.02-.03-.05-.06-.07-.09.01.02.03.04.04.06Z"/>
      <path class="cls-1" d="M93.15,45.5s0,0,0,0c.33.39.65.83.96,1.32-.32-.49-.64-.94-.96-1.33Z"/>
      <path class="cls-1" d="M86.25,64.34c-.69,1.02-1.19,1.8-1.41,2.27l1.41-2.27Z"/>
      <path class="cls-1" d="M76.24,57.2c-.66.51-1.23.86-1.65.99.1.06.2.12.34.19.44-.41.88-.8,1.31-1.18Z"/>
      <path class="cls-1" d="M82.67,54.32c2.03-2.56,3.78-4.94,2.52-5.36-.18-.07-1.74,1.51-3.63,3.38,4.5-4.1,5.06-4.32,1.11,1.98Z"/>
      <path class="cls-1" d="M104.08,99.48c1.93-.31,4.3-.78,6.46-1.64-2.13.85-4.52,1.31-6.46,1.64Z"/>
      <path class="cls-1" d="M74.15,56.89c1.07-1.7,2.99-3.2,4.49-4.91-1.69,1.76-4.05,3.55-4.49,4.91Z"/>
      <path class="cls-1" d="M104.43,75.49c2.38-.63,3.35-.31.65,2.18,2.89-2.6,1.84-2.87-.65-2.18Z"/>
      <path class="cls-1" d="M115.16,94.57c-.89,1.27-2.28,2.24-3.83,2.93,1.57-.69,2.94-1.64,3.83-2.93Z"/>
      <path class="cls-1" d="M176.7,103.1c-.23.28-.49.7-.75,1.18.26-.48.54-.89.75-1.18Z"/>
      <path class="cls-1" d="M143.71,66.15s.03.02.05.03c-.01-.01-.03-.03-.04-.04,0,0-.01,0-.02,0h0s0,.01,0,.01Z"/>
      <path class="cls-1" d="M166.95,88.59c-2.36-6.73-7.07-18.08-7.34-21.31-.27.32-.53.88-.76,1.61.21-.48.45-.88.7-1.18.27,3.21,5.03,14.26,7.4,20.87Z"/>
      <path class="cls-1" d="M148.93,71.51c.17-.12.25-.33.18-.63-.38-.37-.78-.72-1.18-1.04-.03-.04-.08-.09-.13-.13.98.99,1.29,1.55,1.13,1.8Z"/>
      <path class="cls-1" d="M148.67,53.63c-.24-.24-.45-.39-.6-.43-.13.06-.2.16-.25.28.04-.12.12-.22.25-.28.15.04.35.2.59.43Z"/>
      <path class="cls-1" d="M143.16,83.47h0c.47-1.83,8.79-6.51,9.68-4.77h0c-.89-1.74-9.23,2.95-9.69,4.77Z"/>
      <polygon class="cls-1" points="148.9 71.54 148.91 71.54 148.9 71.54 148.9 71.54"/>
      <path class="cls-1" d="M152.96,61.37s0,0,0,0c.08-.08.12-.23.11-.41,0,.18-.03.32-.11.41Z"/>
      <path class="cls-1" d="M126.07,102.76s0-.05,0-.07c-.01.03-.02.05-.01.08,6.13,4.29,15.39-.97,18.41-6.95,0,0,0,0,0,0-3.03,5.98-12.27,11.23-18.4,6.94Z"/>
      <path class="cls-1" d="M173.87,84.59c.03-.05.05-.11.08-.16,0,0,0,0,0,0-.03.06-.05.11-.08.17Z"/>
      <path class="cls-1" d="M146.89,91.29c-.18-.46-.21-.88-.14-1.29-.09.4-.04.83.14,1.29Z"/>
      <path class="cls-1" d="M142.82,73.72c-.05-.57-.25-.82-.6-.85,0,0-.02,0-.03,0,.35.02.56.26.63.85Z"/>
      <path class="cls-1" d="M142.8,69.98l.07.03c1.79.73,3.94,1.55,5.19,1.64-1.19-.16-3.38-.97-5.53-1.77.09.04.18.07.27.11Z"/>
      <path class="cls-1" d="M133.16,88.71c1.1-.35,2-.72,2.44-1.06-.44.33-1.34.71-2.44,1.06Z"/>
      <path class="cls-1" d="M133.21,76.25c-.08,0-.17,0-.26,0,.08,0,.17,0,.26,0h0Z"/>
      <path class="cls-1" d="M141.17,78.75c-3.11,1.54-6.36,2.86-9.75,3.74,3.39-.87,6.64-2.19,9.75-3.74Z"/>
      <path class="cls-1" d="M135.86,87.17c.05.1.02.22-.1.34.11-.12.15-.24.1-.35l-5.14,1.27,5.14-1.27Z"/>
      <path class="cls-1" d="M131.55,70.19c.99.37,2.26.4,3.38.16-1.12.24-2.4.22-3.38-.16Z"/>
      <path class="cls-1" d="M137.4,92.29c1.49-1.07,2.62-2.51,3.11-4.38,0,0,0,0,0,0-.49,1.86-1.62,3.31-3.11,4.37Z"/>
      <path class="cls-1" d="M136.03,100.57c1.59-.6,3.26-1.97,4.99-3.11-1.73,1.13-3.4,2.5-5,3.1-.19.08-.76.19-1.52.32.76-.13,1.33-.23,1.52-.31Z"/>
      <path class="cls-1" d="M135.84,75.74s0,0,0,0c-.3.1-.6.18-.91.26.31-.07.62-.16.91-.26Z"/>
      <path class="cls-1" d="M136.62,90.05c-3.36,1.5-6.85,2.3-10.49,3.18,3.65-.87,7.13-1.67,10.49-3.18Z"/>
      <path class="cls-1" d="M128.38,71.72s.03.02.05.04c-.04-.03-.08-.07-.13-.1.03.02.05.05.08.07Z"/>
      <path class="cls-1" d="M136.09,93.09c-3.8,1.97-9.09,2.06-12.62.8,0,0,0,0,0,0,3.54,1.27,8.83,1.18,12.63-.8Z"/>
      <path class="cls-1" d="M133.69,78.75c3.97-.35,7.93-2.19,9.13-4.98,0,0,0,0,0,0-1.2,2.79-5.16,4.63-9.13,4.99Z"/>
      <path class="cls-1" d="M139.97,73.8c-.05.03-.11.06-.16.09.2-.11.42-.23.6-.33-.14.08-.28.15-.43.23Z"/>
      <path class="cls-1" d="M146.52,75.83s0,0,0,0c-3.43,5.89-12.06,8.76-18.55,7.37,0,0,0,0-.01,0,6.49,1.4,15.15-1.48,18.57-7.38Z"/>
      <path class="cls-1" d="M144.5,122.23h34.05c.62-3.39.98-6.87,1.1-10.41-12.24,4.63-27.65,7.92-35.16,10.41Z"/>
      <path class="cls-5" d="M99.72,35.39s0,0,0,0c-.13-.38-.28-.77-.4-1.13,0,0,0,0,0,0,.12.37.28.76.41,1.13Z"/>
      <path class="cls-5" d="M154.32,48.98c.19.71.45,1.41.78,2.1,4.26,3.4,8.15,7.24,11.57,11.47.91.58,1.83,1.14,2.78,1.68-4.3-5.77-9.4-10.91-15.13-15.25Z"/>
      <path class="cls-5" d="M111.04,34.65c-.07-.07-.13-.13-.2-.2.07.07.13.14.2.21,0,0,0,0,0,0Z"/>
      <path class="cls-5" d="M101.01,34.04s0,0,0,0c.08.38.18.75.28,1.12h0c-.1-.37-.2-.75-.28-1.12Z"/>
      <path class="cls-5" d="M183.21,110.39c-.06,4.03-.46,7.98-1.14,11.83h1.21c.69-4.02,1.08-8.14,1.11-12.35-.39.17-.78.34-1.18.51Z"/>
      <path class="cls-4" d="M154.09,44.53c-.28,1.51-.17,2.99.23,4.45,5.73,4.34,10.84,9.48,15.13,15.25,2.11,1.2,4.27,2.28,6.41,3.24-5.65-9.03-13.07-16.84-21.77-22.95Z"/>
      <path class="cls-4" d="M94.4,38.32c0,.43.09.91.14,1.37h0c-.04-.46-.14-.94-.14-1.37Z"/>
      <path class="cls-4" d="M99.31,34.26s0,0,0,0c-.38-1.12-.72-2.19-1.03-3.14,0,0,0,0,0,0,.31.95.65,2.02,1.03,3.14Z"/>
      <path class="cls-4" d="M100.63,30.58s0,0,0,0c.02,1.16.14,2.32.38,3.46,0,0,0,0,0,0-.24-1.14-.36-2.29-.38-3.46Z"/>
      <path class="cls-4" d="M101.28,35.16c.05.19.09.39.14.58-.06-.19-.09-.39-.14-.58h0Z"/>
      <path class="cls-4" d="M100.97,38.71s0,0,0,0c-.46-1.12-.88-2.22-1.26-3.32,0,0,0,0,0,0,.38,1.1.8,2.2,1.26,3.32Z"/>
      <path class="cls-4" d="M155.1,51.08c2.01,4.25,6.41,8.18,11.57,11.47-3.43-4.24-7.31-8.07-11.57-11.47Z"/>
      <path class="cls-5" d="M230.8,80.11c2.76,1.5,5.97,2.25,9.65,2.25,1.86,0,3.64-.29,5.36-.87,1.71-.58,3.28-1.29,4.7-2.13,1.42-.84,2.61-1.67,3.56-2.47v-3.46h-1.81c-.58.47-1.31.99-2.18,1.55-.87.57-1.89,1.06-3.06,1.47-1.17.41-2.52.61-4.04.61-3.73,0-6.65-1.24-8.78-3.71-2.12-2.47-3.18-6.08-3.18-10.81s.95-7.94,2.86-10.19c1.91-2.25,4.45-3.37,7.62-3.37,1.15,0,2.2.16,3.13.49.94.33,1.86.74,2.76,1.24.18.1.4.25.65.45.25.2.41.41.48.63l1.4,4.76h3.29v-9.85c-.95-.25-2.18-.52-3.67-.8-1.5-.28-3.04-.53-4.64-.74-1.6-.21-3.04-.31-4.33-.31-3.56,0-6.73.77-9.52,2.32-2.78,1.55-4.97,3.73-6.57,6.56-1.6,2.82-2.4,6.14-2.4,9.95s.76,7.21,2.28,10.01c1.52,2.79,3.66,4.93,6.42,6.43Z"/>
      <path class="cls-5" d="M264.65,80.1c2.73,1.54,6.06,2.31,9.99,2.31,3.23,0,6-.53,8.32-1.58,2.32-1.05,4.23-2.48,5.71-4.28,1.48-1.8,2.57-3.82,3.27-6.07.7-2.25,1.05-4.56,1.05-6.93,0-3.56-.65-6.75-1.97-9.58-1.31-2.82-3.32-5.06-6.03-6.71-2.71-1.65-6.14-2.47-10.31-2.47-3.83,0-7.12.8-9.86,2.42-2.75,1.61-4.86,3.83-6.32,6.65-1.46,2.81-2.2,6.05-2.2,9.69,0,3.86.71,7.2,2.12,10.02,1.41,2.82,3.49,4.99,6.22,6.53ZM266.19,55.74c.6-2.1,1.56-3.77,2.87-5.03,1.31-1.25,3.04-1.88,5.18-1.88s4.08.63,5.53,1.89c1.45,1.26,2.52,3.05,3.21,5.37.69,2.31,1.04,5.07,1.04,8.26,0,2.76-.33,5.19-.99,7.3-.66,2.11-1.65,3.75-2.98,4.94-1.33,1.18-3,1.78-5.03,1.78-2.26,0-4.1-.65-5.53-1.94-1.43-1.3-2.49-3.12-3.17-5.47-.69-2.35-1.03-5.1-1.03-8.26,0-2.54.3-4.86.9-6.96Z"/>
      <path class="cls-5" d="M313.97,79.42l-4.09-1.48c-.27-.08-.5-.22-.7-.41-.2-.19-.3-.47-.3-.84v-10.09c.74.47,1.64.9,2.77,1.25,1.24.39,2.31.59,3.2.59,2.42,0,4.58-.51,6.46-1.52,1.88-1.01,3.36-2.45,4.44-4.31,1.08-1.86,1.62-4.08,1.62-6.66,0-2.44-.62-4.42-1.87-5.94-1.25-1.52-2.92-2.63-5.01-3.33-2.1-.7-4.43-1.05-7.01-1.05h-17.68v2.16l3.86,1.48c.28.1.51.23.68.4.17.17.25.43.25.78v26.25c0,.37-.08.64-.24.82-.16.17-.39.32-.69.44l-3.86,1.48v2.16h18.18v-2.16ZM311.64,49.78c1.8,0,3.21.35,4.22,1.04,1.01.69,1.72,1.6,2.13,2.72.41,1.12.61,2.33.61,3.64,0,.52-.07,1.16-.21,1.93-.14.77-.41,1.53-.81,2.29-.4.76-.98,1.4-1.74,1.92-.76.52-1.76.78-3,.78-.72,0-1.49-.04-2.32-.13-.7-.07-1.23-.18-1.64-.31v-13.88h2.76Z"/>
      <path class="cls-5" d="M347.96,79.42l-4.09-1.48c-.27-.08-.5-.22-.7-.41-.2-.19-.3-.47-.3-.84v-10.09c.74.47,1.64.9,2.77,1.25,1.24.39,2.31.59,3.2.59,2.42,0,4.58-.51,6.46-1.52,1.88-1.01,3.36-2.45,4.44-4.31,1.08-1.86,1.62-4.08,1.62-6.66,0-2.44-.62-4.42-1.87-5.94-1.25-1.52-2.92-2.63-5.01-3.33-2.1-.7-4.43-1.05-7.01-1.05h-17.68v2.16l3.86,1.48c.28.1.51.23.68.4.17.17.25.43.25.78v26.25c0,.37-.08.64-.24.82-.16.17-.39.32-.69.44l-3.86,1.48v2.16h18.18v-2.16ZM345.62,49.78c1.81,0,3.21.35,4.22,1.04,1.01.69,1.72,1.6,2.13,2.72.41,1.12.61,2.33.61,3.64,0,.52-.07,1.16-.21,1.93-.14.77-.41,1.53-.81,2.29-.4.76-.98,1.4-1.74,1.92-.76.52-1.76.78-3,.78-.72,0-1.49-.04-2.32-.13-.7-.07-1.22-.18-1.64-.31v-13.88h2.76Z"/>
      <path class="cls-5" d="M396.89,70.87h-3.34l-1.43,5.52c-.07.28-.19.51-.38.69-.19.18-.41.26-.68.26h-14.22v-12.44h6.77c.35,0,.59.09.73.26.13.18.25.41.35.69l1.36,3.91h2.78v-13.77h-2.78l-1.36,3.94c-.12.32-.24.55-.36.7-.12.15-.36.23-.72.23h-6.77v-11.03h12.29c.28,0,.51.08.68.25s.29.4.38.7l1.46,4.91h3.33v-10.08h-31.22v2.16l3.86,1.48c.25.08.47.21.65.39.18.17.28.44.28.79v26.25c0,.37-.09.64-.26.83-.17.19-.4.33-.66.43l-3.86,1.48v2.16h33.13v-10.71Z"/>
      <path class="cls-5" d="M418.06,79.42l-3.93-1.48c-.29-.1-.52-.24-.7-.43-.19-.18-.28-.46-.28-.83v-11.06l3.44.9,7.59,11.61c.53.8.98,1.45,1.34,1.96.36.5.82.87,1.39,1.12.57.24,1.41.36,2.53.36h9.2v-2.16l-3.83-1.2c-.37-.12-.74-.34-1.1-.68-.37-.34-.66-.66-.88-.98l-8.42-12.34c1.06-.4,2.1-.91,3.11-1.61,1.17-.81,2.13-1.87,2.9-3.17.76-1.3,1.14-2.88,1.14-4.72,0-1.08-.19-2.16-.55-3.23-.37-1.07-1.04-2.05-2.01-2.93-.97-.89-2.33-1.6-4.09-2.13-1.76-.53-4.02-.8-6.8-.8h-18.05v2.16l3.86,1.48c.25.08.47.21.65.39.18.17.28.44.28.79v26.25c0,.37-.09.64-.28.83-.19.19-.4.33-.65.43l-3.86,1.48v2.16h18v-2.16ZM416.26,49.78c2.11,0,3.71.5,4.81,1.5,1.1,1,1.65,2.6,1.65,4.79,0,1.09-.21,2.13-.64,3.12-.43,1-1.08,1.81-1.96,2.45-.88.64-2,.95-3.37.95-.28,0-.72-.02-1.29-.06-.57-.04-1.11-.09-1.6-.14-.38-.04-.59-.07-.72-.1v-12.51h3.11Z"/>
      <path class="cls-5" d="M470.52,79.42l-3.84-1.48c-.3-.12-.54-.26-.73-.44-.19-.18-.28-.45-.28-.82v-11.78h14.79v11.78c0,.37-.09.64-.28.8-.18.17-.42.32-.73.45l-3.84,1.48v2.16h17.95v-2.16l-3.81-1.48c-.28-.12-.52-.26-.71-.44-.19-.18-.29-.45-.29-.82v-26.25c0-.34.1-.59.3-.78.2-.18.44-.32.7-.4l3.81-1.48v-2.16h-17.95v2.16l3.84,1.48c.27.1.5.23.7.4.2.17.3.43.3.78v10.43h-14.79v-10.43c0-.34.1-.59.29-.75.19-.17.43-.31.71-.42l3.84-1.48v-2.16h-17.93v2.16l3.86,1.48c.25.1.47.23.65.4.18.17.28.43.28.78v26.25c0,.37-.09.64-.26.83-.17.19-.4.33-.66.43l-3.86,1.48v2.16h17.93v-2.16Z"/>
      <path class="cls-5" d="M504.52,80.1c2.73,1.54,6.06,2.31,9.99,2.31,3.23,0,6-.53,8.32-1.58,2.32-1.05,4.23-2.48,5.71-4.28,1.48-1.8,2.57-3.82,3.27-6.07.7-2.25,1.05-4.56,1.05-6.93,0-3.56-.66-6.75-1.97-9.58-1.31-2.82-3.32-5.06-6.03-6.71-2.71-1.65-6.14-2.47-10.31-2.47-3.83,0-7.12.8-9.86,2.42-2.75,1.61-4.86,3.83-6.32,6.65-1.46,2.81-2.2,6.05-2.2,9.69,0,3.86.71,7.2,2.12,10.02,1.41,2.82,3.49,4.99,6.22,6.53ZM506.06,55.74c.6-2.1,1.56-3.77,2.87-5.03,1.31-1.25,3.04-1.88,5.18-1.88s4.08.63,5.53,1.89c1.45,1.26,2.52,3.05,3.21,5.37.69,2.31,1.04,5.07,1.04,8.26,0,2.76-.33,5.19-.99,7.3-.66,2.11-1.65,3.75-2.98,4.94-1.33,1.18-3,1.78-5.03,1.78-2.26,0-4.1-.65-5.53-1.94-1.43-1.3-2.49-3.12-3.17-5.47-.69-2.35-1.03-5.1-1.03-8.26,0-2.54.3-4.86.9-6.96Z"/>
      <path class="cls-5" d="M544.75,80.25c2.84,1.44,5.96,2.16,9.37,2.16,2.69,0,5.37-.26,8.04-.79,2.67-.53,4.99-1.12,6.96-1.79-.08-.65-.13-1.52-.14-2.62,0-1.09-.01-2.43-.01-4v-3.91c0-.35.1-.61.29-.77s.41-.3.66-.41l3.18-1.53v-2.11h-18.28v2.11l4.97,1.53c.28.08.51.21.69.39.17.17.26.44.26.79v7.45c-.64.3-1.27.56-1.89.78-.63.22-1.26.39-1.91.5-.64.12-1.33.17-2.04.17-2.29,0-4.23-.66-5.8-1.97-1.58-1.31-2.78-3.13-3.59-5.45-.81-2.32-1.22-5-1.22-8.02s.46-5.63,1.38-7.65c.92-2.02,2.16-3.53,3.71-4.53,1.55-.99,3.29-1.49,5.19-1.49,1.24,0,2.64.16,4.23.48,1.58.32,2.94.74,4.07,1.25.22.1.44.23.68.4.23.17.38.38.45.63l1.38,4.81h3.34v-9.98c-1.62-.38-3.18-.72-4.68-.99-1.5-.28-3-.49-4.5-.63-1.5-.14-3.1-.21-4.79-.21-3.73,0-7.04.77-9.95,2.32-2.91,1.55-5.19,3.73-6.86,6.54-1.66,2.82-2.5,6.15-2.5,9.99s.85,7.43,2.53,10.22c1.69,2.78,3.95,4.89,6.78,6.33Z"/>
      <path class="cls-5" d="M323.99,92.46v9.05h1.84v-4.27c0-.21,0-.46,0-.76,0-.3-.01-.62-.03-.96,0-.35-.02-.69-.03-1.04,0-.13,0-.25,0-.37.04.16.08.31.12.47.1.36.19.71.29,1.04.1.34.18.64.27.92.08.28.16.51.22.7l1.52,4.27h1.56l1.5-4.27c.06-.19.14-.42.22-.7.09-.28.18-.59.27-.93s.19-.68.29-1.04c.05-.18.08-.35.13-.53,0,.16,0,.3,0,.47-.01.34-.02.69-.03,1.03-.01.34-.02.66-.02.96,0,.3-.01.54-.01.74v4.27h1.86v-9.05h-2.85l-1.45,4.16c-.06.19-.13.45-.21.76-.08.31-.16.65-.24,1-.08.34-.15.68-.22,1-.07-.33-.15-.67-.22-1.01-.08-.35-.16-.69-.24-1-.08-.31-.15-.56-.21-.75l-1.47-4.16h-2.85Z"/>
      <path class="cls-5" d="M341.51,92.46l-3.09,9.05h2.05l.67-2.1h3.22l.7,2.1h2.06l-3.17-9.05h-2.43ZM341.61,97.96l.26-.82c.16-.55.33-1.16.5-1.84.11-.43.23-.93.35-1.4.12.47.25.97.36,1.39.18.67.36,1.29.53,1.85l.27.82h-2.27Z"/>
      <path class="cls-5" d="M356.86,97.94c.49-.23.86-.56,1.12-.99s.38-.95.38-1.54-.13-1.11-.38-1.56c-.25-.44-.62-.78-1.11-1.03s-1.07-.37-1.75-.37h-3.53v9.05h1.85v-3.23h1.45l1.73,3.23h2.05l-1.94-3.55s.08,0,.11-.02ZM353.45,93.99h1.33c.38,0,.69.05.94.16.24.11.43.27.55.48.12.21.18.47.18.78s-.06.55-.18.76c-.12.21-.31.36-.55.46s-.55.15-.93.15h-1.34v-2.79Z"/>
      <path class="cls-5" d="M364.98,98.93l1.2-1.33,2.58,3.91h2.19l-3.48-5.14,3.38-3.91h-2.27l-2.21,2.6c-.28.34-.52.65-.74.93s-.41.57-.59.85c-.03.05-.06.1-.09.15l.03-2.06v-2.47h-1.85v9.05h1.85v-2.59Z"/>
      <polygon class="cls-5" points="377.29 97.7 381.18 97.7 381.18 96.19 377.29 96.19 377.29 94 381.5 94 381.5 92.46 375.44 92.46 375.44 101.51 381.51 101.51 381.51 99.98 377.29 99.98 377.29 97.7"/>
      <polygon class="cls-5" points="385.99 94 388.77 94 388.77 101.51 390.63 101.51 390.63 94 393.39 94 393.39 92.46 385.99 92.46 385.99 94"/>
      <path class="cls-5" d="M410.37,97.17c-.24-.21-.53-.39-.86-.54-.33-.15-.68-.26-1.06-.35l-.82-.2c-.25-.06-.49-.14-.71-.23-.22-.09-.4-.21-.53-.36s-.2-.33-.2-.56c0-.2.06-.38.17-.54s.29-.28.51-.37c.22-.09.49-.13.8-.13.46,0,.84.1,1.11.3.28.2.43.48.46.84h1.79c0-.53-.15-1-.43-1.41-.28-.41-.67-.73-1.16-.95-.5-.23-1.08-.34-1.75-.34s-1.24.11-1.75.34-.92.55-1.21.95-.44.89-.44,1.43c0,.66.22,1.19.65,1.58.43.4,1.03.69,1.8.88l1,.25c.33.08.62.17.85.27.23.1.41.22.53.36.12.14.18.31.18.52,0,.23-.07.43-.2.61-.14.17-.33.31-.58.4s-.53.14-.86.14-.63-.05-.9-.15c-.26-.1-.47-.25-.63-.46-.16-.21-.25-.46-.27-.76h-1.81c.02.64.18,1.18.48,1.62.3.44.72.77,1.26.99s1.17.33,1.89.33,1.36-.11,1.89-.33.92-.54,1.2-.95c.28-.41.41-.88.41-1.43,0-.38-.07-.72-.2-1.01s-.33-.55-.58-.76Z"/>
      <path class="cls-5" d="M423.48,99.5c.37-.69.56-1.53.56-2.51s-.18-1.82-.56-2.52c-.37-.69-.87-1.22-1.51-1.59-.64-.37-1.36-.55-2.16-.55s-1.51.18-2.15.55c-.64.36-1.14.89-1.51,1.59-.37.7-.56,1.54-.56,2.52s.19,1.82.56,2.51c.37.69.87,1.22,1.51,1.59.64.36,1.36.55,2.15.55.59,0,1.12-.13,1.62-.33l.77.96h1.73l-1.32-1.67c.34-.31.65-.66.88-1.09ZM418.59,99.64c-.35-.23-.63-.57-.82-1.02-.2-.44-.29-.99-.29-1.63s.1-1.2.29-1.64c.19-.45.47-.79.82-1.02.35-.23.76-.35,1.22-.35s.88.12,1.23.34c.35.23.62.57.82,1.01.19.45.29,1,.29,1.65s-.1,1.19-.29,1.64c-.11.24-.29.36-.44.54l-.6-.77h-1.59l1.1,1.44c-.18.04-.33.15-.53.15-.46,0-.87-.12-1.22-.35Z"/>
      <path class="cls-5" d="M434.49,98.18c0,.35-.08.67-.23.94s-.38.49-.66.64c-.29.16-.61.23-1,.23s-.71-.08-.99-.23c-.28-.16-.5-.37-.66-.64s-.23-.59-.23-.94v-5.72h-1.85v5.88c0,.66.16,1.24.47,1.73.31.49.74.88,1.3,1.16.56.28,1.22.42,1.96.42s1.4-.14,1.97-.42c.56-.28,1-.66,1.31-1.16s.47-1.07.47-1.73v-5.88h-1.86v5.72Z"/>
      <path class="cls-5" d="M443.3,99.41h3.22l.7,2.1h2.06l-3.17-9.05h-2.43l-3.1,9.05h2.05l.67-2.1ZM444.52,95.31c.11-.43.23-.93.35-1.4.12.47.25.97.36,1.39.18.67.36,1.29.53,1.85l.27.82h-2.27l.26-.82c.17-.55.33-1.16.5-1.84Z"/>
      <path class="cls-5" d="M459.02,97.94c.49-.23.86-.56,1.12-.99.26-.43.38-.95.38-1.54s-.12-1.11-.38-1.56-.62-.78-1.1-1.03-1.07-.37-1.76-.37h-3.53v9.05h1.85v-3.23h1.46l1.73,3.23h2.05l-1.94-3.55s.08,0,.11-.02ZM455.6,93.99h1.33c.38,0,.7.05.94.16.24.11.43.27.55.48.12.21.18.47.18.78s-.06.55-.18.76c-.12.21-.31.36-.55.46-.24.1-.55.15-.93.15h-1.34v-2.79Z"/>
      <polygon class="cls-5" points="467.13 97.7 471.03 97.7 471.03 96.19 467.13 96.19 467.13 94 471.34 94 471.34 92.46 465.28 92.46 465.28 101.51 471.35 101.51 471.35 99.98 467.13 99.98 467.13 97.7"/>
      <path class="cls-2" d="M178.97,68.81c.83.33,1.64.64,2.43.93-.42-2.32-.97-4.41-1.54-5.91-.2,1.41-.52,3.13-.89,4.98Z"/>
      <path class="cls-4" d="M182.15,77.17h0c.57-.88,1.13-1.78,1.63-2.72,0,0,0-.02,0-.03-.49.94-1.04,1.85-1.63,2.75Z"/>
      <path class="cls-4" d="M173.95,84.42s0,0,0,0c1.27-2.58,1.68-6.62,3.61-9.08-1.93,2.46-2.36,6.49-3.61,9.08Z"/>
      <path class="cls-4" d="M178.21,58.95l.15,2.08c.09,1.23-.37,3.95-1,7.11.54.23,1.08.46,1.61.67.38-1.86.7-3.57.89-4.98.57,1.5,1.12,3.6,1.54,5.91.65.24,1.29.46,1.91.66-.76-4.75-2.17-8.88-3.53-10.08l-1.57-1.38Z"/>
      <path class="cls-4" d="M201.7,82.17c-.34-.48-.64-.82-.94-1.07-.21-.16-.39-.27-.57-.34-.31-.12-.58-.11-.83.02-1.13.5-1.66,3.06-1.28,5.35.06.29.11.58.19.86.08.28.19.54.3.79.11.27.23.5.37.72,2.06,1.43,4.08-2.43,3.79-4.47-.11-.25-.23-.48-.35-.71-.23-.44-.46-.81-.68-1.14Z"/>
      <path class="cls-2" d="M138.44,41.1c-.08.02-1.98.46-4.43.46-3.31,0-6.03-.77-8.07-2.24.78,7.95-2.08,17.84-10.25,18.56,14.67-19.25-3.86-35.18-13.21-51.34-.37.4-.74.82-1.11,1.25-.36.46-.72.93-1.07,1.43-.31.44-.62.88-.92,1.36-.42.63-.82,1.3-1.2,2-.3.53-.58,1.06-.85,1.62-5.74,11.17-9.12,28.12-5.21,38.58.16.39.31.77.48,1.15.16.39.35.77.54,1.09.37.71.78,1.38,1.25,1.99,3.54,4.68,9.67,6.62,19.31,3.58-3.07,6.78-13.11,5.45-17.54,11.22,4.91-1.09,11.57-4.91,17-4.51-5.17,6.11-16.28,5.45-20.08,12.74.25-.11.51-.22.79-.34.27-.12.57-.26.87-.4,1.4-.62,3.03-1.33,4.63-1.99.19-.08.38-.15.56-.23.28-.11.55-.23.83-.34.34-.1.69-.24,1.02-.36.62-.24,1.22-.45,1.78-.63.3-.09.6-.19.88-.27,2.48-.7,3.54-.43.65,2.18-.02.01-.04.05-.09.07-.1.11-.23.22-.4.35-.96.86-2.31,1.94-4.1,3.26,1.06,1.94,7.25-2.1,6.78.31l-6.88,2.61c1.82,1.34,9.13-.91,8.96,1.13-1.93,3.17-8.59,1.89-11.34,3.91,1.32.66,3.07.82,4.94.72t.02,0c.65-.04,1.3-.11,1.97-.19t.02,0c.66-.1,1.31-.21,1.95-.32t.02,0c.65-.13,1.25-.27,1.86-.4,1.48-.33,2.8-.66,3.67-.85.12,1.22-.43,2.14-1.37,2.88-.38.29-.8.54-1.26.78-.25.11-.48.23-.74.34-.49.21-1.02.4-1.57.57h-.03c-.54.18-1.11.34-1.66.48-.44.12-.87.23-1.3.34-.21.07-.43.11-.64.17-.3.07-.59.15-.87.23-.2.05-.41.1-.59.15-.35.12-.68.22-.95.33,4.88,1.91,9.39-1.12,14.08-.66-.13.24-.25.46-.4.68-.89,1.29-2.26,2.24-3.83,2.93-.26.15-.53.26-.79.34-2.15.86-4.53,1.33-6.46,1.64,3.21,2.6,17.19-3.7,14.6.05-2.52,3.67-7.31,3.32-10.96,4.77.87.2,1.83.27,2.85.26,3.39-.05,7.43-1.09,10.59-1.74.95-.18,1.84-.34,2.59-.43-1.94,3.86-6.42,6.04-10.61,5.91,3.9,2.78,10.04-1.91,13.96-2.1,7.41.65,14.74-2.04,19.99-7.43-.06,3.95-3.3,6.44-7.29,8.16-.69.3-1.41.57-2.12.81-.95.33-1.93.64-2.89.91-.48.13-.96.26-1.42.39-2.14.56-4.15,1.02-5.73,1.46,8.43,1.46,16.95-2.88,22.44-9.14.55,3.91-2.48,6.63-5.45,8.58.83.41,1.74.3,2.67-.15.25-.11.49-.27.74-.42.13-.07.25-.17.36-.26.37-.27.74-.59,1.09-.93.84-.82,1.66-1.79,2.38-2.79.19-.28.4-.57.59-.87.96-1.45,1.72-2.9,2.11-3.94,4.13,3.98-3.09,9.24-4.92,12.49,4.4-2.45,7.1-6.87,9.01-11.39.46-.01.84,0,1.2.04.49.06.88.17,1.15.33.18.11.32.24.39.39.41.67-.08,1.74-.86,2.95-.49.76-1.1,1.56-1.65,2.37-.12.14-.21.29-.31.44-.62.9-1.16,1.77-1.4,2.52-.07.53-.07.86,0,.97.13.21.38.08.74-.28.23-.22.49-.54.77-.91,1.65-2.2,4.08-6.56,4.54-7.83l2.96-.21c-.76,3.07-2.88,6.66-4.43,9.21,3.59-.8,4.6-9.66,8.33-9.73,1.89,1.92-1.67,5.51-2.04,7.39,0,.16-.01.3-.02.43,0,.27.05.43.11.53.06.11.14.12.27.06.08-.05.17-.12.25-.24.1-.11.19-.24.29-.39.26-.37.56-.9.87-1.51.12-.22.26-.48.38-.74.39-.76.78-1.58,1.13-2.36.12-.26.24-.53.34-.76.11-.25.22-.47.32-.7.44-.97.78-1.64.83-1.62l2.57.9-1.51,5.36s.05-.07.07-.12c.22-.41.81-1.67,1.43-2.9.19-.34.36-.69.56-1,.26-.48.52-.9.75-1.18.15-.19.29-.33.39-.37.06-.04.12-.04.15-.02h.02c4.49,2.2,13.61-.27,12.37-1.77-.07-.09-.15-.16-.25-.22-.98-.61-4.06-.98-10.44-.65-21.47-6.1-8.71,5.24-32.06-8.78-.18-.46-.22-.89-.14-1.29.48-2.72,6.04-4.14,8.47-4.32-1.12-6.84.96-17.42,3.4-20.48,5.74,1.06,11.59,36.13,15.09,23.77-.14,2.75,2.17,5.14,4.77,5.74-3.38-7.42-.04-11.95,3.13-16.72.18-.27.36-.55.54-.82h0c.58-.9,1.14-1.81,1.63-2.76.07-.13.14-.25.2-.38-.67-.15-1.32-.06-1.95.22-.12.04-.24.1-.37.17t-.03.01c-.25.13-.5.29-.73.47-.12.1-.26.19-.38.31-.24.2-.47.42-.68.67,0,0-.02,0-.02.01-.81.85-1.58,1.92-2.31,3.03-1.44,2.2-2.67,4.54-3.62,5.66.03-.05.05-.11.08-.17,1.25-2.58,1.68-6.61,3.61-9.08.29-.4.66-.76,1.06-1.07.2-.15.42-.3.65-.42.24-.14.46-.24.72-.33-2.62-1.97-4.37-.91-5.97.56-.18.16-.37.33-.54.52-.09.09-.19.18-.27.27-.19.18-.36.36-.54.52-.19.18-.36.36-.54.52-.18.16-.37.32-.56.45-.19.13-.39.27-.57.38-.11.06-.21.11-.31.17-.58.3-1.23.43-1.94.3l6.06-5.64c-16.3-3.18-23.18-20.71-34.33-30.96l-2.01.47ZM119.14,64.99s0,0,0,0c.44-.48,1.46-.99,3.25-1.55.12-.08.29-.19.5-.32,2.36-1.4,10.19-4.81,20.8,3.01,0,0,.01,0,.02,0s.02,0,.02,0c.01.01.03.03.04.04.05.04.1.07.15.11,2.41,1.81,3.43,2.74,3.59,3.12.11.1.2.2.29.29.06.04.1.09.13.13.4.31.8.67,1.18,1.04.07.3-.01.51-.18.63,0,.01-.01.02-.02.03h0s0,0,0,0c-.1.1-.29.14-.57.12-.07,0-.15,0-.25-.02,0,0-.02,0-.03,0-1.25-.08-3.4-.91-5.19-1.64l-.07-.03c-.09-.04-.18-.07-.27-.11-.97-.36-1.93-.72-2.79-1.01-.09.31-.2.6-.32.88-.02.05-.04.1-.07.15-.12.27-.26.53-.4.77,0,0,0,.01-.01.02-.14.23-.3.44-.46.64-.04.05-.08.1-.12.14-.17.19-.35.38-.53.54-.02.02-.04.03-.06.05-.17.15-.36.29-.54.41-.05.03-.1.06-.14.1-.21.13-.42.25-.65.36-.02.01-.05.02-.07.03-.21.1-.43.18-.65.25-.04.01-.08.03-.12.04-.24.07-.49.14-.74.18-.02,0-.03,0-.05,0-.25.04-.5.07-.75.09-.03,0-.05,0-.08,0-.27.02-.54.02-.81,0,0,0-.01,0-.02,0-.27-.01-.55-.04-.82-.08,0,0-.02,0-.03,0-.28-.04-.55-.1-.83-.17,0,0-.01,0-.02,0-.27-.07-.54-.16-.8-.25h-.02c-.26-.1-.52-.22-.77-.34-.02-.01-.04-.02-.07-.03-.23-.12-.46-.24-.68-.38-.02-.01-.04-.02-.06-.03-.22-.14-.44-.29-.64-.46-.02-.01-.04-.02-.05-.04-.03-.02-.05-.05-.08-.07-.16-.13-.32-.27-.48-.42-.05-.05-.1-.09-.14-.13-.18-.19-.35-.38-.52-.59-.01-.01-.02-.03-.03-.04-.01-.02-.03-.04-.04-.06-.52-.68-.93-1.45-1.18-2.31-.37-.05-.75-.11-1.13-.17-.02,0-.04,0-.06,0-.12-.02-.24-.04-.36-.06-1.1-.19-2.18-.42-3.09-.71-.01,0-.02,0-.03-.01-.12-.04-.23-.07-.35-.11-.07-.02-.13-.05-.2-.07-.06-.02-.12-.04-.17-.06-1.36-.52-2.08-1.17-1.39-1.92ZM142.82,73.77c-1.2,2.79-5.16,4.63-9.13,4.98-2.64.24-5.29-.18-7.13-1.43-.09-.06-.16-.13-.25-.19-.1-.08-.21-.15-.3-.23-1.22-1.04-1.96-2.52-1.92-4.52.18.17.35.33.53.48,0,0,0,0,0,0,.17.15.34.29.51.43.01,0,.02.02.03.03.17.14.35.28.52.41,0,0,0,0,0,0,.27.2.53.38.79.56.03.02.06.04.1.06.26.17.52.33.78.47l.05.03c.75.41,1.47.69,2.17.91.14.04.28.09.42.13.7.19,1.38.31,2.04.34.31.02.61.01.91,0,.09,0,.17,0,.26,0h0c.06,0,.12,0,.17-.01.3-.03.59-.07.87-.12.14-.02.28-.05.42-.08.08-.02.16-.03.24-.05.31-.09.61-.17.91-.26,0,0,0,0,0,0,.04-.01.07-.03.11-.04.28-.1.55-.2.82-.29.02,0,.05-.02.07-.03.32-.12.62-.25.9-.39.04-.02.07-.03.11-.05.37-.17.69-.35,1.02-.53.34-.18.63-.35.94-.52.05-.03.11-.06.16-.09.15-.08.29-.16.43-.23.77-.42,1.37-.72,1.78-.69,0,0,.02,0,.03,0,.35.03.55.28.6.85,0,.02,0,.03,0,.05,0,0,0,0,0,0,0,0,0,0,0,0ZM125.52,89.71l5.2-1.28,5.14-1.27c.05.11.02.22-.1.35,0,0,0,0,0,0-.04.05-.1.09-.16.14-.44.33-1.34.71-2.44,1.06-2.06.65-4.8,1.21-6.42,1.22-.58,0-1.02-.06-1.23-.22h0s0,0,0,0ZM127.95,83.21s0,0,.01,0c0,0,0,0-.01,0,1.17-.18,2.33-.43,3.47-.72,3.39-.87,6.64-2.19,9.75-3.74,1.83-.91,3.61-1.9,5.34-2.92,0,0,0,0,0,0,0,0,0,0,0,0-3.42,5.9-12.07,8.78-18.57,7.38ZM113.29,55.76s-.03.04-.05.06c-.19.23-.38.45-.58.66-.04.04-.07.08-.11.12-.16.17-.32.33-.48.49-.05.05-.1.1-.16.15-.18.17-.35.33-.54.48-.02.02-.05.04-.07.06-.2.17-.4.33-.61.48-.07.05-.13.1-.2.14-.14.1-.29.2-.43.3-.08.05-.16.1-.24.15-.16.1-.32.19-.48.28-.1.06-.2.11-.31.16-.15.08-.31.15-.46.22-.11.05-.21.09-.32.14-.11.05-.22.09-.33.13-.12.04-.23.09-.35.13-.1.03-.19.06-.29.09-.23.07-.47.13-.7.18-.07.02-.15.03-.22.05-.14.03-.29.05-.43.07-.06,0-.13.02-.19.02-.52.06-1.03.08-1.55.04-.02,0-.04,0-.06,0-.18-.01-.35-.03-.52-.06-.02,0-.04,0-.07-.01-2.06-.31-4.06-1.42-5.79-3.48,0,0,0,0,0,0-.62-.74-1.21-1.6-1.75-2.59-.02-.04-.04-.08-.06-.12-1.01-1.89-1.87-4.22-2.49-7.07,0-.04-.01-.07-.02-.11-.1-.46-.2-.94-.28-1.43,0,0,0,0,0,0,0,0,0,0,0,0,.33.39.65.84.96,1.33,1.45,2.2,2.85,5.22,4.6,7.42,1.25,1.57,2.67,2.73,4.4,2.88-1.51-1.43-3.27-3.84-4.81-6.61-1.94-3.48-3.45-7.48-3.77-10.83-.04-.46-.14-.94-.14-1.37.01-.87.13-1.67.37-2.38.82-2.4,1.16,2.32,1.25,2.67,1.41,5.4,5.03,10.99,9.75,14.06-2.08-2.52-4.32-5.64-5.92-8.99-1.95-4.06-2.96-8.47-1.56-12.57,0,0,0,0,0,0,0,0,0,0,0,0,.31.95.65,2.02,1.03,3.14.12.36.27.76.4,1.13.38,1.1.8,2.2,1.26,3.32.84,2.08,1.8,4.13,2.95,5.84.21.32.43.62.66.91.02.02.04.05.06.07.02.03.05.06.08.1.83,1.05,1.75,1.92,2.75,2.51-2.2-3.84-4.76-8-6.04-12.39-.06-.19-.09-.39-.14-.58-.1-.37-.2-.75-.28-1.12-.24-1.14-.36-2.29-.38-3.46-.02-.98.02-1.97.2-2.96,0,0,0,0,0,0,0,0,0,0,0,0,1.62,3.14,3.16,6.32,4.81,9.44.03.05.05.1.08.15,1.68,3.16,3.49,6.25,5.63,9.15-.19-.73-.43-1.48-.72-2.24,0,0,0,0,0-.01-.14-.37-.29-.74-.45-1.11-.01-.02-.02-.05-.03-.07-.06-.15-.14-.3-.2-.45-.16-.35-.32-.7-.49-1.06,0-.01-.01-.02-.02-.04-.16-.34-.33-.68-.5-1.02-.02-.04-.04-.07-.06-.11-.16-.31-.32-.63-.48-.95-.03-.06-.07-.13-.1-.19-.15-.29-.3-.57-.45-.86-.06-.12-.12-.23-.18-.35-.1-.18-.2-.37-.29-.55-.66-1.24-1.34-2.51-1.98-3.78-.05-.1-.1-.2-.15-.3-.07-.15-.14-.29-.21-.43-.07-.14-.14-.29-.21-.43-.05-.1-.09-.19-.14-.29-.08-.17-.16-.35-.24-.52-.01-.03-.02-.05-.04-.08-.3-.66-.59-1.32-.85-1.98-.01-.03-.02-.06-.03-.09-.08-.21-.16-.42-.24-.63-.01-.03-.02-.07-.04-.1-.34-.91-.62-1.82-.85-2.73,0-.01,0-.03-.01-.04-.05-.21-.1-.41-.14-.62,0-.05-.02-.09-.03-.14-.04-.2-.08-.4-.11-.61,0-.04-.01-.07-.02-.11-.1-.64-.17-1.28-.2-1.91,0-.04,0-.09,0-.13,0-.18,0-.35,0-.53,0-.08,0-.16,0-.25,0-.17.01-.33.02-.5,0-.09.01-.18.02-.27.01-.16.03-.32.05-.48.01-.09.03-.18.04-.27.02-.15.04-.3.07-.45h0s0,0,0,0c.18.29.38.59.55.9.07.13.14.26.21.39.18.32.36.64.53.97.03.06.06.11.09.17.24.45.47.9.71,1.37,0,0,0,0,0,.01.61,1.21,1.21,2.45,1.82,3.67.02.04.04.09.07.13.08.16.16.32.25.48.09.17.18.34.27.51.06.11.12.22.18.33.32.6.66,1.2,1,1.77.03.05.06.09.09.14.16.26.32.51.48.76l.08.13c.37.56.76,1.1,1.17,1.61.05.07.11.13.16.2.15.18.29.35.45.52.08.08.15.17.23.25.14.15.29.3.43.44.07.07.13.14.2.2-.82-2.41-2.05-4.73-3.31-7.04-2.53-4.64-5.2-9.27-4.91-14.56.54.5,1.06,1,1.57,1.51.04.04.08.07.11.11,2.6,2.58,4.76,5.17,6.53,7.72.01.02.02.03.03.05.68.99,1.3,1.97,1.87,2.94.03.06.07.11.1.17.26.45.5.89.74,1.34.06.11.11.22.17.33.18.35.35.7.52,1.04.4.83.76,1.66,1.08,2.48.04.11.08.21.12.31.11.29.22.59.32.88.04.11.07.22.11.32.32.93.59,1.85.81,2.75.03.12.06.24.09.36.06.27.12.54.18.81.03.12.05.24.07.36.11.55.2,1.09.27,1.62,0,.06.02.12.03.17.03.24.06.49.08.73.02.15.03.3.05.45.02.23.04.46.06.68.01.16.02.33.03.49.02.34.03.69.03,1.02,0,.2,0,.4,0,.59,0,.19,0,.38-.01.57,0,.19-.01.38-.02.57,0,.18-.02.35-.03.53-.02.24-.04.48-.07.72-.02.19-.04.37-.06.55-.03.26-.07.52-.11.77-.02.14-.05.27-.07.41-.04.23-.08.45-.13.67-.02.12-.05.24-.07.36-.07.33-.15.65-.24.97-.01.05-.03.1-.04.15-.08.28-.16.55-.25.83-.03.09-.06.19-.09.28-.08.25-.17.49-.26.73-.03.07-.05.14-.08.21-.12.31-.24.61-.38.91-.01.03-.03.06-.04.09-.12.27-.24.53-.37.79-.03.07-.07.13-.1.2-.13.25-.26.49-.39.72-.02.04-.04.07-.06.11-.16.28-.33.55-.5.81-.02.03-.04.06-.06.09-.15.23-.3.45-.46.66-.04.05-.08.1-.11.16-.16.22-.33.43-.5.64ZM117.86,73.4l-4.32,3.44h0s0,0,0,0c1.33-2.93,4.33-5.19,7.34-6.34.37-.14.73-.27,1.1-.38h0s0,0,.01,0l-4.12,3.28ZM123.46,93.89s0,0,0,0c0,0,0,0,0,0,.9-.23,1.79-.45,2.67-.66,3.65-.88,7.13-1.67,10.49-3.18,1.31-.59,2.61-1.28,3.89-2.13,0,0,0,0,0,0,0,0,0,0,0,0-.49,1.86-1.62,3.31-3.11,4.38-.33.23-.67.45-1.03.65,0,0-.01,0-.02,0-.09.05-.18.09-.26.14-3.8,1.98-9.09,2.07-12.63.8ZM124.6,98.75c6.91-1.88,13.6-3.4,19.32-8.08,0,0,0,0,0,0,0,0,0,0,0,0-3.18,7.23-12,11.07-19.33,8.08,0,0,0,0,0,0,0,0,0,0,0,0ZM126.07,102.76s0-.05.01-.08c.26-.6,5.67-1.35,8.43-1.81.76-.13,1.32-.24,1.52-.32,1.59-.6,3.27-1.96,5-3.1,1.13-.74,2.28-1.38,3.44-1.65,0,0,0,0,0,0,0,0,0,0,0,0-3.02,5.97-12.27,11.24-18.41,6.95ZM152.85,78.7l-9.68,4.77s0,0,0,0h0c.46-1.82,8.79-6.5,9.69-4.77h0ZM152.9,61.43s0,0,0,0c0,0,0,0,0,0,0,0,0,0,0,0-.53-.53-2.91-.29-5.5-.48-1.95-.14-4.01-.52-5.5-1.64-3.48-2.62-14.11-4.16-14.11-4.16,1.86-4.92,12.56,2.74,15.48,2.18,1.65-.32-1.33-2.47-3.85-4.61-1.94-1.65-3.61-3.29-2.66-4.08,1.31-1.1,4.98,2.25,7.91,5.1.3.07.5.14.55.18.07.05.18.3.32.67,1.94,1.89,3.35,3.28,3.14,2.43-.17-.7-.23-1.2-.22-1.55-.49-.85-.77-1.57-.63-1.97.04-.12.12-.22.25-.28.15.05.35.2.6.43,1.47,1.42,4.34,5.83,4.41,7.33.01.19-.02.33-.11.41.09.17.08.21-.07.06Z"/>
      <path class="cls-2" d="M88.26,65.57c-2.07,1.24-3.09,1.72-3.42,1.6-.02,0-.05-.02-.08-.05-.05-.08,0-.25.09-.5.22-.47.72-1.26,1.41-2.27,0-.02.01-.04.05-.07.95-1.44,2.21-3.33,3.38-5.51l-.79-.54-7.85,6.45,4.81-9.56-7.31,5.66c1.71-2.65,3.09-4.79,4.13-6.46,3.94-6.3,3.39-6.08-1.11-1.98-.02.01-.03.03-.06.06-1.39,1.25-3.14,2.88-5.26,4.81-.43.37-.86.77-1.31,1.18-.14-.07-.24-.13-.34-.19-.51-.35-.61-.8-.44-1.3.45-1.36,2.8-3.15,4.49-4.91.97-1,1.73-1.99,1.79-2.85-22.26,10.32-29.47,40.91-20.14,61.32.43.94.89,1.86,1.38,2.74,1.49,2.68,3.29,5.12,5.41,7.27-1.5-1.82-2.79-3.88-3.88-6.14-.53-1.1-1.02-2.28-1.44-3.46-.3-.73-.56-1.48-.78-2.25-.83-2.68-1.44-5.5-1.84-8.41-.12-.89-.22-1.79-.3-2.71-.1-1.11-.16-2.2-.2-3.31-.06-1.65-.06-3.3.01-4.93.06-1.64.18-3.29.38-4.88.13-1.06.28-2.12.46-3.14,1.73-9.89,5.87-18.28,11.99-21.39-12.77,17.45-13.28,41.22-.15,58.5-.42-.8-.86-1.62-1.25-2.44-.2-.4-.41-.83-.6-1.25-.09-.2-.18-.4-.28-.62-.47-1.06-.93-2.14-1.37-3.23-1.09-2.8-2.01-5.69-2.72-8.63-.18-.73-.34-1.46-.49-2.22-.19-.93-.35-1.86-.5-2.8-.13-.91-.25-1.86-.36-2.79-.03-.46-.08-.94-.11-1.4-.06-.93-.1-1.87-.12-2.8-.02-1.39.02-2.79.12-4.17.05-.46.08-.92.12-1.37.11-.9.23-1.83.39-2.74.24-1.35.56-2.69.93-4.02,1.3-4.47,3.44-8.71,6.63-12.49.37-.44.75-.85,1.14-1.28-7.56,15.58-8.86,42.11,5,53.99-.25-.38-.49-.78-.73-1.18-.48-.8-.94-1.61-1.38-2.41-8.14-14.99-10.06-33.34.96-47.48-2.98,5.6-4.36,12.65-4.27,19.93,0,1.14.07,2.29.16,3.43.03.57.09,1.14.16,1.73.18,1.71.44,3.44.8,5.14.11.58.23,1.14.37,1.7.4,1.67.88,3.31,1.41,4.91,1.29,3.76,3.01,7.26,5.11,10.33.6.86,1.24,1.7,1.9,2.5.99,1.2,2.06,2.3,3.2,3.28-.93-1.25-1.83-2.64-2.73-4.13-.67-1.13-1.34-2.31-1.97-3.54-.63-1.22-1.25-2.5-1.81-3.79-1.35-3.06-2.49-6.26-3.35-9.53-.25-.92-.46-1.86-.67-2.78-.09-.47-.19-.93-.26-1.39-.17-.93-.29-1.86-.4-2.78-.09-.92-.16-1.83-.21-2.73-.06-1.81,0-3.58.23-5.29.32-2.35.94-4.55,1.92-6.57.41-.81.86-1.59,1.37-2.35.53-.75,1.1-1.46,1.76-2.12-2.2,7.8-1.94,18.89.94,28.62.26.9.53,1.76.83,2.62.29.81.59,1.6.92,2.38.23.54.46,1.08.71,1.58.71,1.56,1.52,3.04,2.4,4.42.89,1.36,1.85,2.65,2.9,3.8,1.75,1.91,3.74,3.48,5.95,4.55-1.27-1.07-2.5-2.34-3.66-3.74-.59-.69-1.17-1.45-1.71-2.2-1.11-1.55-2.16-3.2-3.11-4.95-.47-.88-.92-1.77-1.35-2.67-5.36-11.37-6.94-25.4-.12-33.14-.21.99-.39,2.04-.54,3.09-.07.53-.13,1.06-.19,1.6-.11,1.07-.19,2.17-.24,3.29-.04,1.1-.05,2.22-.02,3.37.01.74.04,1.5.09,2.24.1,1.54.27,3.07.48,4.61.42,2.85,1.07,5.71,1.95,8.43.35,1.1.73,2.17,1.16,3.21,3,7.34,7.86,13.5,14.81,16.49-16.09-10.57-23.33-36.56-9.33-51.66-2.34,1.35-6.46,4.66-8.01,6.88,1.43-4.75,5.48-8.05,7.63-12.46-1.46.92-2.63,1.65-3.61,2.21,0,.02-.03.03-.06.04Z"/>
      <path class="cls-2" d="M202.73,84.02c.29,2.04-1.73,5.9-3.79,4.47-.14-.22-.26-.45-.37-.72-.11-.25-.22-.51-.3-.79-.08-.28-.14-.57-.19-.86-.4-2.29.14-4.89,1.28-5.35.25-.13.52-.13.83-.02.18.07.37.18.57.34.3.25.6.6.94,1.07.23.33.46.71.68,1.14.12.23.24.46.35.71-1.23-23-17.52-3.51-15.02,7.74,5.03,8.51,19.11,1.35,15.02-7.74ZM191.4,85.76s0-.01,0-.02c.07-.19.15-.38.23-.56.01-.03.02-.06.04-.08.03-.06.05-.11.08-.17.02-.05.05-.1.07-.15,0-.01.02-.03.02-.04.15-.3.31-.58.48-.85.01-.02.02-.03.03-.05.18-.28.37-.55.57-.78.03-.03.06-.06.09-.1.08-.09.15-.18.23-.26.08-.08.16-.14.23-.21.03-.03.06-.06.09-.09.89-.73,1.83-.86,2.55.14.21.44.26,1.53.18,2.79-.15,2.32-.77,5.23-1.82,5.86-3.89.66-4.15-2.58-3.09-5.44Z"/>
      <path class="cls-2" d="M135.61,29.91c.2.35.39.71.59,1.06l2.11.79c.83-6.4,6.66-12.74,12.22-16.16,1.7,8.23.73,16.97-2.36,24.79,7.53-7.97,2.6-20.81,7.61-30.25-9.13,1.43-16.52,10.04-21.18,17.96.32.57.65,1.17,1.01,1.81Z"/>
      <path class="cls-2" d="M58.22,116.41c-9.59-19.91-5.21-41.97,7.21-59.55-17.29,13.25-18.55,42.15-7.21,59.55Z"/>
      <path class="cls-2" d="M50.6,111.09c-7.31-14.63-2.09-31.78,3.47-45.63-9.76,12.67-11.94,32.3-4.46,46.25l.99-.62Z"/>
      <path class="cls-2" d="M183.03,94.44c-1.47-6.29,1.53-12.56,5.18-17.82-8.49-.46-11.34,13.25-5.18,17.82Z"/>
      <path class="cls-2" d="M159.55,67.72c-.25.29-.49.69-.7,1.18-2.22,7-2.28,30.23,9.4,24.09-.12-.86-.61-2.44-1.3-4.4-2.37-6.61-7.13-17.66-7.4-20.87Z"/>
      <path class="cls-2" d="M142.04,33.65l7.89-15.82c-4.46,3.27-9.41,10.19-7.89,15.82Z"/>
      <path class="cls-2" d="M99.57,113.72c.52.59,1.06,1.14,1.62,1.67.49.45.96.9,1.48,1.27,1.88,1.53,3.87,2.58,5.81,2.73-5.4-3.54-10-7.71-14.04-12.66.53.88,1.16,1.85,1.87,2.88.96,1.35,2.07,2.79,3.26,4.1Z"/>
      <path class="cls-2" d="M137.99,113.15l-5.31.98c1.73.61,3.9.18,5.31-.98Z"/>
      <path class="cls-4" d="M113.9,54.97c.16-.22.31-.44.46-.66.02-.03.04-.06.06-.09.17-.26.34-.53.5-.81.02-.03.04-.07.06-.11.13-.24.26-.48.39-.72.03-.07.07-.13.1-.2.13-.26.25-.52.37-.79.01-.03.03-.06.04-.09.13-.3.26-.6.38-.91.03-.07.05-.14.08-.21.09-.24.18-.48.26-.73.03-.09.06-.19.09-.28.09-.27.17-.55.25-.83.01-.05.03-.1.04-.15.08-.32.16-.64.24-.97.03-.12.05-.24.07-.36.05-.22.09-.44.13-.67.02-.14.05-.27.07-.41.04-.25.08-.51.11-.77.02-.18.04-.37.06-.55.03-.24.05-.48.07-.72.01-.17.02-.35.03-.53.01-.19.02-.38.02-.57,0-.19.01-.38.01-.57,0-.2,0-.39,0-.59,0-.34-.01-.68-.03-1.02,0-.16-.01-.33-.03-.49-.02-.23-.03-.46-.06-.68-.01-.15-.03-.3-.05-.45-.03-.24-.05-.48-.08-.73,0-.06-.02-.12-.03-.17-.07-.53-.17-1.07-.27-1.62-.02-.12-.05-.24-.07-.36-.06-.27-.12-.54-.18-.81-.03-.12-.06-.24-.09-.36-.22-.9-.49-1.82-.81-2.75-.04-.11-.07-.22-.11-.32-.1-.29-.21-.58-.32-.88-.04-.1-.08-.21-.12-.31-.32-.82-.68-1.65-1.08-2.48-.17-.35-.34-.69-.52-1.04-.06-.11-.11-.22-.17-.33-.23-.44-.48-.89-.74-1.34-.03-.06-.07-.11-.1-.17-.57-.97-1.19-1.96-1.87-2.94-.01-.02-.02-.03-.03-.05-1.77-2.55-3.93-5.14-6.53-7.72-.04-.04-.07-.07-.11-.11-.51-.5-1.03-1-1.57-1.5-.29,5.29,2.37,9.91,4.91,14.55,1.26,2.31,2.49,4.63,3.31,7.04,0,0,0,0,0,0-.07-.07-.14-.14-.2-.21-.15-.15-.29-.29-.43-.44-.08-.08-.15-.17-.23-.25-.15-.17-.3-.34-.45-.52-.05-.07-.11-.13-.16-.2-.41-.51-.8-1.05-1.17-1.61l-.08-.13c-.16-.25-.32-.5-.48-.76-.03-.05-.06-.09-.09-.14-.35-.58-.68-1.17-1-1.77-.06-.11-.12-.22-.18-.33-.09-.17-.18-.34-.27-.51-.08-.16-.17-.32-.25-.48-.02-.04-.04-.09-.07-.13-.62-1.23-1.22-2.47-1.83-3.68-.23-.46-.47-.92-.71-1.37-.03-.06-.06-.11-.09-.17-.17-.33-.35-.65-.53-.97-.25-.44-.5-.87-.76-1.29h0c-.03.15-.05.3-.07.45-.01.09-.03.18-.04.27-.02.16-.03.32-.05.48,0,.09-.02.18-.02.27-.01.17-.02.33-.02.5,0,.08,0,.16,0,.25,0,.18,0,.35,0,.53,0,.05,0,.09,0,.13.02.64.09,1.27.2,1.91,0,.04.01.07.02.11.03.2.07.4.11.61,0,.05.02.09.03.14.04.21.09.41.14.62,0,.01,0,.03.01.04.22.91.51,1.82.85,2.73.01.03.02.07.04.1.08.21.16.42.24.63.01.03.02.06.03.09.26.66.55,1.32.85,1.98.01.03.02.05.04.08.08.17.16.35.24.52.05.1.09.19.14.29.07.14.14.29.21.43.07.15.14.29.21.43.05.1.1.2.15.3.64,1.27,1.32,2.54,1.98,3.78.1.18.2.37.29.55.06.12.12.23.18.35.15.29.3.58.45.86.03.06.07.13.1.19.16.32.33.63.48.95.02.04.04.07.06.11.17.34.34.68.5,1.02,0,.01.01.02.02.04.17.35.33.71.49,1.06.07.15.14.3.2.45.01.02.02.05.03.07.16.37.31.74.45,1.11,0,0,0,0,0,.01.29.76.54,1.51.72,2.24,0,0,0,0,0,0-2.14-2.9-3.94-5.99-5.63-9.15-.03-.05-.05-.1-.08-.15-1.65-3.12-3.19-6.3-4.81-9.44,0,0,0,0,0,0-.18.99-.22,1.98-.2,2.95.02,1.16.14,2.32.38,3.46.08.38.18.75.28,1.12.05.19.09.39.14.58,1.29,4.39,3.84,8.55,6.04,12.39,0,0,0,0,0,0-1.01-.6-1.92-1.47-2.76-2.52-.03-.03-.05-.06-.08-.1-.02-.02-.04-.05-.06-.07-.22-.29-.44-.59-.66-.91-1.15-1.71-2.11-3.76-2.95-5.84-.46-1.12-.88-2.22-1.26-3.32-.13-.38-.28-.77-.41-1.13-.38-1.12-.72-2.18-1.03-3.14,0,0,0,0,0,0-1.39,4.11-.38,8.51,1.56,12.57,1.61,3.35,3.85,6.47,5.93,8.99,0,0,0,0,0,0-4.72-3.07-8.34-8.66-9.75-14.06-.09-.35-.43-5.08-1.25-2.67-.24.71-.36,1.51-.37,2.38,0,.43.09.91.14,1.37.32,3.35,1.84,7.35,3.77,10.83,1.54,2.77,3.29,5.18,4.81,6.61,0,0,0,0,0,0-1.74-.15-3.16-1.31-4.41-2.89-1.74-2.21-3.15-5.22-4.6-7.42-.32-.48-.64-.93-.96-1.32,0,0,0,0,0,0,.09.49.18.96.28,1.43,0,.04.01.07.02.11.62,2.85,1.48,5.18,2.49,7.07.02.04.04.08.06.12.54.99,1.13,1.85,1.75,2.59,0,0,0,0,0,0,1.73,2.06,3.73,3.17,5.79,3.48.02,0,.04,0,.07.01.17.02.35.04.52.06.02,0,.04,0,.06,0,.52.03,1.03.02,1.55-.04.06,0,.13-.02.19-.02.15-.02.29-.04.43-.07.07-.01.15-.03.22-.05.23-.05.47-.11.7-.18.1-.03.2-.06.29-.09.12-.04.23-.08.35-.13.11-.04.22-.08.33-.13.11-.04.21-.09.32-.14.15-.07.31-.15.46-.22.1-.05.21-.11.31-.16.16-.09.32-.18.48-.28.08-.05.16-.1.24-.15.15-.1.29-.19.43-.3.07-.05.13-.09.2-.14.21-.15.41-.31.61-.48.02-.02.05-.04.07-.06.18-.15.36-.31.54-.48.05-.05.1-.1.16-.15.16-.16.32-.32.48-.49.04-.04.07-.08.11-.12.2-.21.39-.43.58-.66.02-.02.03-.04.05-.06.17-.21.33-.42.5-.64.04-.05.08-.1.11-.16Z"/>
      <path class="cls-4" d="M120.53,66.91c.06.02.12.04.17.06.07.02.13.05.2.07.11.04.23.08.35.11.01,0,.02,0,.03.01.91.28,1.99.52,3.09.71.12.02.24.04.36.06.02,0,.04,0,.06,0,.38.06.76.12,1.13.17.25.86.66,1.63,1.18,2.31.02.03.05.06.07.09.16.2.33.4.52.59.05.05.1.09.14.13.15.15.31.29.48.42.04.03.08.07.13.1.21.16.42.31.64.46.02.01.04.02.06.03.22.14.45.26.68.38.02.01.04.02.07.03.25.12.51.23.77.33h.02c.26.1.53.19.8.26,0,0,.01,0,.02,0,.27.07.55.13.83.17,0,0,.02,0,.03,0,.27.04.55.07.82.08,0,0,.01,0,.02,0,.27.01.54.01.81,0,.03,0,.05,0,.08,0,.25-.02.5-.05.75-.09.02,0,.03,0,.05,0,.25-.05.5-.11.74-.18.04-.01.08-.03.12-.04.22-.07.43-.15.65-.25.02-.01.05-.02.07-.03.22-.1.44-.22.65-.36.05-.03.1-.06.14-.1.19-.13.37-.26.54-.41.02-.02.04-.03.06-.05.19-.17.36-.35.53-.54.04-.05.08-.09.12-.14.16-.2.32-.41.46-.64,0,0,0-.01.01-.02.15-.24.28-.5.4-.77.02-.05.05-.1.07-.15.12-.28.23-.57.32-.88.86.29,1.82.65,2.79,1.01,2.15.8,4.34,1.61,5.53,1.77,0,0,.02,0,.03,0,.1.02.17.03.25.02.27.01.47-.02.57-.12,0,0,0,0,0,0,0,0,.02-.02.02-.03.17-.25-.15-.81-1.13-1.8-.09-.09-.19-.19-.29-.29-.16-.38-1.19-1.31-3.59-3.12-.05-.04-.1-.07-.15-.11-.02-.01-.03-.02-.05-.03,0,0,0,0,0,0h0s0-.01-.02-.01c-10.61-7.82-18.43-4.4-20.8-3.01-.21.12-.38.23-.5.32-1.79.55-2.8,1.07-3.25,1.55t0,0c-.7.75.02,1.4,1.39,1.92ZM130.16,66.75c2.1,2.43,4.86,3.28,6.44-.06,1.99,1.8.44,3.2-1.67,3.65-1.12.24-2.4.22-3.38-.16-1.3-.49-2.09-1.58-1.39-3.44Z"/>
      <path class="cls-4" d="M142.82,73.72c-.07-.59-.28-.83-.63-.85-.41-.02-1.01.27-1.78.69-.17.1-.4.22-.6.33-.31.17-.6.33-.94.52-.33.18-.66.36-1.02.53-.03.02-.07.03-.11.05-.29.13-.59.27-.9.39-.02,0-.05.02-.07.03-.26.1-.53.19-.82.29-.04.01-.07.03-.11.04-.3.09-.6.18-.91.26-.08.02-.16.04-.24.05-.14.03-.28.05-.42.08-.29.05-.58.09-.87.12-.06,0-.12,0-.17.01-.08,0-.17,0-.26,0-.3.01-.6.01-.91,0-.66-.03-1.34-.15-2.04-.34-.14-.04-.28-.08-.42-.13-.71-.22-1.43-.5-2.17-.91l-.05-.03c-.26-.14-.52-.3-.78-.47-.03-.02-.06-.04-.1-.06-.26-.17-.52-.36-.79-.56,0,0,0,0,0,0-.17-.13-.35-.27-.52-.41-.01,0-.02-.02-.03-.03-.17-.14-.34-.28-.51-.43,0,0,0,0,0,0-.18-.16-.35-.31-.53-.48-.04,2,.7,3.48,1.92,4.52.1.08.2.15.3.23.08.06.16.13.25.19,1.84,1.25,4.49,1.67,7.13,1.43,3.97-.35,7.93-2.2,9.13-4.99,0,0,0,0,0,0,0-.02,0-.03,0-.05Z"/>
      <path class="cls-4" d="M144.47,95.82s0,0,0,0c-1.16.27-2.31.91-3.44,1.65-1.73,1.14-3.41,2.5-4.99,3.11-.2.07-.76.18-1.52.31-2.76.46-8.17,1.21-8.43,1.81-.01.02-.01.05,0,.07,6.12,4.29,15.37-.96,18.4-6.94Z"/>
      <path class="cls-4" d="M143.92,90.68s0,0,0,0c-5.72,4.68-12.41,6.2-19.32,8.08,0,0,0,0,0,0,7.31,2.98,16.14-.85,19.31-8.08Z"/>
      <path class="cls-4" d="M136.09,93.09c.09-.05.18-.09.26-.14,0,0,.01,0,.02,0,.36-.2.7-.41,1.03-.65,1.49-1.07,2.61-2.51,3.11-4.37,0,0,0,0,0,0-1.28.85-2.57,1.55-3.89,2.13-3.36,1.51-6.84,2.3-10.49,3.18-.88.21-1.77.43-2.67.66,0,0,0,0,0,0,3.54,1.26,8.82,1.18,12.62-.8Z"/>
      <path class="cls-4" d="M146.51,75.84s0,0,0,0c-1.73,1.02-3.51,2.01-5.34,2.92-3.11,1.54-6.36,2.87-9.75,3.74-1.14.29-2.3.54-3.47.72,0,0,0,0,.01,0,6.48,1.39,15.12-1.48,18.55-7.37Z"/>
      <path class="cls-4" d="M143.17,83.47s0,0,0,0l9.68-4.77c-.89-1.74-9.21,2.95-9.68,4.77Z"/>
      <path class="cls-4" d="M121.98,70.11c-.36.11-.73.24-1.1.38-3,1.16-6,3.41-7.33,6.34h0s4.32-3.43,4.32-3.43l4.11-3.28h0Z"/>
      <path class="cls-4" d="M133.16,88.71c1.1-.35,2-.72,2.44-1.06.06-.05.11-.09.16-.14,0,0,0,0,0,0,.11-.12.15-.24.1-.34l-5.14,1.27-5.2,1.28s0,0,0,0c.21.16.64.22,1.22.22,1.61,0,4.36-.57,6.42-1.22Z"/>
      <path class="cls-4" d="M194.49,91.19c1.04-.63,1.66-3.54,1.82-5.86.08-1.27.03-2.35-.18-2.79-.72-.99-1.66-.87-2.55-.14-.03.03-.06.06-.09.09-.08.07-.16.14-.23.21-.08.08-.16.17-.23.26-.03.03-.06.06-.09.1-.2.24-.39.5-.57.78-.01.02-.02.03-.03.05-.17.27-.33.55-.48.85,0,.01-.02.03-.02.04-.02.05-.05.1-.07.15-.03.06-.05.11-.08.17-.01.03-.02.06-.04.08-.08.19-.16.37-.23.56,0,0,0,.02,0,.02-1.06,2.85-.79,6.1,3.09,5.43Z"/>
      <path class="cls-2" d="M131.55,70.19c.99.37,2.26.4,3.38.16,2.11-.45,3.66-1.85,1.67-3.65-1.59,3.34-4.34,2.49-6.44.06-.71,1.87.09,2.95,1.39,3.44Z"/>
      <path class="cls-2" d="M14.93,114.19c.21,2.87,2.04,3.86,4.92,3.77,1.13-.03,2.56.11,4.29.26-2.02-3.48-2.62-10.35-2.62-10.35,0,0,2.55,7.04,6.56,10.61,2.1.08,4.51.05,7.22-.25-4.46-7.78-4.05-23.77-4.05-23.77,0,0,3.66,15.8,7.27,23.3,1.17-.21,2.39-.47,3.66-.79-2.39-5.59-4.71-17.69-4.71-17.69,0,0,3.37,10.8,6.98,17.06,1.01-.3,2.05-.64,3.13-1.03-15.6-27.58-2.53-43.54.18-46.39-.23.05-.48.09-.75.14-12.54,2.25-9.27,27.22-9.27,27.22,0,0-2.53-16.93.1-23.34-1.2.65-2.34,1.33-3.41,2.02-4.39,4.77-4.88,16.07-4.88,16.07,0,0-1.37-6.85-.9-11.71-2.35,2.08-4.31,4.27-5.95,6.51-2.58,5.04-1.62,16.27-1.62,16.27,0,0-1.68-5.83-1.99-10.29-4.21,8.61-4.52,17.16-4.14,22.38Z"/>
      <path class="cls-2" d="M117.79,15.69c-3.03-.58-4.23-.87-4.23-.87,0,0,6.78,9.48,9.55,11.16,2.03,1.23.58,5.32,1.3,7.28.72,2.6,2.33,4.12,4.19,4.98.13-3.33-4.52-12.29-2.65-8.98,1.35,2.38,4.02,6.95,5.39,9.28,1.48-4.18-7.74-20.45-4.34-14.93,2.52,4.1,7.77,12.34,9.78,15.48.7-.1,1.13-.2,1.13-.2,0,0-8.46-15.68-9.04-15.82-.58-.15-4.16-6.03-11.08-7.37Z"/>
      <path class="cls-4" d="M130.13,21.13c-.1-.11-.24-.27-.36-.4-1.61-1.82-5.37-6.09-11.55-7.28-2.91-.56-4.11-.85-4.12-.85l-2.26-.54-3.71-.89,3.57,4.99c1.17,1.63,7.1,9.8,10.14,11.73.17.42.12,1.69.1,2.39-.05,1.24-.1,2.53.29,3.67.65,2.3,1.92,4.11,3.71,5.39,2.04,1.46,4.77,2.24,8.07,2.24,2.45,0,4.35-.44,4.43-.46l2.01-.47.9-.21-1.42-2.63s-1.78-3.29-3.73-6.82c-.19-.35-.39-.71-.59-1.06-.36-.64-.69-1.24-1.01-1.81-.83-1.48-1.53-2.71-2.1-3.67-.55-.94-.96-1.63-1.31-2.14-.39-.57-.71-.93-1.06-1.16ZM128.87,23.05c.58.15,9.04,15.82,9.04,15.82,0,0-.43.1-1.13.2.5.79.8,1.26.8,1.26,0,0-3.16-.28-5.49-.52.06.1.09.15.09.15,0,0-5.71-.55-4.48-.55.61,0,.87-.46.9-1.19-1.87-.86-3.48-2.38-4.19-4.98-.71-1.96.74-6.05-1.3-7.28-2.77-1.68-9.55-11.16-9.55-11.16,0,0,1.2.29,4.23.87,6.93,1.34,10.5,7.22,11.08,7.37Z"/>
      <path class="cls-2" d="M87.47,32.17c-1.64-.94-5.46-.16-4.87-1.09.56-.89,3.8-1.06,5.46-1.09.34-1.25.72-2.59,1.13-4.01-2.66-.83-11.56,4.5-9.77,2.15,1.49-1.96,7.86-5.49,11.35-7.33.45-1.41.94-2.86,1.48-4.37,0,0-9.48,2.63-13.86,7.29-1.57,1.68-3.83,2.18-5.98,2.18-3.26,0-6.27-1.16-6.27-1.16,0,0,1.9,5.98,7.15,8.46,4.86,2.29,5.97,6.21-3.35,6.21-.76,0-1.59-.03-2.49-.08-.57-.03-1.13-.05-1.68-.05-11,0-18.01,6.61-18.01,6.61,0,0,7.07-.85,11.97-.85,3.47,0,5.85.42,3.92,1.87-4.67,3.5-18.08,6.71-19.11,9.63,11.81,0,6.42,1.46-2.04,8.02-.61.48-.81.7-.65.7,1.09,0,18.41-9.99,30.6-17.25,1.04-1.09,1.89-2.22,1.8-2.92-.22-1.75-9.85-2.63-9.85-2.63,0,0,3.5.22,11.16.22,4.32,0,7.7-2.02,9.82-3.78.62-1.51,1.25-3.81,2.05-6.73Z"/>
      <path class="cls-4" d="M99.16,4.56c-.99,1.5-1.94,3.01-2.86,4.55-.75,1.25-1.51,2.51-2.21,3.79-.14.26-.31.5-.45.76l2.25-.62-1.47,4.14c-2.12,5.98-3.53,11.13-4.66,15.27-1.56,5.74-2.35,8.62-3.92,9.98-.13.11-.37.29-.71.52l2.84-6.62s-.89,1.21-2.54,2.57c-2.13,1.76-5.5,3.78-9.82,3.78-7.66,0-11.16-.22-11.16-.22,0,0,9.63.88,9.85,2.63.09.7-.76,1.83-1.8,2.92-1.56,1.64-3.56,3.2-3.56,3.2l6-2c-4.06,2.42-8.27,4.89-10.7,6.31-20.58,12.01-21.56,12.01-22.34,12.01-1,0-1.89-.63-2.22-1.57-.03-.08-.05-.16-.07-.24-4.44,2.53-7.64,4.41-8.47,5.03-2.29,1.61-9.27,4.85-12.49,7.37-1.16.9-2.23,1.87-3.25,2.87-2,1.95-3.75,4.05-5.24,6.3-3.35,5.06-5.45,10.79-6.53,16.72-1.12,6.15-1.15,12.52-.3,18.6h140.11c.34-.12.7-.25,1.08-.37,7.5-2.49,22.91-5.78,35.16-10.41,1.22-.46,2.4-.94,3.55-1.42.4-.17.79-.34,1.18-.51,1.21-.54,2.37-1.1,3.46-1.68,4.92-2.6,8.45-5.55,9.25-8.92,3.82.25,6.47-1.25,8.16-3.7,1.32-1.9,2.06-4.38,2.3-7.07.54-6.27-1.63-13.67-5.42-17.55-1.44-1.47-3.11-2.42-4.95-2.62-2.4-.26-5.09.74-7.94,3.63-1.64-.29-3.68-.83-5.95-1.58-.62-.21-1.26-.43-1.91-.66-.79-.29-1.6-.6-2.43-.93-.53-.21-1.07-.44-1.61-.67-.49-.21-.99-.44-1.49-.67-2.14-.96-4.3-2.05-6.41-3.24-.95-.54-1.87-1.1-2.78-1.68-5.16-3.29-9.57-7.22-11.57-11.47-.33-.69-.59-1.39-.78-2.1-.39-1.46-.5-2.94-.23-4.45.27-1.46.86-2.94,1.88-4.43,2.65-5.15,1.88-10.25,1.25-15.33-.18-1.42-.34-2.84-.42-4.25-.09-1.55-.06-3.1.16-4.65.09-.64.21-1.29.38-1.93.21-.46.49-.92.79-1.37,1.26-1.92,2.95-3.83,2.03-6.22-4.08-.93-8.09-.08-11.91,1.76-1.32.64-2.62,1.39-3.89,2.23-1.4.93-2.76,1.97-4.07,3.07-1.03.86-2.04,1.75-3.02,2.67-2.19,2.06-4.23,4.21-6.08,6.21.35.51.76,1.2,1.31,2.14.57.96,1.27,2.2,2.1,3.67,4.66-7.92,12.05-16.54,21.18-17.96-5.02,9.44-.08,22.28-7.61,30.25,3.09-7.82,4.05-16.56,2.36-24.79-5.56,3.42-11.39,9.76-12.22,16.16l-2.11-.79c1.95,3.53,3.71,6.78,3.73,6.82l1.42,2.63-.9.21c11.15,10.25,18.03,27.77,34.33,30.96l-6.06,5.64c.72.12,1.36,0,1.94-.3.11-.06.21-.11.31-.17.19-.12.38-.25.57-.38.19-.13.38-.29.56-.45.18-.16.35-.34.54-.52.18-.16.35-.34.54-.52.08-.1.17-.18.27-.27.17-.18.36-.36.54-.52,1.6-1.48,3.36-2.53,5.97-.56-.26.09-.48.19-.72.33-.23.12-.45.26-.65.42-.4.3-.76.66-1.06,1.07-1.93,2.46-2.34,6.5-3.61,9.08-.03.05-.05.11-.08.16.96-1.12,2.18-3.47,3.62-5.66.72-1.11,1.49-2.18,2.31-3.03,0-.02.02-.01.02-.01.22-.25.44-.47.68-.67.13-.12.26-.21.38-.31.23-.18.48-.34.73-.47t.03-.01c.13-.07.25-.13.37-.17.64-.28,1.29-.36,1.95-.22h.02c-.07.14-.14.27-.21.41-.5.94-1.05,1.84-1.63,2.73-.18.27-.36.55-.54.82-3.16,4.77-6.5,9.3-3.13,16.72-2.6-.6-4.91-2.99-4.77-5.74-3.49,12.36-9.35-22.71-15.09-23.77-2.44,3.06-4.52,13.64-3.4,20.48-2.43.18-7.99,1.6-8.47,4.32-.07.41-.04.83.14,1.29,23.34,14.02,10.58,2.68,32.06,8.78,6.38-.33,9.45.04,10.44.65.1.06.18.13.25.22,1.23,1.49-7.89,3.97-12.37,1.77h-.02s-.1-.02-.15.02c-.1.05-.23.18-.39.37-.21.29-.49.7-.75,1.18-.2.32-.37.66-.56,1-.62,1.23-1.22,2.49-1.43,2.9-.02.05-.06.1-.07.12l1.51-5.36-2.57-.9c-.05-.02-.39.66-.83,1.62-.11.23-.21.46-.32.7-.11.23-.23.49-.34.76-.35.77-.74,1.6-1.13,2.36-.12.26-.26.52-.38.74-.31.61-.61,1.13-.87,1.51-.1.15-.19.28-.29.39-.08.11-.17.18-.25.24-.12.06-.2.05-.27-.06-.06-.11-.11-.27-.11-.53,0-.12.02-.26.02-.43.37-1.88,3.94-5.46,2.04-7.39-3.73.07-4.74,8.93-8.33,9.73,1.55-2.55,3.68-6.14,4.43-9.21l-2.96.21c-.46,1.27-2.89,5.63-4.54,7.83-.28.37-.54.68-.77.91-.36.36-.62.49-.74.28-.08-.11-.08-.44,0-.97.24-.75.77-1.63,1.4-2.52.1-.15.19-.3.31-.44.55-.8,1.16-1.61,1.65-2.37.78-1.21,1.27-2.28.86-2.95-.07-.15-.2-.28-.39-.39-.27-.16-.66-.27-1.15-.33-.36-.03-.74-.05-1.2-.04-1.91,4.51-4.62,8.93-9.01,11.39,1.83-3.25,9.05-8.51,4.92-12.49-.39,1.05-1.16,2.49-2.11,3.94-.19.3-.41.59-.59.87-.73,1.01-1.54,1.98-2.38,2.79-.35.34-.72.66-1.09.93-.11.08-.23.18-.36.26-.24.16-.49.31-.74.42-.93.45-1.84.57-2.67.15,2.98-1.95,6.01-4.67,5.45-8.58-5.49,6.26-14.01,10.61-22.44,9.14,1.58-.44,3.59-.9,5.73-1.46.46-.14.94-.26,1.42-.39.97-.28,1.95-.59,2.89-.91.71-.25,1.43-.52,2.12-.81,4-1.72,7.24-4.21,7.29-8.16-5.25,5.39-12.57,8.08-19.99,7.43-3.92.2-10.06,4.88-13.96,2.1,4.19.13,8.67-2.05,10.61-5.91-.75.09-1.64.25-2.59.43-3.17.65-7.2,1.69-10.59,1.74-1.01.01-1.97-.06-2.85-.26,3.65-1.45,8.44-1.1,10.96-4.77,2.59-3.74-11.39,2.55-14.6-.05,1.93-.33,4.33-.79,6.46-1.64.26-.09.53-.19.79-.34,1.56-.69,2.95-1.66,3.83-2.93.14-.21.27-.44.4-.68-4.69-.46-9.19,2.57-14.08.66.27-.11.59-.21.95-.33.19-.05.39-.1.59-.15.28-.08.57-.16.87-.23.21-.07.43-.11.64-.17.43-.11.86-.21,1.3-.34.55-.14,1.12-.3,1.66-.47h.03c.55-.17,1.08-.37,1.57-.58.27-.11.5-.23.74-.34.46-.24.88-.49,1.26-.78.94-.74,1.49-1.67,1.37-2.88-.87.19-2.19.52-3.67.85-.6.12-1.21.27-1.86.4t-.02,0c-.64.11-1.29.22-1.95.32t-.02,0c-.67.08-1.31.15-1.97.19t-.02,0c-1.87.1-3.62-.06-4.94-.72,2.75-2.02,9.42-.74,11.34-3.91.17-2.04-7.14.21-8.96-1.13l6.88-2.61c.47-2.42-5.71,1.63-6.78-.31,1.79-1.33,3.14-2.41,4.1-3.26.17-.12.3-.24.4-.35.05-.02.06-.06.09-.07,2.7-2.49,1.73-2.81-.65-2.18-.28.08-.58.17-.88.27-.56.18-1.15.39-1.78.63-.33.12-.68.26-1.02.36-.27.11-.55.22-.83.34-.19.08-.37.15-.56.23-1.6.66-3.24,1.37-4.63,1.99-.3.14-.6.27-.87.4-.27.12-.54.23-.79.34,3.8-7.29,14.91-6.63,20.08-12.74-5.43-.4-12.09,3.42-17,4.51,4.42-5.78,14.47-4.45,17.54-11.22-9.64,3.04-15.77,1.1-19.31-3.58-.47-.61-.88-1.28-1.25-1.99-.19-.32-.38-.7-.54-1.09-.17-.37-.31-.76-.48-1.15-3.91-10.46-.53-27.41,5.21-38.58.27-.56.55-1.09.85-1.62.39-.7.78-1.37,1.2-2,.3-.48.61-.92.92-1.36.35-.51.71-.97,1.07-1.43.37-.44.73-.86,1.11-1.25,9.35,16.16,27.89,32.09,13.21,51.34,8.17-.71,11.03-10.6,10.25-18.56-1.79-1.28-3.06-3.09-3.71-5.39-.39-1.15-.34-2.43-.29-3.67.03-.7.08-1.97-.1-2.39-3.05-1.93-8.98-10.1-10.14-11.73l-3.57-4.99,3.71.89c-.04-.06-.08-.11-.11-.17-.81-1.21-1.61-2.4-2.39-3.54-1.04-1.52-2.04-2.93-2.99-4.17-1.09-1.42-2.11-2.6-3.03-3.4-.36-.31-.71-.58-1.05-.77-.21.29-.39.59-.6.88-.86,1.21-1.68,2.44-2.5,3.68ZM149.94,17.83l-7.89,15.82c-1.52-5.63,3.44-12.55,7.89-15.82ZM158.85,68.9c.23-.73.49-1.29.76-1.61.27,3.23,4.98,14.58,7.34,21.31.69,1.96,1.18,3.53,1.3,4.4-11.68,6.14-11.62-17.09-9.4-24.09ZM183.03,94.44c-6.15-4.57-3.31-18.28,5.18-17.82-3.66,5.26-6.66,11.53-5.18,17.82ZM187.71,91.76c-2.5-11.25,13.79-30.74,15.02-7.74,4.09,9.09-9.99,16.25-15.02,7.74ZM65.43,56.86c-12.42,17.58-16.8,39.64-7.21,59.55-11.34-17.4-10.08-46.3,7.21-59.55ZM54.07,65.45c-5.55,13.85-10.78,31-3.47,45.63l-.99.62c-7.48-13.95-5.3-33.58,4.46-46.25ZM19.07,91.81c.31,4.47,1.99,10.29,1.99,10.29,0,0-.96-11.23,1.62-16.27,1.64-2.24,3.6-4.43,5.95-6.51-.48,4.85.9,11.71.9,11.71,0,0,.49-11.3,4.88-16.07,1.08-.69,2.22-1.37,3.41-2.02-2.63,6.41-.1,23.34-.1,23.34,0,0-3.27-24.97,9.27-27.22.27-.05.52-.09.75-.14-2.71,2.86-15.77,18.81-.18,46.39-1.07.39-2.11.72-3.13,1.03-3.61-6.27-6.98-17.06-6.98-17.06,0,0,2.33,12.1,4.71,17.69-1.27.32-2.49.58-3.66.79-3.61-7.51-7.27-23.3-7.27-23.3,0,0-.41,15.99,4.05,23.77-2.72.3-5.12.33-7.22.25-4.01-3.57-6.56-10.61-6.56-10.61,0,0,.6,6.87,2.62,10.35-1.73-.15-3.15-.29-4.29-.26-2.87.09-4.71-.9-4.92-3.77-.37-5.23-.07-13.77,4.14-22.38ZM137.99,113.15c-1.4,1.16-3.58,1.58-5.31.98l5.31-.98ZM108.48,119.4c-1.94-.15-3.93-1.2-5.81-2.73-.52-.38-.99-.82-1.48-1.27-.56-.54-1.1-1.09-1.62-1.67-1.2-1.31-2.3-2.76-3.26-4.1-.71-1.03-1.33-2-1.87-2.88,4.04,4.95,8.63,9.12,14.04,12.66ZM91.92,63.31c-2.14,4.41-6.2,7.71-7.63,12.46,1.55-2.22,5.67-5.53,8.01-6.88-14.01,15.1-6.77,41.09,9.33,51.66-6.95-2.99-11.81-9.15-14.81-16.49-.43-1.05-.81-2.12-1.16-3.21-.88-2.72-1.54-5.58-1.95-8.43-.21-1.54-.38-3.06-.48-4.61-.05-.74-.08-1.49-.09-2.24-.03-1.14-.02-2.27.02-3.37.05-1.11.13-2.22.24-3.29.06-.53.11-1.07.19-1.6.15-1.06.33-2.1.54-3.09-6.83,7.74-5.24,21.77.12,33.14.42.9.87,1.79,1.35,2.67.95,1.75,2,3.4,3.11,4.95.54.76,1.12,1.51,1.71,2.2,1.16,1.4,2.4,2.67,3.66,3.74-2.21-1.07-4.2-2.64-5.95-4.55-1.05-1.15-2.01-2.44-2.9-3.8-.88-1.38-1.69-2.86-2.4-4.42-.24-.5-.47-1.04-.71-1.58-.33-.78-.63-1.57-.92-2.38-.3-.85-.57-1.72-.83-2.62-2.89-9.73-3.14-20.81-.94-28.62-.66.66-1.23,1.37-1.76,2.12-.51.76-.96,1.53-1.37,2.35-.98,2.02-1.6,4.22-1.92,6.57-.23,1.71-.29,3.47-.23,5.29.05.9.12,1.82.21,2.73.11.93.23,1.86.4,2.78.08.46.17.93.26,1.39.21.92.41,1.86.67,2.78.86,3.26,2,6.47,3.35,9.53.57,1.28,1.18,2.56,1.81,3.79.63,1.22,1.3,2.4,1.97,3.54.9,1.49,1.8,2.88,2.73,4.13-1.14-.98-2.21-2.08-3.2-3.28-.67-.8-1.3-1.64-1.9-2.5-2.1-3.07-3.82-6.57-5.11-10.33-.53-1.6-1.01-3.24-1.41-4.91-.14-.57-.26-1.13-.37-1.7-.35-1.7-.61-3.42-.8-5.14-.07-.58-.12-1.16-.16-1.73-.09-1.14-.15-2.3-.16-3.43-.1-7.28,1.29-14.34,4.27-19.93-11.03,14.13-9.11,32.49-.96,47.48.44.8.9,1.61,1.38,2.41.24.4.48.8.73,1.18-13.86-11.87-12.55-38.41-5-53.99-.39.43-.77.84-1.14,1.28-3.18,3.77-5.32,8.01-6.63,12.49-.37,1.32-.69,2.67-.93,4.02-.15.91-.27,1.83-.39,2.74-.05.46-.08.92-.12,1.37-.11,1.38-.14,2.79-.12,4.17.02.93.06,1.87.12,2.8.03.46.08.94.11,1.4.11.93.23,1.87.36,2.79.14.94.31,1.87.5,2.8.15.76.31,1.49.49,2.22.71,2.94,1.63,5.84,2.72,8.63.44,1.09.9,2.17,1.37,3.23.1.22.19.42.28.62.19.42.4.85.6,1.25.39.83.82,1.65,1.25,2.44-13.13-17.28-12.62-41.05.15-58.5-6.12,3.1-10.27,11.49-11.99,21.39-.18,1.02-.33,2.08-.46,3.14-.2,1.59-.33,3.23-.38,4.88-.08,1.64-.08,3.29-.01,4.93.04,1.11.1,2.2.2,3.31.09.92.18,1.82.3,2.71.39,2.91,1.01,5.73,1.84,8.41.23.76.48,1.52.78,2.25.42,1.19.91,2.36,1.44,3.46,1.09,2.26,2.37,4.33,3.88,6.14-2.12-2.15-3.92-4.6-5.41-7.27-.49-.88-.95-1.8-1.38-2.74-9.33-20.41-2.12-51,20.14-61.32-.06.86-.82,1.86-1.79,2.85-1.5,1.7-3.42,3.21-4.49,4.91-.16.49-.06.94.44,1.3.42-.13.98-.48,1.65-.99,2.12-1.92,3.86-3.56,5.26-4.81.03-.03.04-.05.06-.06,1.89-1.87,3.45-3.44,3.63-3.38,1.27.41-.49,2.8-2.52,5.36-1.04,1.67-2.41,3.81-4.13,6.46l7.31-5.66-4.81,9.56,7.85-6.45.79.54c-1.16,2.18-2.43,4.07-3.38,5.51-.03.03-.04.05-.05.07l-1.41,2.27c-.09.25-.14.42-.09.5.03.03.07.05.08.05.33.12,1.35-.36,3.42-1.6.02-.01.05-.02.06-.04,1.66-1.46,3.26-3.1,3.61-2.21Z"/>
      <path class="cls-3" d="M145.21,53.9c-.06-.04-.25-.1-.55-.18.3.29.59.58.88.85-.14-.38-.25-.62-.32-.67Z"/>
      <path class="cls-4" d="M153.07,60.96c-.07-1.5-2.94-5.91-4.41-7.33-.24-.23-.45-.39-.59-.43-.13.06-.2.15-.25.28-.15.4.13,1.12.63,1.97,0,.36.05.86.22,1.55.21.86-1.2-.53-3.14-2.43-.28-.28-.57-.56-.88-.85-2.93-2.84-6.6-6.19-7.91-5.1-.94.79.72,2.43,2.66,4.08,2.52,2.14,5.5,4.29,3.85,4.61-2.92.56-13.62-7.1-15.48-2.18,0,0,10.63,1.54,14.11,4.16,1.49,1.12,3.55,1.5,5.5,1.64,2.59.19,4.98-.04,5.5.48,0,0,0,0,0,0,0,0,0,0,0,0,0,0,0,0,0,0,.15.16.16.12.07-.06,0,0,0,0,0,0,.08-.08.12-.22.11-.41Z"/>
      <path class="cls-4" d="M127.01,23.6c-3.4-5.51,5.81,10.75,4.34,14.93-1.37-2.33-4.04-6.9-5.39-9.28-1.88-3.31,2.78,5.65,2.65,8.98-.03.73-.29,1.19-.9,1.19-1.22,0,4.48.55,4.48.55,0,0-.03-.06-.09-.15,2.32.24,5.49.52,5.49.52,0,0-.3-.47-.8-1.26-2-3.14-7.25-11.38-9.78-15.48Z"/>
      <path class="cls-4" d="M79.43,28.12c-1.79,2.35,7.11-2.98,9.77-2.15.43.14.7.43.73.95l3.17-7.33s-.93.47-2.32,1.2c-3.49,1.85-9.87,5.37-11.35,7.33Z"/>
      <path class="cls-4" d="M87.47,32.17c.47.27.76.68.71,1.32l.87-3.5s-.4,0-.99,0c-1.66.03-4.9.2-5.46,1.09-.6.93,3.23.15,4.87,1.09Z"/>
      <rect class="cls-4" x="1.03" y="120.79" width="220.13" height="2.87"/>
    </g>
  </g>
</svg>