<?xml version="1.0" encoding="UTF-8"?>
<svg id="Layer_2" data-name="Layer 2" xmlns="http://www.w3.org/2000/svg" viewBox="0 0 803.19 159.66">
  <defs>
    <style>
      .cls-1 {
        fill: #231f20;
        font-family: SuperComic, 'Super Comic';
        font-size: 70.14px;
      }
    </style>
  </defs>
  <g id="Layer_1-2" data-name="Layer 1">
    <text class="cls-1" transform="translate(352.52 68.05)"><tspan x="0" y="0">DUMPLING</tspan><tspan x="0" y="74">HUTT</tspan></text>
    <path d="M320.13,34.84c-1.78,12.98-16.1,24.17-30.95,25.04l-257.5.03C12.17,58.63-1.58,44.14.15,27.22h18.75c-1.5,15.12,12.88,17.73,27.09,16.25l14.79-24.68V0h38.12v16.33h122.49V0h38.12v18.78l13.81,23.9c.31.6.79.76,1.5.88,2.36.38,9.8.18,12.42-.07,9.91-.94,15.16-7.84,14.14-16.27h18.75c-.24,2.44.33,5.25,0,7.62Z"/>
    <path d="M221.39,76.22v59.89h-38.12v-27.49c0-.67-2.6-5.47-3.25-6.42-8.71-12.83-31.07-12.79-39.75,0-.65.95-3.25,5.75-3.25,6.42v27.49h-38.12v-59.89h122.49Z"/>
    <rect x="42.64" y="76.22" width="38.12" height="59.89"/>
    <rect x="239.51" y="76.22" width="38.12" height="59.89"/>
  </g>
</svg>