<?xml version="1.0" encoding="UTF-8"?>
<svg id="Layer_2" xmlns="http://www.w3.org/2000/svg" version="1.1" viewBox="0 0 803.2 159.7">
  <!-- Generator: Adobe Illustrator 30.0.0, SVG Export Plug-In . SVG Version: 2.1.1 Build 123)  -->
  <defs>
    <style>
      .st0 {
        isolation: isolate;
      }
    </style>
  </defs>
  <g id="Layer_1-2">
    <g>
      <g class="st0">
        <path d="M356.4,28.3c-.9,0-1.6-.3-2.1-1-.5-.7-.9-1.5-1.2-2.5-.3-1-.4-2-.5-3.1,0-1.1-.1-1.9-.1-2.6,0-1,0-1.8.2-2.6s.4-1.4.9-1.9c.5-.5,1.1-.9,1.9-1.1.8-.3,1.9-.4,3.2-.4,1.9,0,3.7,0,5.6,0,1.8,0,3.7.2,5.6.4,2.9.3,5.9.6,8.8.8,2.9.2,5.9.7,8.8,1.3,3.7.8,6.8,2,9.4,3.8,2.6,1.7,4.7,3.7,6.2,6.1,1.6,2.3,2.7,4.9,3.4,7.7s1.1,5.7,1.1,8.8-.6,7.2-1.8,10.1c-1.2,3-2.9,5.6-4.9,7.9-2.1,2.3-4.4,4.2-7.2,5.8-2.7,1.6-5.6,2.9-8.5,3.9-3,1-6,1.7-9.1,2.2-3.1.5-6,.7-8.8.7s-4.9-.7-6.6-2c-1.7-1.3-2.8-3.1-3.2-5.4-.3-1.5-.5-3.3-.7-5.4-.2-2-.3-4.1-.4-6.3,0-2.2-.2-4.4-.2-6.5,0-2.2,0-4.1,0-5.8s0-2.4,0-3.5c0-1.1,0-2.1,0-3.1s0-2,0-3c0-1,0-2.2,0-3.4ZM378.8,29.7c-1,0-1.8.2-2.3.7-.6.5-1,1.2-1.3,2.2-.3,1-.5,2.3-.6,3.8,0,1.5-.1,3.4-.1,5.5,0,4.3.3,7.5.9,9.6.6,2.2,1.8,3.3,3.8,3.3s2.5-.3,3.8-1c1.2-.7,2.3-1.6,3.3-2.9s1.8-2.8,2.3-4.5c.6-1.7.9-3.6.9-5.8,0-3.6-1-6.3-2.9-8.2-1.9-1.8-4.5-2.8-7.6-2.8Z"/>
        <path d="M447.9,15.9c1.6-.5,3.5-.9,5.7-1.2,2.2-.3,4.4-.4,6.6-.4s4.3.2,6.3.5c2,.3,3.5.8,4.7,1.5.9,2,1.5,4.6,1.8,7.8.2,3.2.4,6.7.4,10.5,0,6.9-.5,12.7-1.4,17.4-1,4.7-2.7,8.6-5.2,11.6-2.5,3-5.9,5.1-10.3,6.5-4.3,1.3-9.9,2-16.7,2s-6.6-.3-9.6-.8c-3-.6-5.6-1.5-8-2.9-2.4-1.4-4.4-3.2-6.1-5.6-1.7-2.3-3-5.3-4-8.8-.4-1.7-.7-3.6-.9-5.6-.2-2-.4-4.1-.4-6.2,0-2.1,0-4.2,0-6.2,0-2,0-3.9,0-5.7,0-3.6,0-6.9.3-9.6.2-2.8.9-5.1,2-7,1.3-.5,2.9-.8,4.8-1.1,1.9-.2,3.9-.4,6-.4s4.7.1,6.9.4c2.2.3,4.1.7,5.6,1.3.3.8.5,2,.5,3.6v5.8c0,1.9,0,3.7,0,5.4,0,1.7,0,3.4,0,5s0,3.3,0,5c0,1.7,0,3.5,0,5.4s0,1.8.3,2.7c.2.9.5,1.7.9,2.4.4.7,1,1.3,1.8,1.8.7.5,1.6.7,2.7.7s2.3-.3,3.1-.8c.8-.6,1.4-1.3,1.8-2.2.4-.9.7-1.9.9-3.1.1-1.1.2-2.3.2-3.5,0-3-.1-6.2-.4-9.6-.3-3.4-.4-6.5-.4-9.5s0-2.5-.1-3.5c0-1,0-2.1.5-3.4Z"/>
        <path d="M487,13.8c.9,0,2,0,3.1,0,1.1,0,2.3,0,3.4,0,1.1,0,2.3.2,3.4.3,1.1.2,2.1.4,2.9.8,1,.4,2,1.2,2.9,2.2.9,1.1,1.8,2.2,2.6,3.5.8,1.3,1.6,2.6,2.3,3.9.7,1.3,1.3,2.5,1.8,3.4.3.6.6,1.2.9,2,.3.8.7,1.4,1.1,1.9.6.7,1.3,1.1,2.1,1.1s1.3-.3,1.7-.8c.5-.6,1-1.3,1.4-2.1.4-.8.8-1.5,1.2-2.1.7-1.1,1.4-2.3,2.2-3.6.8-1.3,1.8-2.6,2.7-3.8,1-1.2,2-2.4,3.2-3.4,1.1-1,2.3-1.7,3.5-2.1.7-.2,1.5-.4,2.7-.5,1.1,0,2-.1,2.7-.1s1.1,0,1.9,0c.7,0,1.5.1,2.2.3.8.1,1.5.3,2.2.5.7.2,1.2.4,1.6.7.8.6,1.4,1.8,2,3.6.5,1.9.9,4.1,1.2,6.7.3,2.6.5,5.3.7,8.3s.3,5.8.4,8.6c0,2.8.1,5.3.1,7.5v5c0,.8,0,1.9,0,3.3,0,1.4,0,2.9-.1,4.3,0,1.5-.2,2.9-.3,4.3-.1,1.4-.3,2.4-.6,3-1.6.5-3.4.9-5.2,1.1-1.8.2-3.6.3-5.3.3s-2.9,0-4.5-.3c-1.6-.2-3-.6-4.3-1.2-.5-.7-.7-1.7-.8-2.8s-.1-2.1-.1-2.9v-6.7c0-2.1.1-4.2.3-6.2.2-2,.3-4,.3-6.1v-.8c0-.4,0-.7,0-1.1,0-.4-.1-.7-.2-1-.1-.3-.4-.4-.6-.4-.5,0-1.2.6-2.1,1.9-.9,1.3-1.8,2.8-2.8,4.4-1,1.7-1.9,3.3-2.7,4.8-.8,1.5-1.5,2.6-1.9,3.2-.5.3-1.1.5-1.6.6-.6,0-1.1.1-1.7.1s-1.4,0-2.1-.2c-.7-.1-1.4-.4-2-.8-.2-.3-.6-.9-1-1.7-.4-.8-.9-1.7-1.4-2.7-.5-1-1.1-2.1-1.7-3.2-.6-1.1-1.2-2.1-1.7-3-.6-.9-1.1-1.7-1.5-2.2s-.8-.9-1.1-.9-.6.1-.7.4c-.1.2-.2.5-.3.8s0,.7,0,1v.8c0,2.9,0,5.9.3,8.8.2,2.9.3,5.9.3,8.9s0,2.1,0,3.4-.2,2.4-.5,3.4c-1.3.4-2.6.6-4,.7-1.3,0-2.7.1-4,.1s-2,0-3.1,0c-1.1,0-2.3-.1-3.4-.3-1.1-.1-2.3-.3-3.4-.5-1.1-.2-2.1-.5-2.9-.8-.1-.4-.2-.8-.2-1.3,0-2.2,0-4.3.3-6.6.2-2.2.4-4.4.7-6.6.6-4.5.9-9.1,1.1-13.6.2-4.6.5-9.1,1-13.7-.4-.6-.9-.9-1.4-1-.5,0-1-.2-1.4-.4-.4-.2-.8-.6-1.1-1.3-.3-.7-.5-2-.5-4s.2-3.2.7-4.2c.5-1,1.2-1.7,2.1-2.1.9-.4,2-.7,3.2-.8,1.3,0,2.7-.1,4.2-.1Z"/>
        <path d="M571.6,70.4c-1.2.4-2.6.7-4.2,1-1.6.2-3.2.4-4.8.4s-3.2,0-4.6-.2c-1.5-.2-2.7-.4-3.7-.8-.6-.7-1-1.6-1.3-2.6-.3-1-.5-2.1-.6-3.3,0-1.2-.1-2.4-.1-3.7v-3.9c0-4.2,0-8.3.3-12.4.2-4.1.3-8.3.3-12.4s0-1.5,0-2.2c0-.7,0-1.5-.1-2.2,0-.4-.2-.8-.6-1.1-.3-.3-.7-.7-1-1.2s-.7-1.1-.9-1.9c-.3-.8-.4-1.9-.4-3.4s0-2.6.2-3.4c.1-.8.3-1.5.5-1.9.2-.5.5-.8.9-1,.4-.2.8-.4,1.3-.6.4-.2,1.1-.4,2.2-.5,1-.2,2.2-.3,3.4-.5,1.2-.1,2.4-.2,3.6-.3,1.2,0,2.1-.1,2.8-.1,3,0,6.1,0,9.2,0,3.1,0,6.1.3,9,.6,2.9.4,5.7,1,8.2,1.9,2.6.9,4.8,2.2,6.7,3.9,1.9,1.7,3.4,3.9,4.6,6.6,1.1,2.7,1.7,6.1,1.7,10.1s-.5,6.4-1.5,8.8c-1,2.3-2.3,4.2-3.9,5.7s-3.4,2.6-5.5,3.3-4.1,1.3-6.2,1.6c-2.1.3-4.2.5-6.2.5h-5.3c-.9,0-1.7,0-2.2.1-.5,0-.9.2-1.2.5s-.4.7-.5,1.2c0,.5-.1,1.2-.1,2.1s0,1.3,0,2.1c0,.8,0,1.7.1,2.6,0,.9,0,1.8.1,2.6,0,.8,0,1.5,0,2.1s-.1,1.4-.4,1.9ZM571.8,34.8c0,1.4,0,2.5.2,3.3.1.8.4,1.3.8,1.7.4.4,1,.6,1.8.7.8,0,1.8.1,3,.1s1.9,0,3-.3c1.1-.2,2.1-.5,3.1-1,.9-.5,1.7-1.2,2.4-2,.7-.9,1-2,1-3.3s-.1-1.4-.4-2.1c-.3-.7-.8-1.4-1.4-1.9-.7-.6-1.6-1-2.7-1.4-1.1-.4-2.5-.5-4.2-.5s-2.5,0-3.3.3c-.8.2-1.5.5-2,1.1-.5.5-.8,1.2-.9,2.1-.2.9-.2,2-.2,3.4Z"/>
        <path d="M609.6,13.3c1.4-.5,3.1-.8,4.9-1,1.8-.2,3.6-.2,5.4-.2s3.5.3,5.1.6c1.6.3,2.9.7,3.9,1.2.5.9.8,2,.9,3.1,0,1.1.1,2.3.1,3.5,0,2.1,0,4.3-.3,6.6-.2,2.4-.4,4.7-.6,7.1-.2,2.4-.4,4.7-.6,7.1-.2,2.3-.3,4.5-.3,6.5s0,1.9,0,2.6c0,.7.2,1.3.5,1.7.3.4.8.7,1.5.9.7.2,1.6.3,2.8.3s2.7-.1,3.9-.3c1.3-.2,2.5-.4,3.7-.7,1.2-.2,2.4-.5,3.6-.7,1.2-.2,2.5-.3,3.7-.3h.2c.8.8,1.5,1.9,2.1,3.1.5,1.2,1,2.6,1.3,4,.4,1.4.6,2.8.7,4.3.1,1.5.2,2.8.2,4.1-.4.3-.9.6-1.5.9-1.5.8-3.1,1.5-4.7,2.1-1.6.6-3.5,1-5.6,1.4-2.1.4-4.6.6-7.5.8-2.9.2-6.4.2-10.5.2s-5.9-.2-7.9-.7c-2-.4-3.8-1.3-5.2-2.5-.9-.8-1.6-1.9-2.1-3.3-.4-1.4-.8-3.2-.9-5.4-.2-2.2-.3-4.7-.2-7.7,0-2.9,0-6.3,0-10.1s0-2.5,0-4.1c0-1.6,0-3.3.1-5,0-1.8.1-3.6.2-5.5.1-1.9.3-3.6.5-5.3.2-1.7.4-3.2.7-4.6.3-1.4.5-2.5.9-3.3,0-.3.2-.5.4-.8.2-.3.3-.5.5-.7Z"/>
        <path d="M658,24.8c-.7-1.8-1.1-3.9-1.3-6.2-.2-2.4-.2-4.6.2-6.7,1.3-.4,2.9-.8,4.8-1,1.9-.3,4-.4,6.1-.5s4.1,0,6.1.1c1.9.1,3.5.4,4.8.9.1,1,.2,2.2.2,3.4s0,2.4-.1,3.6c0,1.2-.2,2.4-.5,3.6-.2,1.2-.4,2.2-.7,3.2-1.4.3-2.9.5-4.6.6-1.7.1-3.5.2-5.3.1-1.8,0-3.5-.1-5.2-.3-1.7-.2-3.2-.4-4.5-.8ZM658.1,29.3c.7-.3,1.5-.5,2.6-.7,1.1-.2,2.3-.3,3.6-.4,1.3,0,2.7-.2,4-.2,1.4,0,2.7,0,4,0,1.3,0,2.4.2,3.4.4,1,.2,1.8.4,2.3.6.2.2.3.5.4.8.6,2.5,1.1,5.3,1.6,8.5s.8,6.4,1.1,9.8c.3,3.4.6,6.7.8,10.1.2,3.3.4,6.4.5,9.3,0,.8-.2,1.5-.6,2-1.2.6-2.7,1.1-4.6,1.5-1.9.4-3.9.6-6,.7s-4.3,0-6.4-.1c-2.2-.2-4.1-.5-5.8-.9-.4-.5-.6-.9-.8-1.3-.4-1.8-.7-4.8-.8-9.1-.2-4.3-.3-9.6-.3-15.9s0-5.8.2-8c.1-2.2.3-4.2.7-6.1,0-.3,0-.5.2-.7Z"/>
        <path d="M738.8,68.5c-.4.5-1.2.8-2.3,1.1s-2.4.5-3.8.5c-1.4,0-2.9,0-4.3,0-1.5-.1-2.8-.4-4-.7-2.2-1.6-4.2-3.5-5.9-5.7-1.7-2.2-3.1-4.3-4.4-6.3-1.3-2-2.4-3.7-3.4-5.1-1-1.4-1.9-2.1-2.7-2.1s-1.2.1-1.4.4c-.2.3-.2.8-.2,1.7s0,2.1.2,3.2c.2,1.2.4,2.3.6,3.5.2,1.2.4,2.4.6,3.5.2,1.2.2,2.2.2,3.2s0,1.3-.1,1.9c0,.6-.4,1.2-.8,1.7-1.1.7-2.4,1.1-4,1.4-1.6.3-3.3.5-5,.6-1.7,0-3.4,0-5,0-1.6-.1-2.9-.3-4-.5-.4-.6-.7-1.1-.8-1.6-.2-.9-.4-2-.6-3.3-.2-1.2-.3-2.5-.5-3.8-.1-1.3-.2-2.5-.3-3.8,0-1.2-.1-2.3-.1-3.3,0-4.1,0-8.1.2-12s.6-7.7,1.4-11.5c0-.4.2-.6.2-.8s0-.3,0-.5c0-.6-.1-1-.4-1.2-.3-.3-.6-.5-.9-.7-.4-.2-.7-.4-1.1-.7-.4-.3-.6-.7-.9-1.2,0-.2-.2-.6-.2-1.1,0-.5-.1-.9-.2-1.4,0-.5,0-1-.1-1.4,0-.4,0-.8,0-1.1,0-2,.1-3.5.4-4.6.2-1.1.7-1.9,1.3-2.4.7-.5,1.5-.8,2.7-.9s2.5-.1,4.3-.1,2.8,0,4.2.1c1.4,0,2.8.1,4.2.1s2.5,0,3.8.2c1.3.1,2.5.6,3.5,1.4.7.6,1.5,1.5,2.2,2.9.7,1.4,1.4,3,2.1,4.8.7,1.8,1.3,3.6,2,5.6.6,1.9,1.3,3.7,1.9,5.3.7,1.6,1.3,2.9,1.9,4,.6,1,1.3,1.5,1.9,1.5s1-.4,1.2-1.1c.1-.7.2-1.4.2-2.2,0-2.9-.1-5.6-.3-8.2-.2-2.6-.3-5.3-.3-8.1s0-1.8.2-2.9c.1-1.1.5-1.9,1.2-2.5,1-.4,2.2-.7,3.5-.9,1.4-.2,2.8-.3,4.3-.3s3,.1,4.5.4c1.5.2,2.8.6,3.9,1,.8.7,1.4,1.5,1.7,2.4.5,1.3.9,2.8,1.2,4.5.3,1.7.5,3.4.6,5.2s.2,3.5.3,5.2c0,1.7,0,3.3,0,4.7s0,2.8,0,4.5c0,1.8,0,3.6-.2,5.6,0,2-.2,4-.4,6.1-.2,2.1-.4,4-.7,5.9-.3,1.9-.7,3.6-1.2,5.3-.5,1.6-1.1,2.9-1.8,4,0,0-.2.2-.2.2,0,0,0,.2-.2.2Z"/>
        <path d="M794.9,15.7c.7,1,1.1,2.2,1.4,3.6.3,1.4.4,2.8.3,4.2,0,1.5-.2,2.9-.5,4.2-.3,1.4-.6,2.6-1.1,3.5-1,.1-2.1.2-3.2.1-1.1,0-2.3-.1-3.5-.2-1.2-.1-2.6-.2-4-.4-1.4-.1-2.9-.2-4.5-.2-3.6,0-6.4.4-8.3,1.2-1.9.8-3.4,1.8-4.3,3.1-.9,1.3-1.4,2.7-1.6,4.2s-.2,3-.2,4.4,0,2.3.1,3.6c0,1.3.4,2.4.8,3.5s1.2,1.9,2.1,2.6c.9.7,2.2,1.1,3.9,1.1s3-.1,4.4-.4c1.4-.2,2.6-.6,3.6-1,1-.4,1.8-.9,2.5-1.6.6-.6.9-1.3.9-2.1s-.9-1.3-2.8-1.3-1.4,0-2,.2c-.6.2-1.1.3-1.6.5-.5.2-1,.4-1.5.5s-1.1.2-1.8.2h-.4c-.6-.8-1-1.7-1.4-2.6-.4-1-.6-1.9-.7-2.9-.1-1-.2-1.9,0-2.7.1-.9.4-1.6.7-2.1.9-.9,2.1-1.7,3.6-2.3s3-1.1,4.5-1.5c1.6-.4,3.1-.6,4.7-.8,1.6-.2,3-.2,4.2-.2s1.3,0,2.2.1,1.8.2,2.8.4c1,.2,1.9.4,2.7.7.9.3,1.5.7,1.9,1.2.7.7,1.2,1.6,1.6,2.7.4,1.1.7,2.3.9,3.6.2,1.3.4,2.7.5,4,0,1.4.1,2.7.1,4,0,14.4-9.5,21.7-28.5,21.7s-9.4-.7-12.8-2.2c-3.5-1.5-6.2-3.5-8.3-6.1-2.1-2.6-3.6-5.6-4.5-9.2s-1.4-7.3-1.4-11.4.6-8.4,1.9-12c1.2-3.7,3.1-6.8,5.6-9.5,2.5-2.7,5.6-4.8,9.3-6.3s8.1-2.3,13.1-2.3,3.9,0,5.8,0c1.9,0,3.7.2,5.3.3,1.7.2,3.1.4,4.4.7,1.3.3,2.3.7,3.1,1.1Z"/>
      </g>
      <g class="st0">
        <path d="M387.2,88.4c.4-.2,1.1-.4,2-.6.9-.2,2-.3,3.2-.4s2.4-.1,3.8-.1,2.6,0,3.8.1c1.2,0,2.3.2,3.3.5,1,.2,1.7.5,2.2.8,0,0,0,.2.1.2,0,0,0,0,.1.2.4.9.8,2.1,1.2,3.6.4,1.5.7,3.2,1,5.1.3,1.9.6,3.9.8,6.1.2,2.2.4,4.3.6,6.5.2,2.2.3,4.2.4,6.3s.1,3.9.1,5.5,0,3.2,0,5.2c0,2,0,4,0,6,0,2,0,4-.2,6-.1,1.9-.3,3.7-.7,5.2,0,.4-.2.7-.4,1.1-.2.3-.5.6-.8.7-1,.2-2.4.3-4.1.2-1.7,0-3.4-.3-5.2-.6-1.8-.3-3.4-.7-5-1.2-1.6-.5-2.9-1-3.8-1.5-.3-.6-.4-1.2-.4-1.8s0-1.9,0-3.1c0-1.2,0-2.4,0-3.6s0-2.4,0-3.6c0-1.2,0-2.2,0-3s0-1.5-.1-2c0-.5-.3-1-.7-1.3-.4-.3-.9-.5-1.6-.7-.7-.1-1.8-.2-3.1-.2s-2.7.1-3.5.4c-.9.2-1.5.6-2,1.1-.4.5-.7,1.1-.8,1.8-.1.7-.2,1.6-.2,2.6s0,1.7.1,2.7c0,1,.2,2.1.3,3.2.1,1.1.2,2.2.3,3.2,0,1,.1,2,.1,2.8s-.2,1.3-.6,1.8-.9.8-1.5,1.3c-.8.2-2,.5-3.5.7-1.5.2-3.1.3-4.8.4-1.7,0-3.3,0-4.8-.1-1.5-.1-2.7-.4-3.5-.9-.3-.3-.5-.6-.6-.8-.6-1.1-1.1-3-1.6-5.6-.5-2.6-.9-5.6-1.3-8.9-.4-3.3-.7-6.7-.9-10.2-.2-3.5-.4-6.7-.5-9.5v-4.2c0-1.6,0-3.3.1-4.9,0-1.7.1-3.3.2-5,0-1.6.2-3.1.3-4.3,0-.5.1-1,.2-1.5,0-.5.3-.9.7-1.3.7-.3,1.5-.5,2.7-.7,1.1-.2,2.3-.3,3.6-.4,1.3,0,2.7-.1,4-.1s2.7,0,3.9.1c1.2,0,2.3.2,3.2.4.9.2,1.5.4,1.8.6.4.5.7,1.1.8,1.8,0,.7.1,1.5.1,2.3s0,2.3,0,3.6c0,1.4-.1,2.7-.2,4.1,0,1.4-.1,2.8-.2,4.1,0,1.4,0,2.6,0,3.6s0,1.8.1,2.4c0,.6.3,1.1.7,1.5.4.4,1,.6,1.9.7.9.1,2.1.2,3.7.2s2.9,0,3.8-.2c.9-.1,1.6-.4,2.1-.8.5-.4.8-1,.9-1.7.1-.7.2-1.8.2-3.1s0-2-.1-3.1c0-1.1-.2-2.3-.4-3.5-.2-1.2-.3-2.4-.5-3.5-.2-1.2-.4-2.2-.5-3.2-.1-.9-.3-1.8-.4-2.8,0-1,0-1.7.4-2.2Z"/>
        <path d="M450.5,89.9c1.6-.5,3.5-.9,5.7-1.2,2.2-.3,4.4-.4,6.6-.4s4.3.2,6.3.5c2,.3,3.5.8,4.7,1.5.9,2,1.5,4.6,1.8,7.8.2,3.2.4,6.7.4,10.5,0,6.9-.5,12.7-1.4,17.4-1,4.7-2.7,8.6-5.2,11.6-2.5,3-5.9,5.1-10.3,6.5s-9.9,2-16.7,2-6.6-.3-9.6-.8c-3-.6-5.6-1.5-8-2.9-2.4-1.4-4.4-3.2-6.1-5.6-1.7-2.3-3-5.3-4-8.8-.4-1.7-.7-3.6-.9-5.6-.2-2-.4-4.1-.4-6.2,0-2.1,0-4.2,0-6.2s0-3.9,0-5.7c0-3.6,0-6.9.3-9.6s.9-5.1,2-7c1.3-.5,2.9-.8,4.8-1.1,1.9-.2,3.9-.4,6-.4s4.7.1,6.9.4c2.2.3,4.1.7,5.6,1.3.3.8.5,2,.5,3.6v5.8c0,1.9,0,3.7,0,5.4s0,3.4,0,5,0,3.3,0,5c0,1.7,0,3.5,0,5.4s0,1.8.3,2.7c.2.9.5,1.7.9,2.4.4.7,1,1.3,1.8,1.8.7.5,1.6.7,2.7.7s2.3-.3,3.1-.8c.8-.6,1.4-1.3,1.8-2.2.4-.9.7-1.9.9-3.1.1-1.1.2-2.3.2-3.5,0-3-.1-6.2-.4-9.6-.3-3.4-.4-6.5-.4-9.5s0-2.5-.1-3.5c0-1,0-2.1.5-3.4Z"/>
        <path d="M519.9,143.9c-2.1.7-4.2,1.1-6.4,1.4-2.2.3-4.3.5-6.2.5s-3.8-.2-5.6-.5c-1.7-.3-3.2-.8-4.5-1.5-.4-.7-.6-1.4-.7-2.2s0-1.6,0-2.6c0-2.5.1-4.8.3-6.9.2-2.1.5-4.1.7-6.1s.5-4,.7-6c.2-2,.3-4.3.3-6.8s0-1.4,0-2c0-.7-.2-1.3-.5-1.8-.3-.5-.8-1-1.4-1.3-.6-.3-1.5-.5-2.7-.5s-2.2,0-3.1.2c-.9.2-1.8.4-2.7.6-.9.2-1.8.4-2.7.6-.9.2-1.9.2-3.1.2s-.7,0-.8,0c-.7-1.4-1.4-3-1.8-4.8-.5-1.8-.8-3.7-.9-5.5-.1-1.8-.1-3.6,0-5.3.2-1.7.5-3,1-4,2.2-.7,4.4-1.2,6.6-1.7,2.2-.5,4.4-.9,6.6-1.2,2.3-.3,4.6-.5,7.1-.7,2.5-.1,5.1-.2,8-.2s5.5,0,7.9.2c2.4.1,4.7.4,6.9.7,2.2.3,4.3.7,6.3,1.2,2,.5,4.1,1.1,6.2,1.8.8,3.4,1.1,6.8,1,10.1-.1,3.3-1,6.8-2.6,10.5-1.5-.2-2.9-.4-4.1-.6-1.2-.2-2.3-.4-3.3-.6-1-.2-1.9-.3-2.8-.4-.8,0-1.7-.1-2.5-.1s-1.6.2-2,.5c-.5.3-.8.7-1,1.2-.2.5-.3,1-.3,1.5,0,.5,0,1,0,1.5,0,2.7,0,5.1.3,7.2.2,2.1.4,4,.7,5.8.3,1.8.5,3.6.8,5.4.3,1.8.5,3.7.7,5.8.1,1.9.3,3.3.4,4.2,0,.9-.1,1.7-.6,2.2Z"/>
        <path d="M580.5,143.9c-2.1.7-4.2,1.1-6.4,1.4-2.2.3-4.3.5-6.2.5s-3.8-.2-5.6-.5c-1.7-.3-3.2-.8-4.5-1.5-.4-.7-.6-1.4-.7-2.2s0-1.6,0-2.6c0-2.5.1-4.8.3-6.9.2-2.1.5-4.1.7-6.1s.5-4,.7-6c.2-2,.3-4.3.3-6.8s0-1.4,0-2c0-.7-.2-1.3-.5-1.8-.3-.5-.8-1-1.4-1.3-.6-.3-1.5-.5-2.7-.5s-2.2,0-3.1.2c-.9.2-1.8.4-2.7.6-.9.2-1.8.4-2.7.6-.9.2-1.9.2-3.1.2s-.7,0-.8,0c-.7-1.4-1.4-3-1.8-4.8-.5-1.8-.8-3.7-.9-5.5-.1-1.8-.1-3.6,0-5.3.2-1.7.5-3,1-4,2.2-.7,4.4-1.2,6.6-1.7,2.2-.5,4.4-.9,6.6-1.2,2.3-.3,4.6-.5,7.1-.7,2.5-.1,5.1-.2,8-.2s5.5,0,7.9.2c2.4.1,4.7.4,6.9.7,2.2.3,4.3.7,6.3,1.2,2,.5,4.1,1.1,6.2,1.8.8,3.4,1.1,6.8,1,10.1-.1,3.3-1,6.8-2.6,10.5-1.5-.2-2.9-.4-4.1-.6-1.2-.2-2.3-.4-3.3-.6-1-.2-1.9-.3-2.8-.4-.8,0-1.7-.1-2.5-.1s-1.6.2-2,.5c-.5.3-.8.7-1,1.2-.2.5-.3,1-.3,1.5,0,.5,0,1,0,1.5,0,2.7,0,5.1.3,7.2.2,2.1.4,4,.7,5.8.3,1.8.5,3.6.8,5.4.3,1.8.5,3.7.7,5.8.1,1.9.3,3.3.4,4.2,0,.9-.1,1.7-.6,2.2Z"/>
      </g>
    </g>
    <path d="M320.1,34.8c-1.8,13-16.1,24.2-31,25H31.7C12.2,58.6-1.6,44.1.2,27.2h18.7c-1.5,15.1,12.9,17.7,27.1,16.3l14.8-24.7V0h38.1v16.3h122.5V0h38.1v18.8l13.8,23.9c.3.6.8.8,1.5.9,2.4.4,9.8.2,12.4,0,9.9-.9,15.2-7.8,14.1-16.3h18.8c-.2,2.4.3,5.2,0,7.6Z"/>
    <path d="M221.4,76.2v59.9h-38.1v-27.5c0-.7-2.6-5.5-3.2-6.4-8.7-12.8-31.1-12.8-39.8,0-.6.9-3.2,5.8-3.2,6.4v27.5h-38.1v-59.9h122.5,0Z"/>
    <rect x="42.6" y="76.2" width="38.1" height="59.9"/>
    <rect x="239.5" y="76.2" width="38.1" height="59.9"/>
  </g>
</svg>