<?xml version="1.0" encoding="UTF-8"?>
<svg id="Layer_2" data-name="Layer 2" xmlns="http://www.w3.org/2000/svg" viewBox="0 0 832.55 237.27">
  <defs>
    <style>
      .cls-1 {
        letter-spacing: -.01em;
      }

      .cls-2, .cls-3 {
        fill: #fff;
      }

      .cls-4 {
        letter-spacing: 0em;
      }

      .cls-5 {
        letter-spacing: 0em;
      }

      .cls-6 {
        letter-spacing: -.02em;
      }

      .cls-3 {
        font-family: Tanker-Regular, Tanker;
        font-size: 133.14px;
      }

      .cls-7 {
        letter-spacing: -.02em;
      }

      .cls-8 {
        fill: #9b52a0;
      }

      .cls-9 {
        letter-spacing: -.02em;
      }
    </style>
  </defs>
  <g id="Layer_1-2" data-name="Layer 1">
    <g>
      <rect class="cls-8" x="11.15" y="11.15" width="203.94" height="214.97" rx="54.49" ry="54.49"/>
      <path d="M160.6,0h-94.96C29.45,0,0,29.45,0,65.64v105.99c0,36.19,29.45,65.64,65.64,65.64h94.96c36.19,0,65.64-29.45,65.64-65.64v-105.99C226.24,29.45,196.79,0,160.6,0ZM215.09,171.63c0,30.05-24.44,54.49-54.49,54.49h-94.96c-30.05,0-54.49-24.44-54.49-54.49v-105.99c0-30.05,24.44-54.49,54.49-54.49h94.96c30.05,0,54.49,24.44,54.49,54.49v105.99Z"/>
    </g>
    <ellipse class="cls-2" cx="103.28" cy="123.09" rx="52.8" ry="62.66"/>
    <text class="cls-3" transform="translate(552.43 164.33)"><tspan class="cls-6" x="0" y="0">T</tspan><tspan class="cls-5" x="47.66" y="0">uc</tspan><tspan class="cls-7" x="164.95" y="0">k</tspan><tspan class="cls-1" x="222.87" y="0">s</tspan></text>
    <text class="cls-3" transform="translate(249.04 162.56)"><tspan class="cls-9" x="0" y="0">F</tspan><tspan class="cls-4" x="49.79" y="0">RY</tspan><tspan x="164.96" y="0">ER</tspan></text>
    <g>
      <path d="M203.6,180.35c-1.79-1.51-11.04-6.49-11.4-7.06-.48-.77.33-2.09.27-3.18-.18-2.99-5.44-7.54-7.22-10.76-3.05-5.54-3.07-12.25-6.72-17.19-4.01-5.43-11.4-8.04-16.94-11.47,1.27-1.98,2.52-3.87,3.35-6.11,1.36-3.67,2.99-9.68,3.88-13.55,1.73-7.52,3.8-21.6-5.73-24.42,10.09-12.14,5.64-32.71-8.45-39.61-1.57-.77-3.5-.95-4.77-1.71-1.85-1.11-6.43-6.88-8.97-8.97-21.38-17.56-53.79-17.06-74.69.99-2.22,1.91-5.5,6.46-7.24,7.7-1.22.87-2.81.74-4.1,1.38-15.06,7.48-20.29,26.87-9.35,40.21-5.1.53-6.94,5.82-7.41,10.28-.78,7.38,2.73,20.81,5.28,27.97.81,2.27,2,3.77,3.12,5.81-6.96,4.18-15.21,7.32-18.66,15.23-1.77,4.06-2.1,8.7-4.16,12.78-1.73,3.43-7.63,8.38-7.61,11.37,0,1.03.82,2.47.33,3.24-.22.35-5.62,3.06-6.71,3.78-1.27.84-6.53,4.24-6.52,5.43,0,1.12,5.82,8.08,6.99,9.46,18.41,21.72,44.23,36.53,71.72,43.6h44.83l14.83-4.35c21.56-7.57,49.62-26.55,62.29-45.8,1.79-2.71,2.42-2.8-.25-5.06ZM159.23,93.22c1.55-1.5,3.89-.67,4.53,1.45,2.38,7.85-1.45,17.17-3.16,24.82-.91-.19-.93-.98-1.01-1.72-.68-6.06,2.01-12.11.51-18.2-1.57-.27-2.24,1.07-3.24,1.98-2.49.05,1.7-7.69,2.37-8.33ZM119.58,31.25c6.64,1.83,18.13,8.55,22.34,14.02.39.5.96.63.74,1.49-25.47,4.37-51.75,4.71-77.21,0,12.75-15.71,34.94-20.79,54.12-15.51ZM58,81.39c.63-5.64,1.92-11.14,2.99-16.69,2.42,3.23,5.26,5.14,9.46,4.98-1.84-3.94-.94-7.95.25-11.95,2.91,5.22,7.28,9.96,13.7,9.96-.34-1.31-.87-1.66-1.03-3.2-.15-1.4.14-3.06.04-4.51l.98-3.74c1.86,9.46,11.87,14.58,20.92,14.44-.36-1.61-1.66-2.16-2.38-3.84-.77-1.79-1.17-4.18-1.1-6.12,1.75,1.2,2.63,3.08,4.24,4.47,4.75,4.11,12.89,5.88,18.66,3.25-2.38.17-4.82-9.16-3.73-9.22,3.29,5.71,11.87,10.39,18.42,10.48,1.6.02-.78-2.92-1.21-4.28-.23-.71-1.16-3.44-.04-3.7,2.39,5.19,8.49,7.83,10.72,12.95,2.38,5.47,2.01,16.76,2.74,23.16,1.66,14.5,5.1,29.99,1.66,44.51-2.62,11.03-10.35,20.08-19.59,26.23l3.98.49c-16.46,19.92-50.1,20.2-66.73.5l2.97-1.49c-14.07-8.74-20.55-24.08-20.44-40.38.1-13.9,2.91-32.1,4.51-46.3ZM44.05,103.79c-.18-2.19-.49-10.81,2.25-11.22,2.33-1.28,6.4,6.24,6.19,7.21-.43,2-3.34-.76-3.96-.22-2.04,6.62,1.34,13.52.49,20.18-.09.69-.3,1.48-.99.74-1-5.53-3.53-11.06-3.98-16.7ZM81.63,207.18c-17.02-1.07-34.69-9.44-47.05-20.94,7.49,3.55,14.77,7.49,22.43,10.69,9.08,3.79,18.45,6.95,27.87,9.74-.15.88-2.59.55-3.26.51ZM46.02,172.05c-2.63-2.95-9.45-12.19-9.45-15.95v-7.22c1.49-.25.79.39,1.05,1.17,5.16,15.29,30.14,32.46,43.52,41.18,7.29,4.76,14.87,9.17,22.46,13.44,11.21-5.2,22.27-12.25,32.45-19.32,6.55-4.55,13.2-9.4,19.07-14.8,6.48-5.96,14.04-13.33,15.94-22.17.71-.14.66.96.75,1.48,2.65,15.22-17.12,30.6-28.39,37.88-12.56,8.11-26.41,13.92-39.86,20.38-19.63-9.93-42.62-19.32-57.55-36.06ZM124.24,207.15c-.12-.7.84-.68,1.36-.87,8.34-3.05,16.77-5.41,25.02-8.86,8.35-3.48,16.3-7.77,24.42-11.68-14,12.24-31.82,21.26-50.81,21.41Z"/>
      <path class="cls-2" d="M73.93,168.06l-2.97,1.49c16.64,19.7,50.27,19.42,66.73-.5l-3.98-.49c9.24-6.15,16.98-15.2,19.59-26.23,3.45-14.52,0-30.01-1.66-44.51-.73-6.4-.37-17.69-2.74-23.16-2.22-5.12-8.33-7.75-10.72-12.95-1.12.26-.19,2.99.04,3.7.43,1.36,2.81,4.3,1.21,4.28-6.55-.09-15.13-4.77-18.42-10.48-1.09.06,1.35,9.39,3.73,9.22-5.77,2.63-13.91.86-18.66-3.25-1.61-1.39-2.49-3.27-4.24-4.47-.07,1.94.32,4.34,1.1,6.12.72,1.68,2.02,2.22,2.38,3.84-9.05.14-19.06-4.97-20.92-14.44l-.98,3.74c.1,1.45-.18,3.11-.04,4.51.16,1.55.68,1.89,1.03,3.2-6.42,0-10.78-4.74-13.7-9.96-1.18,4-2.08,8.01-.25,11.95-4.2.17-7.04-1.75-9.46-4.98-1.06,5.55-2.36,11.05-2.99,16.69-1.59,14.2-4.41,32.4-4.51,46.3-.12,16.3,6.37,31.63,20.44,40.38ZM76.91,157.6l8.73,4.22c7.35,12.54,24.1,14.35,34.12,3.76,1.08-1.14,1.93-3.24,2.98-3.99,1.95-1.38,6.45-1.49,8.46-3.74-8.42,28.14-45.83,27.46-54.29-.24ZM124.86,140.93c-3.09,0-5.84.66-7.64,1.7-.56-.1-1.14-.16-1.75-.18-3.59-.07-8.24,1.4-11.42,1.45-1.77.03-3.68-.87-5.46-1-2.5-.19-5.59-.11-8.55.45-.88-1.43-3.19-2.45-5.91-2.45-.12,0-.24,0-.36,0,.7-1.01,1.45-1.77,1.98-1.92,1.29-.37,2.56.47,3.87.46,3.68-.03,7.14-1.79,11.41-1.48,6.57.48,12.08.43,19.06,1.25,1,.12,1.79-.67,3.14-.07.72.32,1.29.97,1.75,1.77-.04,0-.08,0-.12,0ZM104.54,151.85c-3.6.03-6.68,1.66-10.19-.99.36-2.12,3.38-2.83,5.21-3,2.39-.22,13.53-.49,14.21,2.27.81,3.29-8.21,1.71-9.23,1.71ZM132.98,100.04c-1.82.18-6.25,5.46-9.72,2.74l-7.42-5.04.44-1.42c1.53-.35,3.33-.96,4.86-1.11,5.27-.54,14.16.43,17.05,5.58-1.38,1.76-3.52-.93-5.21-.76ZM110.3,83.13c.74-.7,1.53,1.5,2.29,1.94.63.37,1.14.56,1.89.53,2.61-.1,7.88-3.48,11.56-3.91,7.92-.93,14.27,1.27,16.65,7.82-1.39-.2-2.94-.32-4.58-.32-3.9,0-7.32.65-9.25,1.63-1.77.21-3.65.66-5.75,1.39-2.8.98-6.71,4.1-9.47,3.27-3.51-1.06-5.18-10.6-3.33-12.35ZM82.51,81.77c4.98.6,12.51,6.73,14.84.86,2.3-1.61,3.82,7.94,3.8,8.75l-2.02,22.63c-1.02,0-3.8-.05-4.81.21-5.2,1.32-3.68,7.43-.05,7.89,0,.04,0,.09,0,.13,0,2.94,4.38,5.32,9.78,5.32s9.54-2.25,9.77-5.08c.81-.02,1.59-.18,2.25-.97,2.46-2.93-1.09-7.25-.79-7.51,3.99-.51,6.78,4.12,8.55,7.13,2.42,4.11,4.04,8.61,4.89,13.29l-8.71-8.38c-6.6,3.1-13.27,9.5-20.87,6.33-2.28-.95-8.84-6.11-10.5-5.94-1.31.14-8.08,8.28-8.73,7.49.52-4.76,3.67-8.5,5.57-12.61,1.06-2.3,1.43-5.09,2.62-7.35,1.51-2.87,4.99-4.54,5.09-8.27.03-1.1-1.69-6.63-2.57-6.64-3.49,3.45-6.88,5.59-11.66,3.18-1.64-.83-.8-3.17-2.78-2.93-.99.12-6.23,3.24-5.74,1,.09-.39,2.54-2.5,3.13-2.85,2.73-1.61,8.89-2.46,12.06-2.43,2,.02,3.78.91,5.72.79-2.09-1.82-4.98-3.32-8.02-4.25-.52-1.65-5.16-2.93-10.79-2.93-2.51,0-4.83.26-6.67.69,2.37-6.47,8.96-8.49,16.63-7.56Z"/>
      <path class="cls-2" d="M142.67,46.76c.22-.86-.36-.99-.74-1.49-4.21-5.46-15.7-12.19-22.34-14.02-19.18-5.28-41.37-.2-54.12,15.51,25.46,4.71,51.73,4.37,77.21,0Z"/>
      <path class="cls-2" d="M171.82,149.86c-.09-.52-.05-1.61-.75-1.48-1.9,8.84-9.45,16.21-15.94,22.17-5.87,5.4-12.52,10.25-19.07,14.8-10.18,7.07-21.24,14.11-32.45,19.32-7.59-4.27-15.17-8.68-22.46-13.44-13.38-8.73-38.36-25.89-43.52-41.18-.26-.78.44-1.42-1.05-1.17v7.22c0,3.76,6.82,13,9.45,15.95,14.93,16.74,37.91,26.13,57.55,36.06,13.45-6.45,27.3-12.26,39.86-20.38,11.27-7.28,31.04-22.66,28.39-37.88Z"/>
      <path class="cls-2" d="M34.58,186.24c12.36,11.5,30.03,19.87,47.05,20.94.66.04,3.11.37,3.26-.51-9.43-2.79-18.8-5.95-27.87-9.74-7.66-3.2-14.95-7.14-22.43-10.69Z"/>
      <path class="cls-2" d="M125.6,206.28c-.52.19-1.48.17-1.36.87,18.99-.15,36.81-9.17,50.81-21.41-8.13,3.92-16.08,8.2-24.42,11.68-8.25,3.44-16.68,5.8-25.02,8.86Z"/>
      <path class="cls-2" d="M49.02,119.75c.85-6.67-2.54-13.56-.49-20.18.63-.54,3.53,2.21,3.96.22.21-.97-3.86-8.5-6.19-7.21-2.74.42-2.43,9.04-2.25,11.22.46,5.63,2.99,11.16,3.98,16.7.7.74.91-.05.99-.74Z"/>
      <path class="cls-2" d="M156.87,101.55c1-.91,1.67-2.26,3.24-1.98,1.49,6.09-1.19,12.15-.51,18.2.08.75.1,1.54,1.01,1.72,1.71-7.65,5.54-16.98,3.16-24.82-.64-2.11-2.97-2.95-4.53-1.45-.67.64-4.85,8.38-2.37,8.33Z"/>
      <path d="M72.54,88.64c5.64,0,10.27,1.29,10.79,2.93,3.05.93,5.93,2.44,8.02,4.25-1.94.12-3.72-.77-5.72-.79-3.18-.03-9.34.82-12.06,2.43-.59.35-3.05,2.46-3.13,2.85-.49,2.24,4.75-.87,5.74-1,1.97-.24,1.14,2.1,2.78,2.93,4.77,2.41,8.16.27,11.66-3.18.87,0,2.6,5.54,2.57,6.64-.1,3.73-3.58,5.4-5.09,8.27-1.19,2.26-1.55,5.05-2.62,7.35-1.9,4.1-5.05,7.84-5.57,12.61.65.8,7.42-7.35,8.73-7.49,1.66-.17,8.22,4.99,10.5,5.94,7.6,3.16,14.27-3.23,20.87-6.33l8.71,8.38c-.85-4.68-2.48-9.18-4.89-13.29-1.77-3.02-4.56-7.65-8.55-7.13-.3.26,3.25,4.58.79,7.51-.66.79-1.44.95-2.25.97-.24,2.83-4.52,5.08-9.77,5.08s-9.78-2.38-9.78-5.32c0-.04,0-.09,0-.13-3.63-.46-5.14-6.57.05-7.89,1.01-.26,3.58-3.5,4.6-3.49l2.23-19.36c.02-.81-1.5-10.36-3.8-8.75-2.33,5.87-9.86-.26-14.84-.86-7.67-.93-14.26,1.09-16.63,7.56,1.84-.43,4.15-.69,6.67-.69Z"/>
      <path d="M117.19,156.16c-.74.53-1.34,2-2.1,2.8-7.04,7.44-18.81,6.17-23.97-2.64l-6.14-2.96c5.94,19.47,32.23,19.94,38.14.17-1.41,1.59-4.57,1.66-5.94,2.63Z"/>
      <path d="M126.7,167.36c-1.11.53-3.36,1.94-4.49,2.74-10.55,7.44-29.15,2.51-38.44-1.29l-8.29-5.37c8.91,19.47,48.3,19.94,57.17.17-2.12,1.59-3.9,2.78-5.95,3.75Z"/>
      <path d="M113.63,95.48c2.76.83,6.67-2.3,9.47-3.27,2.1-.73,3.98-1.18,5.75-1.39,1.93-.98,5.35-1.63,9.25-1.63,1.64,0,3.19.11,4.58.32-2.38-6.55-8.72-8.76-16.65-7.82-3.68.43-8.95,3.81-11.56,3.91-.75.03-1.25-.17-1.89-.53-.76-.44-1.55-2.63-2.29-1.94-1.85,1.74-.17,11.29,3.33,12.35Z"/>
      <path d="M123.23,139.16c-1.35-.6-2.15.18-3.14.07-6.98-.82-12.49-.77-19.06-1.25-4.27-.31-7.73,1.45-11.41,1.48-1.31.01-2.58-.82-3.87-.46-.54.15-1.29.92-1.98,1.92.12,0,.24,0,.36,0,2.71,0,5.03,1.02,5.91,2.45,2.95-.56,6.05-.64,8.55-.45,1.79.13,3.7,1.03,5.46,1,3.19-.06,7.83-1.52,11.42-1.45.61.01,1.19.07,1.75.18,1.8-1.04,4.55-1.7,7.64-1.7.04,0,.08,0,.12,0-.45-.8-1.02-1.45-1.75-1.77Z"/>
      <path d="M121.14,95.22c-1.54.16-3.33.76-4.86,1.11l-.44,1.42,6.24,4.23c3.47,2.72,7.75.35,8.85-3.12,1.69-.17,5.89,3.7,7.26,1.94-2.89-5.16-11.77-6.12-17.05-5.58Z"/>
      <path d="M100.97,147.48c-1.26.12-3.34.61-3.59,2.06,2.41,1.82,4.53.7,7.01.68.7,0,6.91,1.09,6.36-1.18-.47-1.9-8.14-1.72-9.79-1.56Z"/>
      <path d="M44.75,55s-13.5,19.89-6.62,41.88c6.88,21.99,2.27-7.42,4.14-6.69s8.22-7.5,8.22-7.5l-5.74-27.69Z"/>
      <path d="M162.16,55s14.84,18.91,9.49,41.33c-5.35,22.41-2.77-7.24-4.59-6.39s-8.71-6.91-8.71-6.91l3.81-28.02Z"/>
      <ellipse class="cls-2" cx="104.72" cy="137.94" rx="8.8" ry="2.13"/>
    </g>
    <path d="M5.57,182.15l4.84,2.01s52.16,36.77,55.05,37.35,89.67-9.8,92.55-10.38c2.88-.58,47.14-29.22,47.14-29.22,0,0,30.65,23.62-19.9,46.55-1.44.65-148.68-.03-148.68-.03,0,0-31.71-29.12-31-40.64"/>
    <path class="cls-2" d="M84.28,137.94s2.69,3.74,17.03,5.54c14.34,1.8-10.42,2.61-10.42,2.61l-17.96-2.74,11.35-5.4Z"/>
    <path class="cls-2" d="M124.09,137.94s-2.69,3.74-17.03,5.54c-14.34,1.8,10.42,2.61,10.42,2.61l17.96-2.74-11.35-5.4Z"/>
    <ellipse class="cls-2" cx="104.09" cy="123.02" rx="9.74" ry="6.48"/>
    <path d="M99.98,129.5s-6.47-2.86-4.57-10.01c-4.49,1.9-2.13,6.78-1.9,6.93s6.47,3.09,6.47,3.09Z"/>
    <path d="M41.22,153.36s2.1,20.48,63.15,57.01c5.44,3.26,60.74-47.95,60.14-50.99-.6-3.04-32.57,24.78-32.57,24.78l-19.33,12.6-25.12-6.03-46.28-37.37Z"/>
  </g>
</svg>