<?xml version="1.0" encoding="UTF-8"?>
<svg id="Layer_2" xmlns="http://www.w3.org/2000/svg" version="1.1" viewBox="0 0 832.5 237.3">
  <!-- Generator: Adobe Illustrator 30.0.0, SVG Export Plug-In . SVG Version: 2.1.1 Build 123)  -->
  <defs>
    <style>
      .st0 {
        fill: #fff;
      }

      .st1 {
        isolation: isolate;
      }

      .st2 {
        fill: #9b52a0;
      }
    </style>
  </defs>
  <g id="Layer_1-2">
    <g>
      <rect class="st2" x="11.1" y="11.1" width="203.9" height="215" rx="54.5" ry="54.5"/>
      <path d="M160.6,0h-95C29.5,0,0,29.5,0,65.6v106c0,36.2,29.5,65.6,65.6,65.6h95c36.2,0,65.6-29.4,65.6-65.6v-106C226.2,29.5,196.8,0,160.6,0ZM215.1,171.6c0,30.1-24.4,54.5-54.5,54.5h-95c-30,0-54.5-24.4-54.5-54.5v-106c0-30,24.4-54.5,54.5-54.5h95c30.1,0,54.5,24.4,54.5,54.5v106Z"/>
    </g>
    <ellipse class="st0" cx="103.3" cy="123.1" rx="52.8" ry="62.7"/>
    <g class="st1">
      <g class="st1">
        <path class="st0" d="M589.2,83.1c-1.9,0-2.4.5-2.4,2.4v73.9c0,3.9-1.1,4.9-4.9,4.9h-8.5c-3.9,0-4.9-1.1-4.9-4.9v-73.9c0-1.9-.5-2.4-2.4-2.4h-8.3c-3.9,0-4.9-1.1-4.9-4.9v-8.8c0-3.9,1.1-4.9,4.9-4.9h39.7c3.9,0,4.9,1.1,4.9,4.9v8.8c0,3.9-1.1,4.9-4.9,4.9h-8.3Z"/>
      </g>
      <g class="st1">
        <path class="st0" d="M643.1,64.5h8.5c3.9,0,4.9,1.1,4.9,4.9v67c0,21.4-6.4,29.3-25.7,29.3s-25.7-7.9-25.7-29.3v-67c0-3.9,1.1-4.9,4.9-4.9h8.5c3.9,0,4.9,1.1,4.9,4.9v70.2c0,5.3,2.3,7.5,7.3,7.5s7.3-2.1,7.3-7.5v-70.2c0-3.9,1.1-4.9,4.9-4.9Z"/>
        <path class="st0" d="M717.1,136.4c0,21.4-6.1,29.3-25.4,29.3s-25.7-7.9-25.7-29.3v-43.9c0-21.4,6.4-29.3,25.7-29.3s25.4,7.9,25.4,29.3v4c0,3.9-1.1,4.9-4.9,4.9h-8.5c-3.9,0-4.9-1.1-4.9-4.9v-7.2c0-5.3-2.3-7.5-6.9-7.5s-6.9,2.1-6.9,7.5v50.3c0,5.3,2.3,7.5,6.9,7.5s6.9-2.1,6.9-7.5v-7.2c0-3.9,1.1-4.9,4.9-4.9h8.5c3.9,0,4.9,1.1,4.9,4.9v4Z"/>
      </g>
      <g class="st1">
        <path class="st0" d="M748,123.9l-5.7,10.5c-.7,1.3-.8,1.9-.8,3.5v21.6c0,3.9-1.1,4.9-4.9,4.9h-8.5c-3.9,0-4.9-1.1-4.9-4.9v-90c0-3.9,1.1-4.9,4.9-4.9h8.3c3.9,0,4.9,1.1,4.9,4.9v28.5c0,1.1.4,1.3,1.1,1.3s.9-.1,1.3-1.1l13.7-28.8c2.1-4.4,3.1-4.9,8.1-4.9h8.3c3.9,0,4.7,2,3.1,5.2l-15.4,30.8c-.8,1.5-.8,2.1-.3,3.7l16.8,54.6c1.1,3.6-.1,5.6-3.7,5.6h-8.1c-4,0-5.3-1.1-6.4-4.7l-9.9-35.5c-.3-1.1-1.2-1.2-1.7-.3Z"/>
      </g>
      <g class="st1">
        <path class="st0" d="M818.7,115.5c8.9,8,10.9,12.8,10.9,21.7v2.4c0,16.8-6.4,26.1-25.7,26.1s-25.7-7.9-25.7-29.3v-2.7c0-3.9,1.1-4.9,4.9-4.9h9.1c3.9,0,4.9,1.1,4.9,4.9v5.9c0,5.3,2.1,7.5,6.8,7.5s6.8-2,6.8-6.8v-2.5c0-3.7-.8-5.6-5.7-10l-16-14.2c-8.9-7.9-10.8-12.4-10.8-21.3v-2.9c0-16.8,6.4-26.1,25.7-26.1s25.7,7.9,25.7,29.3v2.7c0,3.9-1.1,4.9-4.9,4.9h-9.1c-3.9,0-4.9-1.1-4.9-4.9v-5.9c0-5.3-2.1-7.5-6.8-7.5s-6.8,2-6.8,6.8v2.3c0,3.9.8,5.7,4.5,9.2l17,15.4Z"/>
      </g>
    </g>
    <g class="st1">
      <g class="st1">
        <path class="st0" d="M273.1,157.6c0,3.9-1.1,4.9-4.9,4.9h-8.5c-3.9,0-4.9-1.1-4.9-4.9v-90c0-3.9,1.1-4.9,4.9-4.9h35.8c3.9,0,4.9,1.1,4.9,4.9v8.8c0,3.9-1.1,4.9-4.9,4.9h-20c-1.9,0-2.4.5-2.4,2.4v17.3c0,1.7.5,2.4,2.4,2.4h14.4c3.9,0,4.9,1.1,4.9,4.9v8.8c0,3.9-1.1,4.9-4.7,4.9h-14.6c-1.9,0-2.4.5-2.4,2.4v33.2Z"/>
      </g>
      <g class="st1">
        <path class="st0" d="M337.8,142.1c0-4.7-.3-6.1-2.3-9.7l-3.2-5.7c-1.5-2.4-2.3-2.8-4.7-2.8h-2.4c-1.9,0-2.4.5-2.4,2.4v31.4c0,3.9-1.1,4.9-4.9,4.9h-8.5c-3.9,0-4.9-1.1-4.9-4.9v-90c0-3.9,1.1-4.9,4.9-4.9h17.6c20.2,0,29.4,6.9,29.4,24v9.6c0,9.6-1.5,15.8-6.9,20.2-.7.4-.8.8-.8,1.2s.1.8.5,1.5l3.7,6.8c2.8,5.2,3.2,7.3,3.2,14.4v17.3c0,3.9-1.1,4.9-4.9,4.9h-8.5c-3.9,0-4.9-1.1-4.9-4.9v-15.6ZM322.9,103.2c0,1.9.5,2.4,2.4,2.4h2.8c6.3,0,9.5-2.8,9.5-9.2v-6.9c0-6.3-2.9-8.8-9.5-8.8h-2.8c-1.9,0-2.4.5-2.4,2.4v20.1Z"/>
        <path class="st0" d="M383.1,162.6c-3.9,0-4.9-1.1-4.9-4.9v-24.2c0-1.9-.1-2.8-.8-4.4l-12.8-30.2c-3.1-7.1-3.5-10.5-3.5-20.6v-10.5c0-3.9,1.1-4.9,4.9-4.9h9.1c3.9,0,4.9,1.1,4.9,4.9v13.7c0,3.1.1,4.8,1.1,8l4.5,16.4c.4,1.3.7,1.6,1.6,1.6s1.2-.3,1.6-1.6l4.5-16.4c.9-3.2,1.1-4.9,1.1-8v-13.7c0-3.9,1.1-4.9,4.9-4.9h9.1c3.9,0,4.9,1.1,4.9,4.9v10.5c0,10.1-.4,13.6-3.5,20.6l-12.8,30.2c-.7,1.6-.8,2.5-.8,4.4v24.2c0,3.9-1.1,4.9-4.9,4.9h-8.3Z"/>
      </g>
      <g class="st1">
        <path class="st0" d="M438.1,98.7c0,1.7.5,2.4,2.4,2.4h16.5c3.9,0,4.9,1.1,4.9,4.9v8.8c0,3.9-1.1,4.9-4.7,4.9h-16.8c-1.9,0-2.4.5-2.4,2.4v19.4c0,1.7.5,2.4,2.4,2.4h18.1c3.9,0,4.9,1.1,4.9,4.9v8.8c0,3.9-1.1,4.9-4.9,4.9h-33.9c-3.9,0-4.9-1.1-4.9-4.9v-90c0-3.9,1.1-4.9,4.9-4.9h33.9c3.9,0,4.9,1.1,4.9,4.9v8.8c0,3.9-1.1,4.9-4.9,4.9h-18.1c-1.9,0-2.4.5-2.4,2.4v14.9Z"/>
        <path class="st0" d="M505.3,142.1c0-4.7-.3-6.1-2.3-9.7l-3.2-5.7c-1.5-2.4-2.3-2.8-4.7-2.8h-2.4c-1.9,0-2.4.5-2.4,2.4v31.4c0,3.9-1.1,4.9-4.9,4.9h-8.5c-3.9,0-4.9-1.1-4.9-4.9v-90c0-3.9,1.1-4.9,4.9-4.9h17.6c20.2,0,29.4,6.9,29.4,24v9.6c0,9.6-1.5,15.8-6.9,20.2-.7.4-.8.8-.8,1.2s.1.8.5,1.5l3.7,6.8c2.8,5.2,3.2,7.3,3.2,14.4v17.3c0,3.9-1.1,4.9-4.9,4.9h-8.5c-3.9,0-4.9-1.1-4.9-4.9v-15.6ZM490.4,103.2c0,1.9.5,2.4,2.4,2.4h2.8c6.3,0,9.5-2.8,9.5-9.2v-6.9c0-6.3-2.9-8.8-9.5-8.8h-2.8c-1.9,0-2.4.5-2.4,2.4v20.1Z"/>
      </g>
    </g>
    <g>
      <path d="M203.6,180.4c-1.8-1.5-11-6.5-11.4-7.1-.5-.8.3-2.1.3-3.2-.2-3-5.4-7.5-7.2-10.8-3.1-5.5-3.1-12.2-6.7-17.2-4-5.4-11.4-8-16.9-11.5,1.3-2,2.5-3.9,3.4-6.1,1.4-3.7,3-9.7,3.9-13.6,1.7-7.5,3.8-21.6-5.7-24.4,10.1-12.1,5.6-32.7-8.4-39.6-1.6-.8-3.5-1-4.8-1.7-1.9-1.1-6.4-6.9-9-9-21.4-17.6-53.8-17.1-74.7,1-2.2,1.9-5.5,6.5-7.2,7.7-1.2.9-2.8.7-4.1,1.4-15.1,7.5-20.3,26.9-9.3,40.2-5.1.5-6.9,5.8-7.4,10.3-.8,7.4,2.7,20.8,5.3,28,.8,2.3,2,3.8,3.1,5.8-7,4.2-15.2,7.3-18.7,15.2-1.8,4.1-2.1,8.7-4.2,12.8-1.7,3.4-7.6,8.4-7.6,11.4,0,1,.8,2.5.3,3.2-.2.4-5.6,3.1-6.7,3.8-1.3.8-6.5,4.2-6.5,5.4,0,1.1,5.8,8.1,7,9.5,18.4,21.7,44.2,36.5,71.7,43.6h44.8l14.8-4.4c21.6-7.6,49.6-26.6,62.3-45.8,1.8-2.7,2.4-2.8-.2-5.1h0ZM159.2,93.2c1.6-1.5,3.9-.7,4.5,1.4,2.4,7.8-1.4,17.2-3.2,24.8-.9-.2-.9-1-1-1.7-.7-6.1,2-12.1.5-18.2-1.6-.3-2.2,1.1-3.2,2-2.5,0,1.7-7.7,2.4-8.3h0ZM119.6,31.2c6.6,1.8,18.1,8.5,22.3,14,.4.5,1,.6.7,1.5-25.5,4.4-51.8,4.7-77.2,0,12.8-15.7,34.9-20.8,54.1-15.5h0ZM58,81.4c.6-5.6,1.9-11.1,3-16.7,2.4,3.2,5.3,5.1,9.5,5-1.8-3.9-.9-8,.2-12,2.9,5.2,7.3,10,13.7,10-.3-1.3-.9-1.7-1-3.2-.2-1.4.1-3.1,0-4.5l1-3.7c1.9,9.5,11.9,14.6,20.9,14.4-.4-1.6-1.7-2.2-2.4-3.8-.8-1.8-1.2-4.2-1.1-6.1,1.8,1.2,2.6,3.1,4.2,4.5,4.8,4.1,12.9,5.9,18.7,3.2-2.4.2-4.8-9.2-3.7-9.2,3.3,5.7,11.9,10.4,18.4,10.5,1.6,0-.8-2.9-1.2-4.3-.2-.7-1.2-3.4,0-3.7,2.4,5.2,8.5,7.8,10.7,13,2.4,5.5,2,16.8,2.7,23.2,1.7,14.5,5.1,30,1.7,44.5-2.6,11-10.4,20.1-19.6,26.2l4,.5c-16.5,19.9-50.1,20.2-66.7.5l3-1.5c-14.1-8.7-20.5-24.1-20.4-40.4,0-13.9,2.9-32.1,4.5-46.3h0ZM44,103.8c-.2-2.2-.5-10.8,2.2-11.2,2.3-1.3,6.4,6.2,6.2,7.2-.4,2-3.3-.8-4-.2-2,6.6,1.3,13.5.5,20.2,0,.7-.3,1.5-1,.7-1-5.5-3.5-11.1-4-16.7h0ZM81.6,207.2c-17-1.1-34.7-9.4-47-20.9,7.5,3.6,14.8,7.5,22.4,10.7,9.1,3.8,18.5,6.9,27.9,9.7-.2.9-2.6.6-3.3.5h0ZM46,172.1c-2.6-2.9-9.5-12.2-9.5-15.9v-7.2c1.5-.2.8.4,1,1.2,5.2,15.3,30.1,32.5,43.5,41.2,7.3,4.8,14.9,9.2,22.5,13.4,11.2-5.2,22.3-12.2,32.5-19.3,6.6-4.6,13.2-9.4,19.1-14.8,6.5-6,14-13.3,15.9-22.2.7-.1.7,1,.8,1.5,2.6,15.2-17.1,30.6-28.4,37.9-12.6,8.1-26.4,13.9-39.9,20.4-19.6-9.9-42.6-19.3-57.5-36.1h0ZM124.2,207.1c-.1-.7.8-.7,1.4-.9,8.3-3.1,16.8-5.4,25-8.9,8.4-3.5,16.3-7.8,24.4-11.7-14,12.2-31.8,21.3-50.8,21.4h0Z"/>
      <path class="st0" d="M73.9,168.1l-3,1.5c16.6,19.7,50.3,19.4,66.7-.5l-4-.5c9.2-6.1,17-15.2,19.6-26.2,3.4-14.5,0-30-1.7-44.5-.7-6.4-.4-17.7-2.7-23.2-2.2-5.1-8.3-7.8-10.7-13-1.1.3-.2,3,0,3.7.4,1.4,2.8,4.3,1.2,4.3-6.6,0-15.1-4.8-18.4-10.5-1.1,0,1.3,9.4,3.7,9.2-5.8,2.6-13.9.9-18.7-3.2-1.6-1.4-2.5-3.3-4.2-4.5,0,1.9.3,4.3,1.1,6.1.7,1.7,2,2.2,2.4,3.8-9.1.1-19.1-5-20.9-14.4l-1,3.7c0,1.5-.2,3.1,0,4.5.2,1.6.7,1.9,1,3.2-6.4,0-10.8-4.7-13.7-10-1.2,4-2.1,8-.2,11.9-4.2.2-7-1.8-9.5-5-1.1,5.6-2.4,11.1-3,16.7-1.6,14.2-4.4,32.4-4.5,46.3-.1,16.3,6.4,31.6,20.4,40.4h0ZM76.9,157.6l8.7,4.2c7.3,12.5,24.1,14.4,34.1,3.8,1.1-1.1,1.9-3.2,3-4,1.9-1.4,6.5-1.5,8.5-3.7-8.4,28.1-45.8,27.5-54.3-.2h0ZM124.9,140.9c-3.1,0-5.8.7-7.6,1.7-.6-.1-1.1-.2-1.8-.2-3.6,0-8.2,1.4-11.4,1.4-1.8,0-3.7-.9-5.5-1-2.5-.2-5.6-.1-8.6.4-.9-1.4-3.2-2.4-5.9-2.4h-.4c.7-1,1.4-1.8,2-1.9,1.3-.4,2.6.5,3.9.5,3.7,0,7.1-1.8,11.4-1.5,6.6.5,12.1.4,19.1,1.2,1,.1,1.8-.7,3.1,0,.7.3,1.3,1,1.8,1.8h-.1ZM104.5,151.9c-3.6,0-6.7,1.7-10.2-1,.4-2.1,3.4-2.8,5.2-3,2.4-.2,13.5-.5,14.2,2.3.8,3.3-8.2,1.7-9.2,1.7h0ZM133,100c-1.8.2-6.2,5.5-9.7,2.7l-7.4-5,.4-1.4c1.5-.3,3.3-1,4.9-1.1,5.3-.5,14.2.4,17.1,5.6-1.4,1.8-3.5-.9-5.2-.8h0ZM110.3,83.1c.7-.7,1.5,1.5,2.3,1.9.6.4,1.1.6,1.9.5,2.6,0,7.9-3.5,11.6-3.9,7.9-.9,14.3,1.3,16.7,7.8-1.4-.2-2.9-.3-4.6-.3-3.9,0-7.3.7-9.2,1.6-1.8.2-3.7.7-5.8,1.4-2.8,1-6.7,4.1-9.5,3.3-3.5-1.1-5.2-10.6-3.3-12.3h0ZM82.5,81.8c5,.6,12.5,6.7,14.8.9,2.3-1.6,3.8,7.9,3.8,8.8l-2,22.6c-1,0-3.8,0-4.8.2-5.2,1.3-3.7,7.4,0,7.9h0c0,3.1,4.4,5.4,9.8,5.4s9.5-2.2,9.8-5.1c.8,0,1.6-.2,2.2-1,2.5-2.9-1.1-7.2-.8-7.5,4-.5,6.8,4.1,8.6,7.1,2.4,4.1,4,8.6,4.9,13.3l-8.7-8.4c-6.6,3.1-13.3,9.5-20.9,6.3-2.3-.9-8.8-6.1-10.5-5.9-1.3.1-8.1,8.3-8.7,7.5.5-4.8,3.7-8.5,5.6-12.6,1.1-2.3,1.4-5.1,2.6-7.3,1.5-2.9,5-4.5,5.1-8.3,0-1.1-1.7-6.6-2.6-6.6-3.5,3.4-6.9,5.6-11.7,3.2-1.6-.8-.8-3.2-2.8-2.9-1,.1-6.2,3.2-5.7,1,0-.4,2.5-2.5,3.1-2.8,2.7-1.6,8.9-2.5,12.1-2.4,2,0,3.8.9,5.7.8-2.1-1.8-5-3.3-8-4.2-.5-1.7-5.2-2.9-10.8-2.9s-4.8.3-6.7.7c2.4-6.5,9-8.5,16.6-7.6h0Z"/>
      <path class="st0" d="M142.7,46.8c.2-.9-.4-1-.7-1.5-4.2-5.5-15.7-12.2-22.3-14-19.2-5.3-41.4-.2-54.1,15.5,25.5,4.7,51.7,4.4,77.2,0h0Z"/>
      <path class="st0" d="M171.8,149.9c0-.5,0-1.6-.8-1.5-1.9,8.8-9.4,16.2-15.9,22.2-5.9,5.4-12.5,10.2-19.1,14.8-10.2,7.1-21.2,14.1-32.4,19.3-7.6-4.3-15.2-8.7-22.5-13.4-13.4-8.7-38.4-25.9-43.5-41.2-.3-.8.4-1.4-1-1.2v7.2c0,3.8,6.8,13,9.5,15.9,14.9,16.7,37.9,26.1,57.5,36.1,13.4-6.4,27.3-12.3,39.9-20.4,11.3-7.3,31-22.7,28.4-37.9h0Z"/>
      <path class="st0" d="M34.6,186.2c12.4,11.5,30,19.9,47.1,20.9.7,0,3.1.4,3.3-.5-9.4-2.8-18.8-5.9-27.9-9.7-7.7-3.2-15-7.1-22.4-10.7h0Z"/>
      <path class="st0" d="M125.6,206.3c-.5.2-1.5.2-1.4.9,19-.1,36.8-9.2,50.8-21.4-8.1,3.9-16.1,8.2-24.4,11.7-8.2,3.4-16.7,5.8-25,8.9h0Z"/>
      <path class="st0" d="M49,119.7c.8-6.7-2.5-13.6-.5-20.2.6-.5,3.5,2.2,4,.2.2-1-3.9-8.5-6.2-7.2-2.7.4-2.4,9-2.2,11.2.5,5.6,3,11.2,4,16.7.7.7.9,0,1-.7h0Z"/>
      <path class="st0" d="M156.9,101.6c1-.9,1.7-2.3,3.2-2,1.5,6.1-1.2,12.2-.5,18.2,0,.8.1,1.5,1,1.7,1.7-7.7,5.5-17,3.2-24.8-.6-2.1-3-2.9-4.5-1.4-.7.6-4.9,8.4-2.4,8.3h0Z"/>
      <path d="M72.5,88.6c5.6,0,10.3,1.3,10.8,2.9,3.1.9,5.9,2.4,8,4.2-1.9.1-3.7-.8-5.7-.8-3.2,0-9.3.8-12.1,2.4-.6.3-3.1,2.5-3.1,2.8-.5,2.2,4.8-.9,5.7-1,2-.2,1.1,2.1,2.8,2.9,4.8,2.4,8.2.3,11.7-3.2.9,0,2.6,5.5,2.6,6.6,0,3.7-3.6,5.4-5.1,8.3-1.2,2.3-1.6,5.1-2.6,7.3-1.9,4.1-5.1,7.8-5.6,12.6.7.8,7.4-7.3,8.7-7.5,1.7-.2,8.2,5,10.5,5.9,7.6,3.2,14.3-3.2,20.9-6.3l8.7,8.4c-.8-4.7-2.5-9.2-4.9-13.3-1.8-3-4.6-7.7-8.6-7.1-.3.3,3.2,4.6.8,7.5-.7.8-1.4.9-2.2,1-.2,2.8-4.5,5.1-9.8,5.1s-9.8-2.4-9.8-5.3h0c-3.6-.6-5.1-6.7,0-8,1-.3,3.6-3.5,4.6-3.5l2.2-19.4c0-.8-1.5-10.4-3.8-8.8-2.3,5.9-9.9-.3-14.8-.9-7.7-.9-14.3,1.1-16.6,7.6,1.8-.4,4.2-.7,6.7-.7h0Z"/>
      <path d="M117.2,156.2c-.7.5-1.3,2-2.1,2.8-7,7.4-18.8,6.2-24-2.6l-6.1-3c5.9,19.5,32.2,19.9,38.1.2-1.4,1.6-4.6,1.7-5.9,2.6h0Z"/>
      <path d="M126.7,167.4c-1.1.5-3.4,1.9-4.5,2.7-10.6,7.4-29.2,2.5-38.4-1.3l-8.3-5.4c8.9,19.5,48.3,19.9,57.2.2-2.1,1.6-3.9,2.8-5.9,3.8h0Z"/>
      <path d="M113.6,95.5c2.8.8,6.7-2.3,9.5-3.3,2.1-.7,4-1.2,5.8-1.4,1.9-1,5.4-1.6,9.2-1.6s3.2.1,4.6.3c-2.4-6.6-8.7-8.8-16.7-7.8-3.7.4-8.9,3.8-11.6,3.9-.8,0-1.2-.2-1.9-.5-.8-.4-1.6-2.6-2.3-1.9-1.8,1.7-.2,11.3,3.3,12.3h0Z"/>
      <path d="M123.2,139.2c-1.3-.6-2.2.2-3.1,0-7-.8-12.5-.8-19.1-1.2-4.3-.3-7.7,1.4-11.4,1.5-1.3,0-2.6-.8-3.9-.5-.5.1-1.3.9-2,1.9h.4c2.7,0,5,1,5.9,2.4,2.9-.6,6.1-.6,8.6-.4,1.8.1,3.7,1,5.5,1,3.2,0,7.8-1.5,11.4-1.4.6,0,1.2,0,1.8.2,1.8-1,4.6-1.7,7.6-1.7h.1c-.4-.8-1-1.4-1.8-1.8h0Z"/>
      <path d="M121.1,95.2c-1.5.2-3.3.8-4.9,1.1l-.4,1.4,6.2,4.2c3.5,2.7,7.7.3,8.8-3.1,1.7-.2,5.9,3.7,7.3,1.9-2.9-5.2-11.8-6.1-17.1-5.6h0Z"/>
      <path d="M101,147.5c-1.3.1-3.3.6-3.6,2.1,2.4,1.8,4.5.7,7,.7.7,0,6.9,1.1,6.4-1.2-.5-1.9-8.1-1.7-9.8-1.6h0Z"/>
      <path d="M44.8,55s-13.5,19.9-6.6,41.9c6.9,22,2.3-7.4,4.1-6.7s8.2-7.5,8.2-7.5l-5.7-27.7Z"/>
      <path d="M162.2,55s14.8,18.9,9.5,41.3c-5.4,22.4-2.8-7.2-4.6-6.4s-8.7-6.9-8.7-6.9l3.8-28h0Z"/>
      <ellipse class="st0" cx="104.7" cy="137.9" rx="8.8" ry="2.1"/>
    </g>
    <path d="M5.6,182.1l4.8,2s52.2,36.8,55,37.3,89.7-9.8,92.6-10.4,47.1-29.2,47.1-29.2c0,0,30.6,23.6-19.9,46.6-1.4.6-148.7,0-148.7,0,0,0-31.7-29.1-31-40.6"/>
    <path class="st0" d="M84.3,137.9s2.7,3.7,17,5.5c14.3,1.8-10.4,2.6-10.4,2.6l-18-2.7,11.3-5.4h0Z"/>
    <path class="st0" d="M124.1,137.9s-2.7,3.7-17,5.5c-14.3,1.8,10.4,2.6,10.4,2.6l18-2.7-11.3-5.4h0Z"/>
    <ellipse class="st0" cx="104.1" cy="123" rx="9.7" ry="6.5"/>
    <path d="M100,129.5s-6.5-2.9-4.6-10c-4.5,1.9-2.1,6.8-1.9,6.9s6.5,3.1,6.5,3.1h0Z"/>
    <path d="M41.2,153.4s2.1,20.5,63.2,57c5.4,3.3,60.7-47.9,60.1-51-.6-3-32.6,24.8-32.6,24.8l-19.3,12.6-25.1-6-46.3-37.4h0Z"/>
  </g>
</svg>