<?xml version="1.0" encoding="UTF-8"?>
<svg id="Layer_2" data-name="Layer 2" xmlns="http://www.w3.org/2000/svg" viewBox="0 0 157.1 53.28">
  <defs>
    <style>
      .cls-1 {
        fill: #794531;
      }

      .cls-2 {
        fill: #010101;
      }
    </style>
  </defs>
  <g id="Layer_1-2" data-name="Layer 1">
    <g>
      <g>
        <path class="cls-1" d="M9.68,5.17l4.22,10.8c2-.3,4.11-.45,6.27-.45,4,0,7.83.53,11.12,1.52l1.06-7.62c.13-.46.2-.94.2-1.42,0-4.42-5.62-8.01-12.55-8.01S7.44,3.58,7.44,8.01c0,.42.05.84.15,1.25l.97,7.95c.78-.25,1.59-.47,2.42-.67l-1.3-11.36Z"/>
        <path class="cls-1" d="M34.51,18.94c-3.83-1.8-8.92-2.79-14.35-2.79s-10.52.99-14.35,2.79c-3.75,1.76-5.82,4.07-5.82,6.51s2.07,4.75,5.82,6.51c.52.25,1.07.47,1.64.69.24-8.09,5.59-14.56,12.16-14.56s12.09,6.68,12.16,14.95c.97-.32,1.89-.68,2.74-1.08,3.75-1.76,5.82-4.07,5.82-6.51s-2.07-4.75-5.82-6.51Z"/>
        <path class="cls-2" d="M26.57,22.05c-3.4-3.1-8.27-3.75-12.22-1.31-7.05,4.35-8.32,15.26-3.66,21.76.27.38.55.73.83,1.06,2.76,1.33,4.32,2.45,5.15,3.15.02-.53.46-.96,1-.96h.27c.35-.17.74-.26,1.16-.26h.8s0,0,.01,0c.27-2,.67-3.72.33-5.97-.54-3.61-3.28-6.14-3.83-9.66-.57-3.62.77-7.26,3.03-10.06-.04,1.54-.47,3.08-.54,4.63-.07,1.56.02,3.12.49,4.61.84,2.71,2.76,4.68,3.36,7.55.67,3.22-.28,6.34-1.92,9.07.08.03.16.06.23.1h.27c.47,0,.86.32.97.76,1-.64,2.77-1.67,5.53-2.94,1.2-1.43,2.18-3.21,2.8-5.27,1.67-5.55.31-12.28-4.04-16.24Z"/>
        <path class="cls-1" d="M16.45,48.7c-.81.52-2.5,1.23-5.25.7,1.89-.11,4.15-.68,5.21-.97,0-.04,0-.08,0-.12-.39-.12-1.8-.63-5.53-2.34,2.81.13,5,1.83,5.53,2.28,0-.03,0-.05,0-.08,0-.31.05-.6.15-.87-.84-.76-2.86-2.29-7.04-4.09-3.21,2.99.08,8.66.76,9.75,2.63-1.15,5.45-2.57,6.4-3.3.01.19.07.37.18.51.18.26.48.43.82.43h.27c-.75-.36-1.31-1.06-1.48-1.89Z"/>
        <path class="cls-2" d="M16.66,46.7s0,.03,0,.04v.27c.27-.56.72-1.01,1.27-1.27h-.27c-.54,0-.97.43-1,.96Z"/>
        <path class="cls-2" d="M21.31,45.74h-.27c.56.27,1.01.72,1.27,1.27v-.27c0-.08-.01-.16-.03-.24-.11-.44-.5-.76-.97-.76Z"/>
        <path class="cls-1" d="M22.05,48.17c0-1.19-.97-2.17-2.17-2.17h-.8c-1.19,0-2.17.97-2.17,2.17s.97,2.17,2.17,2.17h.8c1.19,0,2.17-.97,2.17-2.17Z"/>
        <path class="cls-1" d="M22.29,49.76c1.12.86,3.5,2.3,5.76,3.52.82-1.09,5.01-7.06,1.82-10.07-4.05,1.74-6.42,3.14-7.53,3.88.08.17.13.35.17.54.73-.65,2.32-1.63,5.58-2.12-2.6,1.44-4.59,2.22-5.53,2.55,0,.04,0,.07,0,.11,0,.04,0,.09,0,.13,1.22.3,3.34.76,4.71.75-1.69.78-3.63.09-4.74-.47-.14.89-.71,1.64-1.5,2.01h.27c.31,0,.58-.14.76-.36.11-.14.19-.3.22-.49Z"/>
      </g>
      <g>
        <path class="cls-1" d="M113.91,10.55v6.29c8.17-3.11,10.9,2.1,10.9,9.43v7.96c0,1.14-4.17.45-4.85-.19.13-2.72,1.02-11.19-.79-13.02-1.91-1.94-5.19,1.74-5.57,3.67-.55,2.71-.22,6.88-.51,9.75h-4.61s.84-24.31.84-24.31l4.61.42Z"/>
        <path class="cls-1" d="M98.11,15.7c-4.82,3.96,7.89,6.64,8.65,11.42,1.36,8.61-9.82,10.06-14.85,3.96-3.02-3.65-.6-2.89,2.49-4.64.37.02,1.63,4.52,5.27,4.05,1.34-.17,2.88-.73,2.34-2.36-.61-1.87-6.25-3.54-7.98-5.88-6.4-8.62,7.16-16.33,12.29-7.23l-3.16,2.62c-1.15.21-2.54-4-5.06-1.93Z"/>
        <path class="cls-1" d="M133.51,11.5c4.15-.57,9.31,1.61,10.06,6.06,1.19,7.06-2.84,11.92-10.13,10.97-9.27-1.21-9.43-15.72.07-17.03ZM132.47,16.54c-.59.49-1.37,2.64-1.4,3.46-.17,5.98,9.12,6.04,7.96-1.25-.46-2.87-4.77-3.69-6.56-2.21Z"/>
        <path class="cls-1" d="M152.47,11.8v5.03s2.93,0,2.93,0l-.39,4.01-2.96.18c.28,2.46-.42,5.74.09,8.08.6,2.71,2.47.64,3.21,1.19.16.12,1.69,3.25,1.72,3.53.11.94-.17.45-.6.65-9.27,4.31-9.58-7.05-9.1-13.18-.34-1.05-1.97-.64-2.87-.69l.19-3.34.63-.62,1.71.02.88-4.8,4.55-.06Z"/>
        <path class="cls-1" d="M143.29,29.37l-2.42,5.5-12.45-.03-1.05-1.44-.94-4.75,2.47,1.28c3.27,1.7,8.84,1.82,12.44.28l1.95-.84Z"/>
      </g>
      <g>
        <g>
          <path class="cls-1" d="M58.8,32.5l-4.33-.35-.16-4.9h-5.25l-.43,5.19h-2.71s-.56-.56-.56-.56V11.57c1-.19,3.68-.21,4.03.95.2.64-.34,1.72-.35,2.54-.04,2.68-.08,5.42.18,8.09.37.53,4.8.7,5.46-.21v-11.05l3.58-.66.54.47v20.79Z"/>
          <path class="cls-1" d="M63.43,25.6c-3.61-2.56-3.37-9.87.33-12.29,6.25-4.08,13.85.45,12.55,8.05-1,5.9-8.43,7.41-12.89,4.24ZM71.06,22.65c3.12-2.55-.28-9.36-4.59-6.27-3.96,2.84.64,9.49,4.59,6.27Z"/>
          <path class="cls-1" d="M83.9,12.27l.16,4.15,2.47.56v3.53c-.17.19-2.16-1.08-2.57.24-.09.27-.46,3.93-.46,4.44,0,.7.43,3.77,1,3.9,1.52-1.25,3.56,1.16,3.54,2.49-.02,1.11-2.63,1.71-3.57,1.71-5.9-.03-5.11-9.22-5.05-13.15l-1.9-.16-.17-3.24,2.09-.14.36-4.33h4.13Z"/>
        </g>
        <path class="cls-1" d="M60.24,27.44l1.99,5.68,11.95.69,1.09-1.39,1.19-4.73-2.45,1.15c-3.24,1.52-8.59,1.32-11.95-.44l-1.82-.96Z"/>
      </g>
      <g>
        <path class="cls-1" d="M45.74,39.35c.39-.06.85-.1,1.35-.1.91,0,1.56.21,1.99.61.44.4.69.97.69,1.77s-.25,1.46-.71,1.91c-.46.46-1.22.71-2.18.71-.45,0-.83-.02-1.15-.06v-4.84ZM46.38,43.7c.16.03.39.04.64.04,1.36,0,2.1-.76,2.1-2.09,0-1.16-.65-1.9-1.99-1.9-.33,0-.58.03-.75.07v3.89Z"/>
        <path class="cls-1" d="M55.93,41.9h-1.91v1.78h2.13v.53h-2.77v-4.92h2.66v.53h-2.02v1.56h1.91v.53Z"/>
        <path class="cls-1" d="M59.75,39.28h.64v4.39h2.1v.53h-2.74v-4.92Z"/>
        <path class="cls-1" d="M66.62,39.28v4.92h-.64v-4.92h.64Z"/>
        <path class="cls-1" d="M77.91,44.21c-.14-.14-.27-.28-.46-.48-.42.39-.9.56-1.44.56-.96,0-1.51-.64-1.51-1.38,0-.67.4-1.13.96-1.44v-.02c-.26-.32-.41-.68-.41-1.03,0-.6.43-1.21,1.25-1.21.61,0,1.09.41,1.09,1.04,0,.52-.3.93-1.08,1.32v.02c.42.48.88,1.02,1.2,1.37.23-.34.38-.82.47-1.44h.58c-.13.77-.34,1.39-.71,1.82.26.28.52.56.81.87h-.76ZM77.14,43.36c-.29-.32-.84-.92-1.39-1.55-.26.17-.64.48-.64,1,0,.56.42.99,1.01.99.42,0,.78-.19,1.02-.45ZM75.64,40.36c0,.35.16.62.37.88.5-.28.82-.55.82-.96,0-.3-.17-.64-.57-.64s-.62.34-.62.72Z"/>
        <path class="cls-1" d="M89.79,44.05c-.23.12-.7.23-1.3.23-1.39,0-2.43-.88-2.43-2.49s1.04-2.59,2.57-2.59c.61,0,1,.13,1.17.22l-.15.52c-.24-.12-.58-.2-.99-.2-1.15,0-1.92.74-1.92,2.03,0,1.21.69,1.98,1.89,1.98.39,0,.78-.08,1.04-.2l.13.5Z"/>
        <path class="cls-1" d="M97.42,41.7c0,1.7-1.03,2.59-2.29,2.59s-2.21-1.01-2.21-2.5c0-1.56.97-2.59,2.29-2.59s2.21,1.03,2.21,2.49ZM93.6,41.78c0,1.05.57,1.99,1.57,1.99s1.58-.93,1.58-2.05c0-.98-.51-2-1.57-2s-1.58.97-1.58,2.05Z"/>
        <path class="cls-1" d="M101.02,39.28h2.65v.53h-2.02v1.64h1.86v.53h-1.86v2.23h-.64v-4.92Z"/>
        <path class="cls-1" d="M107.36,39.28h2.65v.53h-2.02v1.64h1.86v.53h-1.86v2.23h-.64v-4.92Z"/>
        <path class="cls-1" d="M116.24,41.9h-1.91v1.78h2.13v.53h-2.77v-4.92h2.66v.53h-2.02v1.56h1.91v.53Z"/>
        <path class="cls-1" d="M122.61,41.9h-1.91v1.78h2.13v.53h-2.77v-4.92h2.66v.53h-2.02v1.56h1.91v.53Z"/>
        <path class="cls-1" d="M130.67,43.43c.28.18.7.32,1.14.32.65,0,1.03-.34,1.03-.84,0-.46-.26-.72-.93-.98-.8-.28-1.3-.7-1.3-1.4,0-.77.64-1.34,1.59-1.34.5,0,.87.12,1.09.24l-.18.52c-.16-.09-.49-.23-.94-.23-.67,0-.93.4-.93.74,0,.46.3.69.98.95.83.32,1.26.72,1.26,1.45,0,.76-.56,1.42-1.72,1.42-.47,0-.99-.14-1.26-.31l.16-.53Z"/>
        <path class="cls-1" d="M137.77,39.28v2.06h2.38v-2.06h.64v4.92h-.64v-2.31h-2.38v2.31h-.64v-4.92h.64Z"/>
        <path class="cls-1" d="M148.89,41.7c0,1.7-1.03,2.59-2.29,2.59s-2.21-1.01-2.21-2.5c0-1.56.97-2.59,2.29-2.59s2.21,1.03,2.21,2.49ZM145.06,41.78c0,1.05.57,1.99,1.57,1.99s1.58-.93,1.58-2.05c0-.98-.51-2-1.57-2s-1.58.97-1.58,2.05Z"/>
        <path class="cls-1" d="M152.49,39.34c.31-.05.71-.09,1.22-.09.63,0,1.09.15,1.38.41.27.23.43.59.43,1.03s-.13.8-.38,1.05c-.34.36-.88.54-1.51.54-.19,0-.37,0-.51-.04v1.97h-.64v-4.87ZM153.12,41.72c.14.04.31.05.53.05.77,0,1.23-.37,1.23-1.05s-.46-.96-1.16-.96c-.28,0-.49.02-.6.05v1.91Z"/>
      </g>
    </g>
  </g>
</svg>