<?xml version="1.0" encoding="UTF-8"?>
<svg id="Layer_2" data-name="Layer 2" xmlns="http://www.w3.org/2000/svg" viewBox="0 0 174.58 62.34">
  <defs>
    <style>
      .cls-1 {
        letter-spacing: .18em;
      }

      .cls-2, .cls-3, .cls-4 {
        fill: #fff;
      }

      .cls-3, .cls-4 {
        font-family: Nove, Nove;
        font-size: 6.93px;
      }

      .cls-3, .cls-5 {
        letter-spacing: .18em;
      }

      .cls-6 {
        letter-spacing: .17em;
      }
    </style>
  </defs>
  <g id="Layer_1-2" data-name="Layer 1">
    <g>
      <g>
        <text class="cls-3" transform="translate(54.43 60.86) rotate(-4.02)"><tspan x="0" y="0">MARKET</tspan></text>
        <text class="cls-4" transform="translate(92.25 58.11) rotate(-4.02)"><tspan class="cls-5" x="0" y="0">SQ</tspan><tspan class="cls-6" x="11.46" y="0">U</tspan><tspan class="cls-1" x="17.18" y="0">ARE</tspan></text>
      </g>
      <g>
        <path class="cls-2" d="M28.69,12.98c-.03-.17-.07-.33-.1-.5-1.89.15-3.83-.04-5.63.71.01.1.03.21.04.31,1.9-.17,3.8-.35,5.7-.52Z"/>
        <path class="cls-2" d="M39.78,57.42c-2.89.12-14.92.77-17.84,1.01-.24.02-.51.15-.77.23-.15.7.16.63.43.62,2.26-.13,13.62-.65,15.87-.76,2.37-.12,4.74-.2,7.09-.28,1.36-.04,2.69-.02,4.04-.06.33,0,.7.05,1.14-.71-.41-.06-.78-.17-1.19-.16-2.92.02-5.82-.02-8.77.11Z"/>
        <path class="cls-2" d="M146.47,51.55c-2.05.09-8.72.44-13.46.72.02.04-.01.2-.09.4-.08.21-.17.37-.21.36-.03-.01,0-.2.09-.41.07-.18.14-.31.18-.35-1.91.11-3.51.22-4.35.28-.24.02-.51.15-.77.23-.15.7.16.63.43.62,2.26-.13,13.62-.65,15.87-.76,2.37-.12,4.74-.2,7.09-.28,1.36-.04,2.69-.02,4.04-.06.33,0,.7.05,1.14-.71-.41-.06-.78-.17-1.19-.16-2.92.02-5.82-.02-8.77.11Z"/>
        <path class="cls-2" d="M112.97,27.77c1.25,1.93,3.51,5.05,5.54,7.79-1.77-2.65-3.68-5.2-5.54-7.79Z"/>
        <path class="cls-2" d="M122.03,7.65c.01.05.02.11.01.17,0-.06,0-.12-.01-.17Z"/>
        <path class="cls-2" d="M126.19,44.4c-.19-.16-.37-.34-.56-.51.58.62,1.05,1.2,1.15,1.53-.04-.35-.31-.79-.59-1.03Z"/>
        <path class="cls-2" d="M108.52,44.76s0,.01,0,.02c0,0,0-.02,0-.02Z"/>
        <path class="cls-2" d="M93.21,45.28c-.08-.07-.2-.13-.33-.19.12.05.24.11.33.19Z"/>
        <path class="cls-2" d="M117.66,16.34c-2.46,3.62-5.92,9.01-5.59,9.85.05.13.14.31.26.52-.22-.55-.21-1.13.16-1.75.62-1.05,1.12-2.17,1.78-3.18,1.7-2.6,2.92-5.55,5.49-7.52.18-.14.31-.38.39-.61.16-.48.32-.97.48-1.45-.4,1.05-.72,1.85-.72,1.85,0,0-1.27.84-2.24,2.27Z"/>
        <path class="cls-2" d="M105.67,8.73s0,0,0,0c0,0,0,0,0,0Z"/>
        <path class="cls-2" d="M124.93,46.31c.24-.03.49-.05.73-.07.42-.05,1.07-.35,1.13-.64-.09.32-.83.54-1.86.71Z"/>
        <path class="cls-2" d="M108.29,44.32s-.02-.06-.05-.09c-.75-.89-1.12-1.83-1.28-2.79.03.42.08.79.16,1.05.14.46.9,1.48,1.17,1.82Z"/>
        <path class="cls-2" d="M97.45,48.05c.23,0,.47-.02.7-.03-.51.01-.94,0-1.24-.02.18.03.36.05.54.05Z"/>
        <path class="cls-2" d="M108.73,46.89c-.03-.39-.03-.82-.06-1.23-.02.32.06,1.23.06,1.23Z"/>
        <path class="cls-2" d="M108.52,47.09h.01c.11-.06.2-.14.2-.19,0,0-.07.09-.21.19Z"/>
        <path class="cls-2" d="M107.87,47.35c-.58.12-2.37.17-2.37.17v-.09c-1.77.18-3.98.39-5.78.51,1.15-.07,2.3-.16,3.45-.23,1.53-.1,3.05-.16,4.57-.31.23-.02.57-.16.78-.3,0,0-.03,0-.04,0-.14.09-.33.19-.61.25Z"/>
        <path class="cls-2" d="M35.11,20s0,.04,0,.06c.06-.58.22-1.17.4-1.72.47-1.42,1-2.81,1.51-4.21-.24.64-.55,1.4-.87,2.36-.45,1.39-1.07,2.7-1.05,3.51Z"/>
        <path class="cls-2" d="M37.27,12.09c.04.08.07.16.09.24-.02-.08-.05-.16-.09-.24Z"/>
        <path class="cls-2" d="M37.28,13.44c.1-.29.13-.56.11-.81,0,.39-.12.83-.32,1.37.07-.19.14-.37.2-.55Z"/>
        <path class="cls-2" d="M154.29,43.11c-.39.34-1.31,1.11-2.29,1.72.82-.48,1.57-1.07,2.29-1.72Z"/>
        <path class="cls-2" d="M103.87,30.74s-1.26,2.13.17,7.91c.63,2.54,3.15,5.72,3.02,6.04-.13.34-1.25.42-1.6.44l-14.15.66s1.53,0,2.47.28c.08.02.16.04.23.07.13.05.25.12.33.19.85.75,2.18,2.55,3.61,2.71.02,0,.06,0,.09,0,.3.03.73.03,1.24.02.46-.01.99-.04,1.57-.07,1.8-.11,4.02-.32,5.78-.51v.09s1.79-.06,2.38-.17c.28-.06.47-.15.61-.25.01,0,.03,0,.04,0,0,0,.02,0,.02,0h0s-.01-.02-.01-.02c.15-.1.21-.19.21-.19,0,0-.09-.91-.06-1.23,0,0,0,0,0-.01.03-.31-.06-.63-.14-.86,0,0,0-.01,0-.02-.07-.18-.13-.32-.13-.32,0,0-.04-.05-.1-.13-.27-.35-1.03-1.36-1.17-1.82-.08-.26-.13-.63-.16-1.05-.14-1.73.06-4.43.12-5.22.01-.14.02-.22.02-.22l-4.36-6.32Z"/>
        <path class="cls-2" d="M157.83,38.55s0,.01,0,.02c0,0,0-.01,0-.02Z"/>
        <path class="cls-2" d="M136.62,44.69c.29.29.61.57.94.82-.31-.25-.64-.54-.94-.82Z"/>
        <path class="cls-2" d="M140.97,46.62s.04,0,.06,0c-.59-.03-1.13-.08-1.6-.17.48.13,1,.2,1.54.17Z"/>
        <path class="cls-2" d="M157.85,38.46c.1-.42.16-.85.16-1.3,0-.09,0-.18,0-.26-.02.6-.07,1.13-.16,1.57Z"/>
        <path class="cls-2" d="M158.1,25.52c-.29-2.72-.53-5.35-.76-7.48-.23-2.1-.45-3.72-.72-4.48-.56-1.55-3.62-3.6-3.62-3.6l1.99,25.85c-.14.49-.81,2.33-3.16,4.3-2.13,1.78-2.49,2.39-3.54,2.78-2.8,1.04-12.22,1.16-12.22,1.16,0,0,.01.01.03.04.16.17.85.91,1.65,1.65.31.29.63.57.94.82.47.38.93.68,1.26.79.18.06.38.1.6.14.46.09,1.01.14,1.6.17,3.02.13,7.36-.46,9.56-1.1.44-.13.93-.38,1.42-.69.98-.6,1.9-1.38,2.29-1.72.12-.1.2-.18.2-.18,0,0,2.73-1.58,3.33-4.37,0,0,0-.01,0-.02,0,0,0-.02,0-.03,0-.02,0-.04,0-.05.09-.44.14-.97.16-1.57.1-3.01-.54-7.84-1.04-12.43Z"/>
        <path class="cls-2" d="M139.75,31.07c-.2-2.2-.44-4.95-.62-7.47-.18-2.5-.3-4.76-.28-6.06,0-.07,0-.14,0-.2,0-.17.18-.59.42-.88.22-.27.51-.43.51-.43l-.3-.76-4.89.81,1.37,15.46s.12,2.49,1.14,3.22c.83.6,3.07.68,3.07.68l-.43-4.35Z"/>
        <path class="cls-2" d="M116.35,34.98c-4.11-4.97-8.2-10.96-8.31-11.6-.22-1.18,10.56-16.02,10.56-16.02.29-.7.43-1.02.55-1.34.59-1.55.33-1.86-1.31-1.74-2.98.22-5.96.43-8.95.54-2.86.11-3.08.44-1.82,2.99.24.48.43,1.22.22,1.64-.51,1.03-1.29,1.89-1.94,2.85,0,0-.48,1.87-.79,2.43-.44.82-3.05,4.77-3.05,4.77,0,0-1.04-5.26-.76-8.02.11-1.05,2.04-4.57,2.04-4.57h.01s.04-.09.04-.09c-.02-.12,0-.26.05-.43.18-.69-.19-1.14-.93-1.2-.38-.03-.77-.05-1.15-.03-2.77.15-5.55.33-8.32.47-1.35.07-2.72.02-4.06.12-1.14.07-1.42.54-.78,1.45.79,1.12,1.68,2.2,2.67,3.16,1.24,1.22,2.08,2.56,2.15,4.36.13,3.38.3,6.78.48,10.16.03.41.18.81.27,1.21.09.4.24.81.26,1.21.16,3.02.29,6.03.46,9.05.08,1.43-.28,2.65-1.26,3.74-1.16,1.3-1.9,2.85-2.52,4.61l14.15-.66c.36-.01,1.47-.1,1.6-.44.13-.32-2.4-3.5-3.02-6.05-1.43-5.77-.17-7.91-.17-7.91l4.36,6.33s0,.08-.02.22c.57.5.97,1.11,1.49,1.6,1.47,1.36,1.95,2.96,1.36,4.88-.21.65.09,1.03.75,1.03.66,0,1.24.13,1.76.39h.25c.62-.13,3.23-.64,5.67-.78,2.17-.14,4.35.22,4.49-.29.31-1.1-3.24-4.14-6.5-8.09ZM101.98,23.81c-1,.56-7.59.68-8.19.17.93-.93,7.5-1.06,8.19-.17ZM101.24,28.63c-2.2.12-4.41.2-6.61.29-.05-.12-.09-.25-.13-.38.3-.15.61-.43.91-.45,2.2-.1,4.41-.15,6.61-.23.04.1.06.21.1.3-.29.16-.57.45-.88.47ZM94.07,25.77c2.82-.04,5.42-.09,8.22-.12-.97,1.13-7.46,1.26-8.22.12Z"/>
        <path class="cls-2" d="M34.18,40.57l2.89-.06h.09s-.83-14.44-.92-19.39c0-.02,0-.04,0-.06-.02-.81.6-2.12,1.05-3.51.31-.96.63-1.72.87-2.36.02-.04.03-.09.05-.13.19-.54.32-.98.32-1.37,0-.07,0-.14,0-.21,0-.04-.03-.07-.04-.1-.02-.08-.05-.16-.09-.24-.03-.05-.05-.1-.09-.15-.19-.27-.49-.52-.82-.73-.78-.5-1.72-.8-1.72-.8,0,0-1.87,3.43-2.03,4.55-.88,6.08.46,24.56.46,24.56Z"/>
        <path class="cls-2" d="M50.14,38.5v.04s.87,9.62.87,9.62l-31.26,2.22h-.07s3.18,2.72,4.98,3.4c.84.31,4.7-.24,9.38-.56,5.33-.36,11.51-.63,15.57-.92,2.5-.18,4.17-.27,4.43-.68.27-.44.24-1.28.24-2.04,0,0,0-.49.01-1.1,0-.33.01-.55.01-.55h0c0-.8.02-1.61.02-1.74.13-4.08.18-4.63-.99-6.17-1.11-1.47-3.2-1.51-3.2-1.51Z"/>
        <path class="cls-2" d="M70.56,17.78c-.26.02-.49.05-.66.07-.44.05-.83.24-.98.31.26-.14.56-.23.91-.29.24-.04.48-.06.73-.09Z"/>
        <path class="cls-2" d="M73.63,17.54s-.46.03-1.07.08c.35-.02.7-.05,1.07-.08Z"/>
        <path class="cls-2" d="M68.91,18.17s-.05.03-.05.03c0,0-.29.15-.52.41-.25.29-.45.7-.46.87h0c.17-.58.51-1.02,1.03-1.3Z"/>
        <path class="cls-2" d="M65.64,47.82c.28.31.58.6.91.86-.3-.26-.62-.56-.91-.86Z"/>
        <path class="cls-2" d="M69.9,49.92s.04,0,.06,0c-.59-.05-1.13-.12-1.59-.23.48.15.99.24,1.53.23Z"/>
        <path class="cls-2" d="M68.22,33.22l.26,4.38c-.17-3.15-.33-6.24-.49-9.31.07,1.74.15,3.46.23,4.94Z"/>
        <polygon class="cls-2" points="68.59 17.42 68.86 18.19 68.59 17.42 68.59 17.42"/>
        <path class="cls-2" d="M83.36,46.94c-.4.32-1.36,1.06-2.36,1.63.84-.44,1.62-1.01,2.36-1.63Z"/>
        <path class="cls-2" d="M87.08,42.52s0,.01,0,.02c0,0,0-.01,0-.02Z"/>
        <path class="cls-2" d="M87.1,42.44c.14-.48.21-1,.22-1.54-.04.59-.11,1.11-.22,1.54Z"/>
        <path class="cls-2" d="M86.16,18.93c-.03-.53-.06-1.06-.09-1.58-.05-.81-.59-1.7-1.15-2.34-.22-.25-.46-.48-.71-.71.69.67,1.35,1.45,1.56,2.12.16.5.28,1.38.39,2.51Z"/>
        <path class="cls-2" d="M49.02,37.48s-.02,0-.03,0c-.13-1.11-.27-2.23-.4-3.31-.18-.03-.25-.05-.32-.05-2.3.32-4.1,1.18-4.44,3.83-.12.9-.78,1.43-1.78,1.43-1.91.01-3.83.05-5.74.1-.15,0-.27-.01-.37-.04l-2.89.06s-1.33-18.49-.46-24.56c.16-1.11,2.03-4.55,2.03-4.55.03-.23.1-.54.1-.84,0-.71-.31-1.1-1.08-1.05-1.53.09-3.05.18-4.58.21-2.57.06-5.14.08-7.71.13-.9.02-1.82-.03-2.7.11-1.08.17-1.38.81-.8,1.71.64.98,1.38,1.92,2.18,2.78,1.01,1.09,1.75,2.33,1.84,3.77.2,3.22.25,6.46.33,9.69.08,3.82,0,7.64.23,11.45.15,2.57-.2,4.77-2.1,6.69-.88.88-1.41,2.13-2.02,3.25-.12.22,0,.76.19.93.03.03.09.05.14.08l31.26-2.22-.87-9.62ZM28.59,12.48c.03.17.07.33.1.5-1.9.17-3.8.35-5.7.52-.01-.1-.03-.21-.04-.31,1.81-.75,3.75-.55,5.63-.71ZM23.25,26.13c2.01-.36,4.04-.25,6.06.15.14.03.22.39.47.87-2.35-.51-4.5.17-6.54-.44,0-.19.01-.39.02-.59ZM29.04,33.38c-1.54.16-3.09.24-4.64.32-.22.01-.44-.09-.66-.14,0-.11-.02-.23-.02-.34,1.94-.22,3.88-.44,5.81-.66.07.05.14.1.22.15-.23.23-.45.64-.7.67ZM29.64,31.56c-1.48.14-2.85.28-4.23.38-.55.04-1.12.05-1.66-.03-.23-.03-.43-.3-.65-.47.21-.16.42-.43.64-.45,1.07-.07,2.15-.07,3.22-.11.69-.02,1.39-.03,2.08-.12.7-.09.78.22.61.79ZM29.82,29.12c-1.99.21-3.97.44-5.96.6-.27.02-.58-.3-.86-.46.26-.2.51-.54.78-.56,1.79-.16,3.58-.27,5.38-.34.29-.01.58.31.88.47-.07.1-.14.19-.21.29ZM33.17,44.73c0-.18-.02-.37-.03-.55,2.37-.13,4.74-.25,7.11-.38,0,.19.01.37.02.56-2.37.12-4.74.25-7.11.37Z"/>
        <path class="cls-2" d="M87.9,29.48c-.25-3.65-.39-7.14-.61-9.5-.11-1.13-.23-2.01-.39-2.51-.21-.67-.87-1.45-1.56-2.12-.93-.91-1.91-1.62-1.91-1.62l.96,25.91c-.16.49-.9,2.3-3.33,4.17-2.2,1.7-2.58,2.29-3.65,2.64-2.84.93-12.26.67-12.26.67,0,0,.01.01.03.04.15.18.81.95,1.58,1.72.3.3.61.6.91.86.46.4.9.72,1.23.84.18.06.38.12.59.16.46.11,1,.18,1.59.23,3.01.25,7.37-.17,9.59-.72.44-.11.95-.35,1.44-.63,1-.57,1.96-1.3,2.36-1.63.12-.1.21-.17.21-.17,0,0,2.79-1.47,3.5-4.23,0,0,0-.01,0-.02,0,0,0-.02,0-.03,0-.02,0-.04.01-.05.1-.43.17-.95.22-1.54.23-3-.23-7.86-.54-12.48Z"/>
        <path class="cls-2" d="M69.35,34.27c-.08-1.48-.16-3.2-.23-4.94-.14-3.56-.24-7.16-.11-8.82h0c.01-.17.21-.58.46-.87.23-.26.52-.41.52-.41l-.27-.77h0l.27.77s.03-.02.05-.03c0,0,0,0,.02,0,.14-.08.53-.26.98-.31.17-.02.4-.04.66-.07.6-.05,1.37-.11,2-.16.61-.04,1.07-.08,1.07-.08,0,0,.19-2.68-.69-3.36-1.17-.9-4.23-.61-5.27-.49-1.28.09-2.8.33-3.5.98-.81.77-.48,3.35-.48,3.36h-.01s.75,15.5.75,15.5h0s.02,2.49,1.01,3.26c.81.63,3.04.8,3.04.8l-.26-4.38Z"/>
        <path class="cls-2" d="M127.46,44.44c-.81-.86-1.85-1.81-2.45-2.36-.3-.27-.51-.45-.51-.45,0,0-.1-.13-.28-.37-.61-.8-2.16-2.84-3.88-5.16-2.03-2.74-4.29-5.85-5.54-7.79-.26-.41-.48-.76-.64-1.05-.12-.21-.21-.39-.26-.52-.33-.85,3.13-6.24,5.59-9.85.97-1.43,2.24-2.27,2.24-2.27,0,0,.32-.8.72-1.85.53-1.41,1.2-3.28,1.42-4.33,0-.02,0-.04,0-.07,0-.06,0-.12-.01-.17,0-.04-.01-.08-.03-.11-.12-.25-.4-.42-.57-.56-.3-.26-.64-.34-.98-.33-.93.01-1.85.72-1.85.72,0,0-10.78,14.84-10.57,16.02.11.64,4.2,6.63,8.32,11.6,3.26,3.94,6.81,6.98,6.49,8.09-.15.51-2.32.15-4.49.28-2.77.17-5.79.8-5.79.8,0,0,.5.11.89.62.05.06.1.12.16.19.17.2.36.41.57.6.73.69,1.59,1.26,2.1,1.41.18.05.44.07.78.07.95,0,2.47-.17,4.09-.31,1.34-.12,2.72-.24,3.79-.42,1.03-.17,1.77-.4,1.86-.71.01-.05,0-.11-.01-.18-.1-.34-.56-.91-1.15-1.53Z"/>
        <path class="cls-2" d="M132.8,52.62c-.08.21-.12.4-.09.41.03.01.13-.15.21-.36.08-.2.11-.36.09-.4,0,0,0-.01,0-.01,0,0-.01,0-.02.01-.04.03-.12.17-.18.35Z"/>
        <path class="cls-2" d="M169.23,12.09s-.05.08-.07.14c-.04.16-.07.31-.1.47.03-.1.06-.18.08-.24.03-.09.05-.23.09-.36Z"/>
        <path class="cls-2" d="M167.47,12s.01,0,.02,0c0,0-.01,0-.02,0Z"/>
        <path class="cls-2" d="M168.35,8.76c-.06-.28-.13-.55-.19-.83.06.33.13.67.22.93,0-.03-.02-.07-.02-.1Z"/>
        <path class="cls-2" d="M165.77,18.26s2.31,8.71,2.27,11.98c0,0,.19,4.6.04,6.09-.22,2.11-1.45,8.3-1.45,8.3,1.15-.89,2.91-3.6,3.66-4.94,1.03-1.86,2.37-5.95,2.76-8.04.48-2.62.74-8.46.37-10.66-.18-1.08-.54-4.05-1.2-5.85-.22-.6-.49-1.03-.75-1.35-.13-.07-.46-.22-.53-.25-.52-.26-.75-.19-.88.37-.12.51-.46.83-.77,1.19-.18.21-.34.17-.51-.01-.25-.28-.49-.57-.76-.83-.43-.4-.63-.38-.98.08-.22.29-.42.59-.64.88-.31.41-.64.39-.92-.04-.03-.05-.08-.1-.11-.15.13.39.17,1.21.23,1.91.07.71.19,1.32.19,1.32ZM167.96,14.85c-.07.49-.23.97-.19,1.44.1,1.14.21,2.29.46,3.4.81,3.6,1.54,7.21,1.7,10.91.11,2.6,0,5.18-.65,7.71-.13.52-.37,1.01-.55,1.52-.09-.01-.18-.03-.28-.04-.01-.29-.06-.59-.02-.88.13-.95.34-1.89.44-2.84.34-3.26.28-6.51-.35-9.74-.46-2.37-.96-4.73-1.4-7.1-.17-.9-.26-1.83-.31-2.75-.04-.74.53-1.48,1.16-1.63Z"/>
        <path class="cls-2" d="M76.29,45.39c1.07-.35,1.45-.94,3.65-2.64,2.43-1.87,3.16-3.69,3.33-4.17l-.96-25.91c-1.12-1.09-2.07-2.35-3.25-3.36-2.28-1.95-4.76-3.54-7.95-3.38-1.63.08-3.27.23-4.89.18-3.22-.1-5.67,1.37-7.77,3.62-.64.68-1.23,1.42-1.89,2.08-.91.91-1.19,1.97-1.13,3.23.18,3.47.3,6.95.46,10.42.03.54.17,1.07.26,1.61,0,0,0,0-.01,0-.03.1-.09.2-.09.3.07,3.96.12,7.92.25,11.88.02.5.35,1.06.69,1.47,1.57,1.91,3.53,3.33,5.69,4.5.5.27.96.54,1.39.89-.02-.02-.03-.04-.03-.04,0,0,9.42.25,12.26-.67ZM64.43,33.53h0l-.75-15.5h.01s-.33-2.59.48-3.36c.69-.65,2.22-.9,3.5-.98,1.04-.13,4.1-.41,5.27.49.89.68.69,3.36.69,3.36.03,1.05.04,1.94.09,2.84.26,4.37.53,8.74.81,13.1.21,3.34-.23,3.88-3.59,4.15-.82.07-1.65-.02-2.46-.04,0,0-2.23-.17-3.04-.8-.99-.77-1.01-3.26-1.01-3.26ZM63.39,12.53c.92-.72,8.08-1.03,9.33-.57-2.98.18-6.09.37-9.33.57ZM75.51,42.23c-2.98.1-5.96.21-8.94.31,0-.17-.01-.34-.02-.51,2.97-.5,5.97-.5,8.97-.28,0,.16,0,.32-.01.48ZM81.2,30.12c-1.72.17-3.45.29-5.18.38-.26.01-.54-.25-.81-.39.25-.17.48-.48.74-.5,1.76-.15,3.52-.24,5.29-.33.26-.01.53.06.79.09.03.1.07.21.1.31-.31.15-.61.4-.93.43ZM82.19,27.7c-2.14.09-4.28.19-6.42.25-.18,0-.37-.24-.55-.36.15-.2.26-.54.45-.58.46-.12.96-.14,1.44-.14,1.49-.02,2.98-.04,4.47,0,.26,0,.51.32.76.5-.05.12-.1.23-.16.35ZM82.19,24.93c-.15.12-.3.33-.46.34-1.86.15-3.73.27-5.6.39-.17.01-.34-.06-.75-.13-.1-.14-.31-.42-.52-.7.28-.14.56-.39.84-.4,1.7-.04,3.4-.04,5.09-.04.31,0,.64,0,.93.09.18.06.31.29.46.44ZM75.59,22.42c1.83-.03,3.66-.06,5.5-.09v.46c-1.82.03-3.65.06-5.49.08,0-.15,0-.3,0-.45ZM74.74,9.27c.01.21.03.41.04.62-3.97.12-7.93.24-11.9.37,0-.13-.01-.25-.02-.38,3.92-.99,7.9-.88,11.88-.61ZM57.72,24.6c1.51-.16,3.03-.26,4.63-.39.14.21.38.43.34.54-.07.19-.31.44-.5.45-1.41.12-2.83.2-4.24.25-.22,0-.45-.19-.68-.3.15-.19.28-.54.45-.56ZM56.52,30.25c0-.19-.02-.38-.02-.57,2.09-.81,4.33-.06,6.52-.4.06.3.11.56.2,1.02-2.29-.02-4.5-.03-6.7-.05ZM63.17,27.66c-1.99.05-3.98.13-5.97.1-.35,0-.7-.42-1.04-.67.19-.11.38-.3.57-.3,1.83-.05,3.66-.07,5.49-.08.55,0,1.07.08.96.95Z"/>
        <path class="cls-2" d="M171.54,10.85s.09.06.13.08c-.04-.03-.09-.06-.13-.08Z"/>
        <path class="cls-2" d="M172.38,11.43s.03.02.04.03c-.01-.01-.03-.02-.04-.03Z"/>
        <path class="cls-2" d="M174.4,21c-.25-1.51-.49-5.32-1.54-7.12-.81-1.4-2.49-2.03-2.97-2.2-.05-.03-.1-.05-.14-.05-.34.04-.46.24-.52.45-.04.13-.07.27-.09.36-.02.06-.05.14-.08.24-.09.29-.22.67-.22.67-.25-.47-.83-1.17-1.35-1.36,0,0-.01,0-.02,0-.11-.04-.21-.06-.31-.04-.32.05-.9,1.3-1.38,1.4-.04,0-.25-.07-.29-.25,0,0-.01-.02-.01-.03.14-.17.28-.35.43-.53.63-.81,1.46-1.43,1.48-1.48.35-.73.61-.81.74-.84.22-.05,1.03.34,1.84.75.49.25,1.11.44,1.53.84,1.66,1.56,1.8,1.97,2.3,1.71.16-.08.01-.96-1.37-2.06-.01-.01-.03-.02-.04-.03-.12-.1-.24-.19-.38-.29-.11-.08-.22-.14-.32-.21-.04-.03-.09-.06-.13-.08-1.41-.85-2.56-.91-3.03-1.68-.05-.08-.09-.18-.13-.3-.09-.26-.16-.6-.22-.93-.06-.32-.11-.63-.15-.84-.18-.89-.44-2.57-.29-3.64C167.94,1.8,168.09,0,167.61,0c-.91,0-.96,3.49-.96,3.49,0,0,.05,1.69.18,3.35.09,1.19.28,2.35.14,2.88-.28,1.05-1.56,1.86-2.04,2.51-.07.1-.15.21-.22.33h0s0,0,0,0c-.49.84-.88,2.01-.74,2.15.07.09,1.21-.5,1.42-.44.12.03.43.61.57.61.19,0,.8-1.37,1.27-1.49.62-.15,1.52,1.4,1.9,1.35.52-.07.63-1.55,1.09-1.81,0,0,.61.1,1.23.85.26.32.53.74.75,1.35.66,1.8,1.02,4.77,1.2,5.85.37,2.2.12,8.04-.37,10.66-.39,2.09-1.72,6.18-2.76,8.04-.75,1.34-2.51,4.06-3.66,4.94,0,0,1.23-6.18,1.45-8.3.15-1.49-.04-6.09-.04-6.09.04-3.27-2.27-11.98-2.27-11.98,0,0-.12-.61-.19-1.32-.07-.71-.1-1.52-.23-1.91-.05-.13-.1-.22-.18-.23-.74-.14-.72,1.32-.72,1.81,0,1.8,2.5,8.38,2.66,13.49.02.55.28,3.06-.02,5.99-.45,4.5-2.12,9.41-1.53,9.89.18.14.97.17,1.23-.05.75-.07,3.49-4.23,4.34-5.84,1-1.89,2.44-5.97,2.78-8.08.44-2.72.92-8.29.48-11.01Z"/>
        <path class="cls-2" d="M4.77,18.93c-.04-.15-.09-.31-.14-.46-.02-.06-.05-.09-.08-.13.05.13.08.26.12.35.02.06.06.14.1.24Z"/>
        <path class="cls-2" d="M5.18,14.96s-.01.07-.02.1c.07-.27.11-.61.15-.94-.05.28-.09.56-.13.84Z"/>
        <path class="cls-2" d="M6.28,18.12s0,0,.01,0c0,0,0,0-.01,0Z"/>
        <path class="cls-2" d="M1.32,17.95s.03-.02.04-.04c-.01.01-.03.02-.04.04Z"/>
        <path class="cls-2" d="M2.03,17.36s.08-.06.12-.09c-.04.03-.08.06-.12.09Z"/>
        <path class="cls-2" d="M1.03,27.52c-.21,2.22.47,8.03,1.14,10.61.54,2.06,2.17,6.04,3.34,7.81.84,1.28,2.8,3.86,4.01,4.66,0,0-1.68-6.08-2.06-8.17-.26-1.48-.41-6.08-.41-6.08-.28-3.26,1.39-12.11,1.39-12.11,0,0,.07-.62.09-1.33.02-.71-.01-1.53.09-1.93-.03.05-.07.1-.1.16-.25.44-.58.49-.92.1-.24-.27-.46-.56-.7-.83-.39-.43-.59-.44-.98,0-.25.28-.47.59-.7.88-.15.19-.31.25-.51.05-.34-.34-.7-.63-.85-1.13-.17-.55-.41-.6-.91-.3-.06.04-.38.21-.51.29-.24.34-.47.78-.65,1.4-.53,1.85-.66,4.83-.77,5.92ZM6.09,25.84c.17-1.13.19-2.28.21-3.42,0-.47-.19-.93-.29-1.42.64.1,1.26.8,1.28,1.54.02.92,0,1.85-.11,2.76-.27,2.4-.6,4.79-.88,7.19-.39,3.26-.22,6.51.37,9.74.17.94.44,1.86.64,2.8.06.28.03.58.04.88-.09.02-.18.04-.27.06-.22-.49-.49-.97-.66-1.48-.84-2.48-1.14-5.04-1.21-7.64-.11-3.7.35-7.35.9-11Z"/>
        <path class="cls-2" d="M9.08,18.49h0c-.08-.11-.16-.22-.24-.31-.52-.62-1.86-1.33-2.21-2.36-.18-.52-.08-1.7-.08-2.89,0-1.67-.07-3.36-.07-3.36,0,0-.31-3.48-1.21-3.41-.47.04-.2,1.82.15,3.45.22,1.06.09,2.75-.03,3.65-.03.21-.05.52-.09.85-.04.33-.08.67-.15.94-.03.12-.07.23-.11.31-.42.8-1.56.95-2.9,1.9-.04.03-.08.06-.12.09-.1.08-.2.14-.31.23-.14.11-.24.22-.36.32-.01.01-.03.02-.04.04C.02,19.15-.07,20.03.1,20.11c.52.22.63-.2,2.17-1.88.39-.42.99-.66,1.46-.95.78-.47,1.55-.92,1.78-.88.14.02.4.08.8.78.03.04.9.61,1.58,1.36.16.18.31.34.47.5,0,0-.01.02-.01.03-.03.18-.22.27-.27.27-.49-.06-1.15-1.26-1.47-1.29-.1,0-.2.02-.31.07,0,0,0,0-.01,0-.5.23-1.03.97-1.24,1.46,0,0-.16-.37-.27-.65-.04-.09-.07-.18-.1-.24-.04-.09-.07-.22-.12-.35-.08-.21-.21-.4-.56-.41-.05,0-.09.02-.14.06-.47.2-2.09.96-2.8,2.41C.14,22.26.18,26.08.04,27.6c-.24,2.74.64,8.27,1.28,10.95.5,2.08,2.23,6.04,3.36,7.85.96,1.54,4.01,5.49,4.76,5.51.27.2,1.06.11,1.23-.04.56-.53-1.47-5.29-2.25-9.75-.51-2.9-.43-5.43-.45-5.97-.22-5.11,1.8-11.85,1.66-13.65-.04-.48-.12-1.94-.85-1.75-.07.02-.12.11-.16.24-.11.4-.08,1.22-.09,1.93-.02.71-.09,1.33-.09,1.33,0,0-1.67,8.86-1.39,12.11,0,0,.14,4.6.41,6.08.37,2.09,2.06,8.17,2.06,8.17-1.21-.8-3.16-3.38-4.01-4.66-1.17-1.78-2.8-5.76-3.34-7.81-.67-2.58-1.35-8.39-1.14-10.61.1-1.09.24-4.08.77-5.92.18-.62.41-1.06.65-1.4.56-.79,1.16-.94,1.16-.94.48.22.69,1.69,1.22,1.72.38.02,1.16-1.6,1.79-1.49.48.08,1.19,1.4,1.38,1.39.13,0,.4-.61.52-.65.2-.07,1.39.43,1.45.34.13-.15-.34-1.29-.9-2.09h0Z"/>
      </g>
      <path class="cls-2" d="M151.87,8.91h.01s-.02-.12-.02-.12c-1.13-1.03-2.12-2.22-3.31-3.16-2.35-1.86-4.88-3.36-8.07-3.08-1.62.14-3.25.35-4.88.37-3.22.03-5.62,1.58-7.63,3.91-.62.71-1.17,1.47-1.81,2.16-.23.25-.42.52-.56.8-.45.77-.58,1.62-.49,2.57.32,3.46.57,6.93.88,10.39.04.52.2,1.04.31,1.56,0,.04-.02.09-.03.13-.03.07-.05.13-.05.2.23,3.96.44,7.91.72,11.85.04.5.4,1.05.75,1.45,1.65,1.84,3.66,3.18,5.86,4.27.5.23.96.49,1.39.79,0,0,9.43-.12,12.23-1.16,1.05-.4,1.41-1,3.53-2.78,2.36-1.97,3.02-3.81,3.17-4.31l-2-25.85ZM151.04,18.61c0,.13.02.27.03.4-1.82.1-3.63.19-5.45.29,0-.13,0-.26-.02-.39,1.82-.1,3.63-.2,5.45-.3ZM145.75,20.92c1.7-.11,3.39-.17,5.09-.24.31-.01.63-.02.93.05.18.05.3.26.46.41-.14.13-.26.3-.4.32-1.86.22-3.71.41-5.57.6-.17.02-.35-.04-.76-.09-.1-.14-.31-.39-.51-.65.26-.15.5-.39.76-.4ZM144.18,5.81c.02.19.05.37.06.56-3.94.27-7.87.54-11.82.81,0-.1,0-.2-.02-.29,3.86-1.13,7.82-1.18,11.77-1.07ZM127.78,21.81c1.5-.22,3.01-.38,4.61-.58.14.2.36.39.36.51-.08.19-.28.38-.44.41-1.4.17-2.82.31-4.24.41-.21,0-.44-.17-.66-.26.12-.2.23-.47.38-.49ZM126.41,24.3c.15-.11.31-.26.47-.27,1.82-.12,3.65-.22,5.47-.3.53-.02,1.03.04,1,.83-1.97.12-3.96.28-5.94.33-.33.01-.67-.35-1-.59ZM126.83,27.39c-.02-.15-.02-.32-.04-.48,2.05-.87,4.3-.23,6.47-.64.06.28.13.52.23.92-2.28.07-4.48.14-6.66.2ZM142.06,8.53c-2.85.29-5.83.58-8.92.88,1.31-.67,7.33-1.18,8.92-.88ZM135.99,33.68c-1.03-.73-1.15-3.21-1.15-3.22l-1.37-15.46,4.89-.81.3.75c.27-.15.59-.28.97-.36,1.18-.23,2.39-.31,3.77-.48.07,1.05.11,1.94.2,2.83.44,4.36.88,8.71,1.33,13.07.1,1,.14,1.75.04,2.33-.24,1.28-1.16,1.61-3.45,1.89-.77.09-1.56.05-2.33.05h-.14s0,.08,0,.08c0,0-2.23-.09-3.06-.68ZM146.26,38.65c-2.98.21-5.94.44-8.92.65-.02-.14-.02-.29-.04-.44,2.95-.62,5.94-.73,8.95-.63,0,.13,0,.27,0,.42ZM151.49,26.34c-1.72.22-3.44.43-5.16.57-.25.02-.52-.21-.79-.34.21-.18.43-.45.67-.48,1.75-.21,3.51-.37,5.27-.55.25-.02.53.05.79.07.04.09.07.18.1.27-.29.16-.56.41-.88.46ZM145.98,24.37c-.17,0-.37-.22-.56-.34.12-.2.22-.49.4-.54.45-.14.96-.18,1.44-.2,1.48-.08,2.98-.16,4.46-.18.26,0,.52.3.78.46-.04.1-.08.21-.12.31-2.13.16-4.26.35-6.4.49Z"/>
      <polygon class="cls-2" points="139.19 34.28 139.1 34.29 139.06 34.28 139.19 34.28"/>
    </g>
  </g>
</svg>