<?xml version="1.0" encoding="UTF-8"?>
<svg id="Layer_2" data-name="Layer 2" xmlns="http://www.w3.org/2000/svg" viewBox="0 0 166.66 33.85">
  <defs>
    <style>
      .cls-1 {
        fill: #fff;
      }
    </style>
  </defs>
  <g id="Layer_1-2" data-name="Layer 1">
    <g>
      <path class="cls-1" d="M19.85,19.73h-3.34l-2.02-10.48-3.91,10.73h-1.23l-3.91-10.73-2.1,10.48H0L3.91.28h1.83l4.21,13.1L14.07.28h1.82l3.97,19.45Z"/>
      <path class="cls-1" d="M22.18,12.58c0-2.17.63-3.93,1.88-5.29,1.25-1.36,2.9-2.04,4.96-2.04,2.16,0,3.84.66,5.03,1.96,1.19,1.31,1.79,3.1,1.79,5.37s-.61,4.07-1.82,5.4c-1.22,1.34-2.88,2-5,2s-3.84-.67-5.04-2.02c-1.2-1.35-1.8-3.14-1.8-5.38ZM25.63,12.58c0,3.13,1.13,4.7,3.38,4.7,1.03,0,1.86-.41,2.46-1.22.61-.81.91-1.97.91-3.48,0-3.09-1.12-4.63-3.37-4.63-1.03,0-1.86.41-2.47,1.22-.61.81-.92,1.95-.92,3.41Z"/>
      <path class="cls-1" d="M38.89,19.72v-1.13l7.71-10.19h-7.58v-2.89h12.42v1.17l-7.43,10.15h7.51v2.89h-12.63Z"/>
      <path class="cls-1" d="M54.58,19.72v-1.13l7.71-10.19h-7.58v-2.89h12.42v1.17l-7.43,10.15h7.51v2.89h-12.63Z"/>
      <path class="cls-1" d="M79.11,18.3c-.3.5-.83.9-1.57,1.21-.75.31-1.53.47-2.34.47-1.53,0-2.73-.38-3.61-1.15-.88-.76-1.31-1.85-1.31-3.26,0-1.65.62-2.93,1.85-3.86,1.23-.93,2.99-1.39,5.26-1.39.39,0,.85.07,1.38.2,0-1.67-1.06-2.51-3.17-2.51-1.25,0-2.29.21-3.13.62l-.72-2.57c1.14-.55,2.5-.82,4.07-.82,2.17,0,3.76.49,4.76,1.48,1.01.99,1.51,2.86,1.51,5.61v3.04c0,1.89.38,3.08,1.14,3.57-.27.48-.58.77-.92.88-.34.11-.72.17-1.15.17-.48,0-.91-.18-1.29-.53-.38-.35-.64-.74-.77-1.15ZM78.79,13.03c-.57-.11-.99-.17-1.27-.17-2.62,0-3.93.86-3.93,2.57,0,1.27.74,1.91,2.22,1.91,1.99,0,2.99-1,2.99-2.99v-1.33Z"/>
      <path class="cls-1" d="M100.17,12.57v7.15h-3.45V.29c2.3-.1,3.64-.15,4.03-.15,3.07,0,5.31.47,6.73,1.41,1.42.94,2.13,2.41,2.13,4.41,0,4.46-2.63,6.69-7.88,6.69-.39,0-.91-.03-1.57-.09ZM100.17,3.28v6.22c.58.06,1.04.09,1.38.09,1.57,0,2.72-.26,3.45-.79.73-.53,1.09-1.38,1.09-2.57,0-2.02-1.62-3.03-4.87-3.03-.36,0-.71.02-1.05.07Z"/>
      <path class="cls-1" d="M114.69,19.72v-11.49h-1.82v-2.72h5.18v14.21h-3.36ZM116.41,0c.53,0,.98.19,1.36.56.38.38.56.83.56,1.36s-.19.98-.56,1.36c-.38.38-.83.56-1.36.56s-.98-.19-1.36-.56c-.38-.38-.56-.83-.56-1.36s.19-.98.56-1.36c.38-.38.83-.56,1.36-.56Z"/>
      <path class="cls-1" d="M122.32,19.72v-1.13l7.71-10.19h-7.58v-2.89h12.42v1.17l-7.43,10.15h7.51v2.89h-12.63Z"/>
      <path class="cls-1" d="M138.01,19.72v-1.13l7.71-10.19h-7.58v-2.89h12.42v1.17l-7.43,10.15h7.51v2.89h-12.63Z"/>
      <path class="cls-1" d="M162.53,18.3c-.3.5-.83.9-1.57,1.21-.75.31-1.53.47-2.34.47-1.53,0-2.73-.38-3.61-1.15-.88-.76-1.31-1.85-1.31-3.26,0-1.65.62-2.93,1.85-3.86,1.23-.93,2.99-1.39,5.26-1.39.39,0,.85.07,1.38.2,0-1.67-1.06-2.51-3.17-2.51-1.25,0-2.29.21-3.13.62l-.72-2.57c1.14-.55,2.5-.82,4.07-.82,2.17,0,3.76.49,4.76,1.48,1.01.99,1.51,2.86,1.51,5.61v3.04c0,1.89.38,3.08,1.14,3.57-.27.48-.58.77-.92.88-.34.11-.72.17-1.15.17-.48,0-.91-.18-1.29-.53-.38-.35-.64-.74-.77-1.15ZM162.21,13.03c-.57-.11-.99-.17-1.27-.17-2.62,0-3.93.86-3.93,2.57,0,1.27.74,1.91,2.22,1.91,1.99,0,2.99-1,2.99-2.99v-1.33Z"/>
      <path class="cls-1" d="M26.81,32.04v1.74h-.84v-4.72c.56-.02.88-.04.98-.04.75,0,1.29.11,1.64.34s.52.59.52,1.07c0,1.08-.64,1.62-1.91,1.62-.09,0-.22,0-.38-.02ZM26.81,29.78v1.51c.14.02.25.02.34.02.38,0,.66-.06.84-.19.18-.13.26-.34.26-.62,0-.49-.39-.73-1.18-.73-.09,0-.17,0-.25.02Z"/>
      <path class="cls-1" d="M39.1,33.77l-1.26-1.95c-.13,0-.3,0-.53-.02v1.97h-.87v-4.72s.23,0,.54-.02c.32-.02.57-.02.76-.02,1.2,0,1.8.46,1.8,1.39,0,.28-.08.53-.25.76-.17.23-.37.39-.63.49l1.4,2.13h-.97ZM37.31,29.78v1.31c.15.01.27.02.35.02.35,0,.61-.05.77-.15.16-.1.24-.29.24-.58,0-.23-.09-.39-.26-.49-.17-.09-.45-.14-.82-.14-.09,0-.18,0-.28.02Z"/>
      <path class="cls-1" d="M46.85,31.37c0-.67.18-1.24.55-1.71.37-.46.86-.7,1.48-.7.68,0,1.2.21,1.56.63.36.42.54,1.01.54,1.77s-.19,1.36-.56,1.81c-.38.45-.91.67-1.6.67-.63,0-1.12-.22-1.46-.66-.34-.44-.51-1.05-.51-1.82ZM47.72,31.37c0,.55.09.98.28,1.28.19.3.46.45.82.45.42,0,.74-.15.96-.44s.33-.73.33-1.29c0-1.11-.41-1.66-1.22-1.66-.37,0-.66.15-.86.45-.2.3-.3.7-.3,1.21Z"/>
      <path class="cls-1" d="M59.15,32.04v1.74h-.84v-4.72c.56-.02.88-.04.98-.04.75,0,1.29.11,1.64.34s.52.59.52,1.07c0,1.08-.64,1.62-1.91,1.62-.09,0-.22,0-.38-.02ZM59.15,29.78v1.51c.14.02.25.02.34.02.38,0,.66-.06.84-.19.18-.13.26-.34.26-.62,0-.49-.39-.73-1.18-.73-.09,0-.17,0-.25.02Z"/>
      <path class="cls-1" d="M69.62,29.8v1.11h1.56v.71h-1.56v1.42h2.14v.74h-2.98v-4.72h3.01v.74h-2.18Z"/>
      <path class="cls-1" d="M81.8,33.77l-1.26-1.95c-.13,0-.3,0-.53-.02v1.97h-.87v-4.72s.23,0,.54-.02c.32-.02.57-.02.76-.02,1.2,0,1.8.46,1.8,1.39,0,.28-.08.53-.25.76-.17.23-.37.39-.63.49l1.4,2.13h-.97ZM80.01,29.78v1.31c.15.01.27.02.35.02.35,0,.61-.05.77-.15.16-.1.24-.29.24-.58,0-.23-.09-.39-.26-.49-.17-.09-.45-.14-.82-.14-.09,0-.18,0-.28.02Z"/>
      <path class="cls-1" d="M99.2,32.04v1.74h-.84v-4.72c.56-.02.88-.04.98-.04.75,0,1.29.11,1.64.34s.52.59.52,1.07c0,1.08-.64,1.62-1.91,1.62-.09,0-.22,0-.38-.02ZM99.2,29.78v1.51c.14.02.25.02.34.02.38,0,.66-.06.84-.19.18-.13.26-.34.26-.62,0-.49-.39-.73-1.18-.73-.09,0-.17,0-.25.02Z"/>
      <path class="cls-1" d="M108.85,33.77v-4.72h.84v4.72h-.84Z"/>
      <path class="cls-1" d="M117.05,33.77v-.27l1.97-3.71h-1.94v-.74h3.08v.27l-1.98,3.71h2.05v.74h-3.18Z"/>
      <path class="cls-1" d="M127.34,33.77v-.27l1.97-3.71h-1.94v-.74h3.08v.27l-1.98,3.71h2.05v.74h-3.18Z"/>
      <path class="cls-1" d="M140.62,33.77l-.34-.96h-1.62l-.33.96h-.93l1.88-4.79h.37l1.9,4.79h-.93ZM139.46,30.43l-.57,1.74h1.13l-.57-1.74Z"/>
    </g>
  </g>
</svg>