<?xml version="1.0" encoding="UTF-8"?>
<svg id="Layer_2" data-name="Layer 2" xmlns="http://www.w3.org/2000/svg" viewBox="0 0 452.98 315.5">
  <defs>
    <style>
      .cls-1 {
        fill: #fff;
      }

      .cls-2 {
        fill: none;
      }

      .cls-3 {
        fill: #010101;
      }
    </style>
  </defs>
  <g id="Layer_1-2" data-name="Layer 1">
    <g>
      <path class="cls-2" d="M318.21,95.67l.04-.38c.85-7.54.72-9.4-1.17-16.58l-.11-.43c-1.64-6.88-1.67-7.01-4.17-9.94-2.41-2.46-5.06-4.55-7.43-5.87,1.48,5.97,3.24,12.83,4.8,18.93h0c1.97,7.46,4.25,15.84,6.62,24.34.63-3.32,1.1-6.69,1.42-10.07Z"/>
      <path d="M438.82,79.8l-.49-.29c-5.01-2.92-9.21-4.08-14.29-3.92,2.15-6.71,3.49-12.64,4.08-18.11,1.92-17.77-4.81-28.2-10.78-33.82-14.02-13.43-28.79-10.95-43.95-6.95-7.8,2.06-14.4,4.01-19.96,6.14-11.44-10.96-25.93-18.58-41.66-21.5-15.14-2.97-24.64-.46-34.71,2.19-10.45,2.76-17.07,5.21-22.15,8.21-7.78,4.59-12.7,11.03-14.63,19.13-.68,2.67-1.58,6.25.66,19.94-5.45-.8-11.06-.5-16.36.9-12.66,3.34-23.18,12.46-30.32,25.16-6.14-3.8-12.7-6.61-18.76-7.81-6.13-1.26-12.55-1.08-18.58.51-6.6,1.74-12.62,5.07-17.88,9.64-.55-2.09-1.06-3.92-1.52-5.52-2.97-10.3-5.85-17.97-15.9-22.87h-.01c-9.19-5.42-17.13-4.97-22.17-3.63-5.03,1.33-12.16,4.85-17.54,14.09-6.29,10.8-5.04,16.3.2,39.46l.02.1c.92,4.2,2.39,10.67,4.28,18.81-2.76-3.43-5.41-6.69-7.91-9.7-11.4-13.78-13.21-15.02-15.12-16.34l-.2-.13c-4.08-2.74-14.91-10.01-27.97-6.56-3.06.81-6.06,2.17-8.91,4.03l-.4.26c-2.98,1.94-7.97,5.19-11.02,11.91-3.14,6.91-2.51,14.03-1.62,19.46,1.63,9.93,6.26,25.59,16.4,59.9l.53,1.79.42,1c.07.16,6.78,16.16,12.02,34.39,5.96,20.72,6.4,31.43,6.03,36.26-1.33-.4-2.81-.96-4.42-1.65-7.73-3.35-15.58-4.13-22.7-2.25-15.13,3.99-24.12,19-20.9,34.91,3.31,16.36,20.15,32.07,49.31,27.92,4.55-.65,8.9-1.51,12.91-2.57,18.27-4.82,31.37-14.06,38.93-27.47,6.24-11.07,8.39-24.43,6.54-40.79,6.57,7.81,14.42,16.93,17.12,19.25l.68.58.69.49c4.17,2.96,8.33,4.86,12.72,5.79,4.77,1.04,9.7.96,14.25-.24,13.77-3.63,25.3-18.23,20.69-39.08-.46-2.12-1.01-4.63-1.63-7.52-.13-.61-.27-1.25-.41-1.9.92.14,1.84.26,2.76.35l.32.03c5.18.39,10.81-.16,16.26-1.6,6.91-1.82,13.15-4.92,18.06-8.95,4.17-3.43,8.32-8.68,11.79-14.56,6.68,4.04,13.89,6.55,21.23,7.24l.32.03c5.18.39,10.8-.16,16.26-1.6,6.91-1.82,13.15-4.92,18.06-8.95.82-.68,1.64-1.44,2.46-2.25,3.48,8.16,7.15,12.72,13.33,16.58l.62.39.61.32c4.95,2.6,11.21,4.94,20.1,2.6,2.08-.55,4.11-1.29,6.53-2.24,16.9-6.58,22.54-14.57,33.22-34.08,5.87-10.53,10.58-20.42,14.28-30.09,3.03,1,6.25,1.61,9.6,1.75,1.74.1,6.36.37,26.65-4.98,2.37-.63,4.74-1.28,7.05-1.93l13.95-3.95c6.91-1.82,17.35-4.58,23.48-16.24l.1-.2c7.3-14.31,2.81-30.8-10.68-39.22ZM345.97,28.39c.4-.13.81-.25,1.22-.36,9.16-2.42,18.68.87,25.27,7.85-.21.06-.42.12-.63.18-6.44-6.68-15.64-9.81-24.5-7.48-.4.11-.8.22-1.19.35-3.12,1-5.88,2.58-8.23,4.6-.15-.12-.29-.25-.44-.38,2.42-2.09,5.26-3.73,8.49-4.76ZM351.2,44.69c.64-.21,1.3-.31,1.97-.32,4.48-2.79,12.28-5.5,25.18-8.9,14.53-3.83,19.8-3.37,25.64,2.27,8.2,7.63,6.48,23.14-5.58,50.28-.06.12-5.63,12.44-5.42,13.25.15.57.19.74,5.36-.33,1.94-.4,5.96-1.27,11.21-2.66,14.57-3.85,15.44-4.08,19-2.01,5.04,3.15,6.45,8.48,3.67,13.93-1.84,3.51-4.47,4.71-11.42,6.55l-14.11,3.99c-13.46,3.83-25.26,6.34-27.45,6.2-7.68-.26-13.53-5.66-14.23-13.13-.15-2.57,3.14-11.8,8.8-24.68,13.29-30.02,13.43-32.77,12.13-33.52l-.08-.05-.09-.02c-.91-.19-7.35,2.02-12.75,4.37-4.28,1.68-8.33,3-11.13,3.74-.93,1.32-2.18,2.32-3.7,2.81-.12.04-.24.07-.36.1-.26.07-.53.12-.8.16,2.18,8.97,3.33,19.41,2.84,27.93-1.53,24.02-8.25,45.14-22.47,70.64-9.87,18.03-12.92,21.35-23.27,25.39-6.28,2.46-7.09,2.37-10.53.57-4.54-2.85-5.59-4.72-17.81-43.88-15.35-49-28.56-104.4-26.66-111.87,1.33-5.82,6.67-8.9,22.88-13.17,9.21-2.43,15.3-4.04,26.12-1.9h0c15.98,2.94,30.74,12.71,40.12,26.16.82-.86,1.81-1.51,2.95-1.87ZM203.6,120.23c-.62-24.7,10.29-45.63,25.94-49.76,3.17-.84,6.55-.92,9.78-.25h0c8.39,1.64,20.04,9.38,25.45,16.91,1.79,2.54,3.44,5.35,4.95,8.36,2.89,11.07,6.18,22.88,9.69,34.77.84,8.63.56,17.09-1.05,24.41-1.56,8.65-8.23,19.63-13.15,23.67-5.09,4.18-13.53,6.73-20.53,6.2-11.05-1.03-22.44-9.59-29.75-22.35-5.24-9.02-10.85-29.8-11.33-41.95ZM135.93,138.09c-.62-24.7,10.29-45.63,25.94-49.76,3.17-.84,6.55-.92,9.78-.25h0c8.39,1.64,20.04,9.38,25.45,16.91,1.98,2.81,3.79,5.94,5.42,9.32-.1,1.96-.13,3.95-.08,5.97.43,10.95,4.99,28.83,9.73,39.07-.11,4.64-.59,9.09-1.49,13.18-1.56,8.65-8.23,19.63-13.15,23.67-5.09,4.18-13.53,6.73-20.53,6.2-11.05-1.03-22.44-9.59-29.75-22.35-5.24-9.02-10.85-29.8-11.33-41.95ZM360.83,83.42c-.01-.19-.03-.38-.05-.57.43-.09.85-.19,1.28-.3.4-.1.8-.22,1.19-.35,7.34-2.36,13.03-8.11,15.6-15.78.87-2.6,1.33-5.36,1.42-8.17.2-.07.39-.14.58-.2-.07,2.93-.54,5.83-1.45,8.55-2.63,7.84-8.45,13.73-15.97,16.15-.4.13-.81.25-1.22.36-.46.12-.92.22-1.38.32ZM26.4,269.66c4.11-1.08,8.29.13,11.19,2.83,11.52,4.78,19.92,4.68,24.96-.32,17.95-17.78-12.56-90.9-14.05-94.43l-.23-.78q-19.13-64.72-11.78-69.51l.43-.28c4.49-2.94,8.38-2.33,15.43,2.4,1.8,1.24,16.52,18.72,33.17,40.33,15.41,19.48,31.49,39.79,33.89,42.7l4.25,5,.99-.5-9.38-39.57c-5.08-21.23-11.6-48.96-14.21-60.9l-.04-.17q-4.81-21.22-2.36-25.41c1.66-2.85,3.6-4.54,5.81-5.12,2.22-.55,4.79.06,7.67,1.84.36.19.68.35.99.5,4.11,2,4.31,2.71,21.73,76.02.56,2.38,1.15,4.84,1.75,7.37.61,2.99,1.34,6.05,2.15,9.06.46,1.93.93,3.9,1.41,5.91,6.33,26.46,10.78,47.08,13.72,60.73.63,2.91,1.18,5.45,1.64,7.58,1.31,5.94.39,10.85-2.6,13.84-2.31,2.31-5.7,3.17-9.29,2.37-2.32-.48-4.19-1.66-5.52-2.61-3.67-3.16-34.83-40.62-52.93-63.63-15.23-19.12-16.5-20.6-16.78-20.76-.24-.14-.51-.12-.72.04-.54.43-.53.8,2.74,11.68l.5,1.65c2.38,7.07,7.11,22.93,10.38,35.29,7.52,25.59,12.91,48.06,2.64,64.03-6.47,10.05-18.48,16.2-36.72,18.8-8.13,1.16-15.1.15-20.07-2.69-4.35-.86-8.06-4.1-9.27-8.66-1.68-6.37,2.13-12.92,8.5-14.6ZM22.03,253.1c15.5-4.09,31.43,5.19,35.52,20.69.02.06.03.12.04.19-.18.07-.36.12-.54.18-.02-.07-.03-.15-.05-.22-4.01-15.19-19.63-24.29-34.82-20.28-15.19,4.01-24.29,19.63-20.28,34.82,4.01,15.19,19.63,24.29,34.82,20.28,7.58-2,13.65-6.89,17.32-13.18.25-.05.5-.1.74-.16-3.72,6.63-10,11.81-17.91,13.89-15.5,4.09-31.43-5.19-35.52-20.69-4.09-15.5,5.19-31.43,20.69-35.52Z"/>
      <path class="cls-3" d="M36.86,309.31c7.91-2.09,14.2-7.27,17.91-13.89-.25.05-.49.11-.74.16-3.67,6.29-9.74,11.18-17.32,13.18-15.19,4.01-30.81-5.09-34.82-20.28-4.01-15.19,5.09-30.81,20.28-34.82,15.19-4.01,30.81,5.09,34.82,20.28.02.07.03.15.05.22.18-.06.37-.11.54-.18-.02-.06-.03-.12-.04-.19-4.09-15.5-20.02-24.78-35.52-20.69-15.5,4.09-24.78,20.02-20.69,35.52,4.09,15.5,20.02,24.78,35.52,20.69Z"/>
      <path class="cls-1" d="M27.57,275.21c-3.35.88-5.36,4.33-4.47,7.68s4.33,5.36,7.68,4.47,5.36-4.33,4.47-7.68c-.88-3.35-4.33-5.36-7.68-4.47Z"/>
      <path class="cls-1" d="M41,278.16c1.68,6.37-2.13,12.92-8.5,14.6-1.8.48-3.61.5-5.33.16,4.97,2.85,11.94,3.85,20.07,2.69,18.24-2.6,30.25-8.75,36.72-18.8,10.27-15.96,4.88-38.44-2.64-64.03-3.26-12.36-8-28.22-10.38-35.29l-.5-1.65c-3.28-10.87-3.28-11.25-2.74-11.68.21-.16.48-.18.72-.04.28.16,1.55,1.64,16.78,20.76,18.1,23.01,49.26,60.48,52.93,63.63,1.33.94,3.2,2.12,5.52,2.61,3.6.8,6.98-.06,9.29-2.37,2.99-2.98,3.91-7.9,2.6-13.84-.47-2.13-1.01-4.67-1.64-7.58-2.95-13.65-7.4-34.27-13.72-60.73-.48-2.01-.95-3.98-1.41-5.91-.82-3.01-1.55-6.07-2.15-9.06-.6-2.53-1.19-4.99-1.75-7.37-17.42-73.3-17.62-74.01-21.73-76.02-.31-.15-.63-.31-.99-.5-2.88-1.78-5.46-2.39-7.67-1.84-2.21.57-4.15,2.27-5.81,5.12q-2.44,4.2,2.36,25.41l.04.17c2.61,11.94,9.13,39.68,14.21,60.9l9.38,39.57-.99.5-4.25-5c-2.4-2.91-18.48-23.21-33.89-42.7-16.65-21.6-31.37-39.08-33.17-40.33-7.05-4.73-10.95-5.34-15.43-2.4l-.43.28q-7.35,4.79,11.78,69.51l.23.78c1.49,3.53,32,76.65,14.05,94.43-5.04,5-13.45,5.09-24.96.32,1.6,1.49,2.81,3.41,3.41,5.67Z"/>
      <path class="cls-3" d="M363.43,82.74c7.52-2.42,13.34-8.3,15.97-16.15.91-2.72,1.38-5.62,1.45-8.55-.19.07-.38.13-.58.2-.09,2.8-.54,5.56-1.42,8.17-2.57,7.67-8.26,13.42-15.6,15.78-.4.13-.79.24-1.19.35-.43.11-.85.21-1.28.3.02.19.04.38.05.57.46-.09.92-.2,1.38-.32.41-.11.82-.23,1.22-.36Z"/>
      <path class="cls-3" d="M337.91,33.53c2.35-2.01,5.11-3.6,8.23-4.6.4-.13.79-.24,1.19-.35,8.86-2.34,18.06.79,24.5,7.48.21-.06.42-.12.63-.18-6.59-6.98-16.11-10.27-25.27-7.85-.41.11-.82.23-1.22.36-3.22,1.04-6.07,2.68-8.49,4.76.15.12.29.25.44.38Z"/>
      <path class="cls-3" d="M329,59.34c.25,1.38.6,2.76,1.04,4.15.99,3.08,2.41,5.9,4.16,8.39-.15-.6-.29-1.16-.43-1.7-1.3-2.09-2.38-4.39-3.18-6.86-.3-.95-.56-1.9-.77-2.85-.25-.37-.52-.75-.81-1.13Z"/>
      <path class="cls-1" d="M147.27,180.04c7.3,12.76,18.7,21.33,29.75,22.35,7,.53,15.45-2.02,20.53-6.2,4.92-4.04,11.59-15.03,13.15-23.67.9-4.09,1.38-8.54,1.49-13.18-4.74-10.24-9.3-28.12-9.73-39.07-.05-2.02-.02-4.01.08-5.97-1.63-3.37-3.44-6.51-5.42-9.32-5.41-7.53-17.07-15.27-25.45-16.91h0c-3.23-.68-6.61-.59-9.78.25-15.65,4.13-26.56,25.06-25.94,49.76.48,12.15,6.09,32.93,11.33,41.95ZM160.66,118.85c1.65-4.81,3.52-7.28,6.04-7.97,1.34-.63,2.84-.44,4-.19,5.8,1.43,11.36,9.19,15.28,21.29,5.08,15.66,6.54,36.96-.75,45.6-1.4,1.73-2.65,2.77-4.01,3.12-1.73.46-3.64-.17-6.26-1.82-6.69-3.68-12.17-14.24-14.98-28.95-2.93-13.07-2.74-21.78.68-31.07Z"/>
      <path d="M174.96,178.88c2.62,1.65,4.53,2.28,6.26,1.82,1.36-.36,2.61-1.39,4.01-3.12,7.29-8.64,5.83-29.94.75-45.6-3.92-12.1-9.49-19.85-15.28-21.29-1.16-.24-2.66-.44-4,.19-2.53.69-4.39,3.16-6.04,7.97-3.42,9.29-3.61,18.01-.68,31.07,2.82,14.71,8.29,25.27,14.98,28.95Z"/>
      <path class="cls-1" d="M244.67,184.54c7,.53,15.45-2.02,20.53-6.2,4.92-4.04,11.59-15.03,13.15-23.67,1.61-7.32,1.89-15.77,1.05-24.41-3.51-11.89-6.79-23.71-9.69-34.77-1.51-3.01-3.16-5.82-4.95-8.36-5.41-7.53-17.07-15.27-25.45-16.91h0c-3.23-.68-6.61-.59-9.78.25-15.65,4.13-26.56,25.06-25.94,49.76.48,12.15,6.09,32.93,11.33,41.95,7.3,12.76,18.7,21.33,29.75,22.35ZM228.32,101c1.65-4.81,3.52-7.28,6.04-7.97,1.34-.63,2.83-.44,4-.19,5.79,1.43,11.36,9.19,15.28,21.29,5.08,15.66,6.54,36.96-.75,45.6-1.4,1.73-2.65,2.77-4.01,3.12-1.73.46-3.64-.17-6.26-1.82-6.69-3.68-12.17-14.24-14.98-28.95-2.93-13.06-2.74-21.78.68-31.07Z"/>
      <path d="M227.64,132.07c2.82,14.71,8.29,25.27,14.98,28.95,2.62,1.65,4.53,2.28,6.26,1.82,1.36-.36,2.61-1.39,4.01-3.12,7.29-8.64,5.83-29.94.75-45.6-3.92-12.1-9.49-19.85-15.28-21.29-1.16-.24-2.66-.44-4,.19-2.53.69-4.39,3.16-6.04,7.97-3.42,9.29-3.61,18.01-.68,31.07Z"/>
      <path class="cls-1" d="M351.07,65.05c-2.14-1.55-3.83-3.96-4.74-6.79-1.45-4.52-.57-9.08,1.92-11.69-9.38-13.45-24.14-23.22-40.12-26.16h0c-10.82-2.14-16.91-.54-26.12,1.89-16.2,4.28-21.55,7.35-22.88,13.17-1.9,7.47,11.31,62.87,26.66,111.87,12.21,39.17,13.26,41.04,17.81,43.88,3.43,1.8,4.25,1.89,10.53-.57,10.36-4.03,13.4-7.35,23.27-25.39,14.22-25.49,20.94-46.62,22.47-70.64.49-8.52-.66-18.96-2.84-27.93-1.98.28-4.06-.29-5.96-1.66ZM337.53,97.48c-1.34,14.46-5.12,28.41-11.24,41.45-2.31,5.03-5.99,12.45-7.98,16.23l-3.99,8.56-6.82-20.43c-3.21-10.22-10.45-35.56-16.1-56.99-9.06-35.33-9.65-38.39-7.94-40.92l.05-.06c1.28-1.45,3.48-2.61,6.36-3.37,6.87-1.81,16.91-.46,24.41,3.29,5.52,2.97,10.06,7.11,12.89,10.06,5.03,5.89,6.13,7.79,8.68,18.5,2.52,9.54,2.82,13.75,1.69,23.7Z"/>
      <path d="M335.83,73.77c-2.55-10.71-3.65-12.61-8.68-18.5-2.83-2.95-7.37-7.09-12.89-10.06-7.5-3.75-17.53-5.1-24.41-3.29-2.88.76-5.07,1.93-6.36,3.37l-.05.06c-1.71,2.54-1.12,5.59,7.94,40.92,5.66,21.43,12.89,46.76,16.1,56.99l6.82,20.43,3.99-8.56c1.99-3.78,5.66-11.2,7.98-16.23,6.12-13.04,9.91-26.99,11.24-41.45,1.13-9.95.83-14.16-1.69-23.7ZM330.58,63.32c.8,2.48,1.88,4.77,3.18,6.86.14.54.29,1.1.43,1.7-1.75-2.49-3.17-5.3-4.16-8.39-.44-1.38-.79-2.77-1.04-4.15.29.38.56.76.81,1.13.21.95.47,1.9.77,2.85ZM310.17,81.4c-1.56-6.1-3.32-12.97-4.8-18.93,2.37,1.32,5.01,3.41,7.43,5.87,2.5,2.93,2.53,3.07,4.17,9.94l.11.43c1.9,7.19,2.03,9.05,1.17,16.58l-.04.38c-.31,3.38-.79,6.75-1.42,10.07-2.37-8.51-4.65-16.88-6.62-24.34h0Z"/>
      <path class="cls-1" d="M363.06,52.88c1.29,4.02.73,8.07-1.16,10.76,2.79-.74,6.84-2.06,11.13-3.74,5.4-2.35,11.84-4.56,12.75-4.37l.09.02.08.05c1.3.76,1.16,3.5-12.13,33.52-5.66,12.88-8.95,22.1-8.8,24.68.7,7.48,6.55,12.88,14.23,13.13,2.19.14,13.99-2.37,27.45-6.2l14.11-3.99c6.95-1.83,9.57-3.04,11.42-6.55,2.78-5.44,1.37-10.78-3.67-13.93-3.55-2.07-4.43-1.84-19,2.01-5.24,1.38-9.27,2.26-11.21,2.66-5.17,1.06-5.21.89-5.36.33-.21-.81,5.36-13.12,5.42-13.25,12.06-27.14,13.78-42.65,5.58-50.28-5.85-5.64-11.12-6.1-25.64-2.27-12.89,3.4-20.7,6.11-25.18,8.9,1.73-.05,3.51.54,5.15,1.72,2.14,1.55,3.83,3.96,4.74,6.79Z"/>
      <path class="cls-1" d="M351.16,56.7c.45,1.41,1.27,2.6,2.31,3.35.95.69,1.97.91,2.86.62,1.95-.63,2.8-3.43,1.89-6.25-.45-1.41-1.27-2.6-2.31-3.35-.91-.66-1.87-.89-2.74-.66-.04.01-.09.02-.13.04-1.95.63-2.8,3.43-1.89,6.25Z"/>
      <path class="cls-3" d="M17.9,284.26c1.21,4.57,4.92,7.81,9.27,8.66,1.72.34,3.53.32,5.33-.16,6.37-1.68,10.18-8.23,8.5-14.6-.6-2.26-1.81-4.19-3.41-5.67-2.9-2.7-7.08-3.91-11.19-2.83-6.37,1.68-10.18,8.23-8.5,14.6ZM30.78,287.36c-3.35.88-6.79-1.12-7.68-4.47s1.12-6.79,4.47-7.68,6.79,1.12,7.68,4.47c.88,3.35-1.12,6.79-4.47,7.68Z"/>
      <path class="cls-3" d="M348.26,46.56c-2.49,2.61-3.37,7.18-1.92,11.69.91,2.83,2.59,5.24,4.74,6.79,1.9,1.38,3.98,1.95,5.96,1.66.27-.04.53-.09.8-.16.12-.03.24-.07.36-.1,1.52-.49,2.77-1.48,3.7-2.81,1.89-2.69,2.46-6.74,1.16-10.76-.91-2.83-2.59-5.24-4.74-6.79-1.65-1.19-3.42-1.77-5.15-1.72-.66.02-1.32.12-1.97.32-1.14.37-2.13,1.02-2.95,1.87ZM355.92,51.08c1.04.75,1.86,1.94,2.31,3.35.91,2.82.06,5.62-1.89,6.25-.89.29-1.91.07-2.86-.62-1.04-.75-1.86-1.94-2.31-3.35-.91-2.82-.06-5.62,1.89-6.25.04-.01.08-.03.13-.04.86-.23,1.83,0,2.74.66Z"/>
    </g>
  </g>
</svg>