<?xml version="1.0" encoding="UTF-8"?>
<svg id="Layer_2" data-name="Layer 2" xmlns="http://www.w3.org/2000/svg" viewBox="0 0 313.55 15.94">
  <defs>
    <style>
      .cls-1 {
        fill: #fff;
      }
    </style>
  </defs>
  <g id="Layer_1-2" data-name="Layer 1">
    <g>
      <path class="cls-1" d="M13.77.39v3.17h-4.86v12h-4.04V3.56H0V.39h13.77Z"/>
      <path class="cls-1" d="M34.05.39h4.01v15.17h-4.01v-6.13h-6.34v6.13h-4.01V.39h4.01v5.91h6.34V.39Z"/>
      <path class="cls-1" d="M53.21,12.38h8.19v3.17h-12.2V.39h12.13v3.17h-8.12v2.81h7.43v2.94h-7.43v3.08Z"/>
      <path class="cls-1" d="M100.21,5.41c0,2.94-1.39,5.2-4.88,5.2h-4.42v4.95h-4.06V.39h8.48c3.49,0,4.88,2.26,4.88,5.02ZM93.99,7.5c1.46,0,2.03-.89,2.03-2.08s-.55-1.96-1.98-1.96h-3.12v4.04h3.08Z"/>
      <path class="cls-1" d="M109.93,7.98c0-3.99,2.17-7.98,8.14-7.98s8.16,4.01,8.16,7.98-2.14,7.94-8.16,7.94-8.14-3.88-8.14-7.94ZM118.07,12.66c3.17,0,3.97-1.71,3.97-4.68s-.8-4.7-3.97-4.7-3.95,1.69-3.95,4.7.82,4.68,3.95,4.68Z"/>
      <path class="cls-1" d="M136.71.39h4.04v8.87c0,2.65.96,3.37,3.01,3.37s3.06-.73,3.06-3.37V.39h4.01v9.4c0,4.04-2.37,6.13-7.07,6.13s-7.05-2.08-7.05-6.13V.39Z"/>
      <path class="cls-1" d="M174.84,12.82c0,1.23.14,1.87.3,2.74h-4.06c-.18-.62-.27-1.48-.27-2.74v-.62c0-1.46-.94-2.14-2.23-2.14h-2.76v5.5h-4.06V.39h8.39c3.42,0,5.09,1.76,5.09,4.2,0,2.17-1.39,3.63-3.28,4.01,1.57.34,2.9,1.14,2.9,3.37v.84ZM169.07,7.18c1.39,0,1.96-.64,1.96-1.94,0-1.19-.59-1.78-1.94-1.78h-3.28v3.72h3.26Z"/>
      <path class="cls-1" d="M210.9.39h4.01v15.17h-4.01v-6.13h-6.34v6.13h-4.01V.39h4.01v5.91h6.34V.39Z"/>
      <path class="cls-1" d="M225.45,7.98c0-3.99,2.17-7.98,8.14-7.98s8.16,4.01,8.16,7.98-2.14,7.94-8.16,7.94-8.14-3.88-8.14-7.94ZM233.59,12.66c3.17,0,3.97-1.71,3.97-4.68s-.8-4.7-3.97-4.7-3.95,1.69-3.95,4.7.82,4.68,3.95,4.68Z"/>
      <path class="cls-1" d="M252.22.39h4.04v8.87c0,2.65.96,3.37,3.01,3.37s3.06-.73,3.06-3.37V.39h4.01v9.4c0,4.04-2.37,6.13-7.07,6.13s-7.05-2.08-7.05-6.13V.39Z"/>
      <path class="cls-1" d="M280.85,10.63c.11,1.25.93,2.39,3.06,2.39,1.94,0,2.67-.68,2.67-1.73s-.59-1.51-1.73-1.66l-3.31-.36c-2.74-.32-4.31-1.87-4.31-4.45,0-2.85,2.14-4.81,6.52-4.81,4.67,0,6.55,2.23,6.75,4.93h-3.97c-.16-1.21-1.07-2.01-2.78-2.01-1.55,0-2.46.62-2.46,1.62,0,.78.46,1.35,1.62,1.48l2.9.3c3.33.32,4.83,1.89,4.83,4.63,0,2.99-1.87,4.99-6.8,4.99s-6.73-2.6-6.89-5.31h3.9Z"/>
      <path class="cls-1" d="M305.36,12.38h8.19v3.17h-12.2V.39h12.13v3.17h-8.12v2.81h7.43v2.94h-7.43v3.08Z"/>
    </g>
  </g>
</svg>